M48
; DRILL file {KiCad (5.1.9-0-10_14)} date Saturday, March 06, 2021 at 04:34:51 PM
; FORMAT={-:-/ absolute / metric / decimal}
; #@! TF.CreationDate,2021-03-06T16:34:51+01:00
; #@! TF.GenerationSoftware,Kicad,Pcbnew,(5.1.9-0-10_14)
FMAT,2
METRIC
T1C0.400
T2C0.500
T3C0.700
T4C0.762
T5C0.800
T6C0.850
T7C0.900
T8C1.000
T9C1.100
%
G90
G05
T1
X91.138Y-64.269
X97.903Y-79.695
X98.411Y-81.054
X103.072Y-77.712
X103.298Y-78.883
X109.611Y-76.816
X111.519Y-125.476
X112.941Y-76.026
X121.194Y-87.574
X121.333Y-83.731
X121.715Y-95.105
X122.001Y-82.412
X126.423Y-78.636
X127.222Y-61.709
X131.741Y-76.32
X134.061Y-90.247
X134.23Y-89.017
X134.359Y-78.907
X134.704Y-101.23
X134.858Y-87.498
X135.222Y-88.499
X148.75Y-84.211
X150.129Y-65.831
X150.146Y-83.415
X150.282Y-100.97
X151.384Y-100.981
X152.923Y-100.565
X154.56Y-119.639
X158.329Y-94.981
X160.475Y-91.74
X163.83Y-91.758
X165.349Y-91.741
X175.382Y-76.171
X175.767Y-59.69
X179.749Y-105.588
T2
X93.98Y-61.468
X97.79Y-61.468
T3
X111.252Y-53.34
X111.252Y-55.88
X111.252Y-58.42
X111.252Y-60.96
X111.252Y-63.5
X111.252Y-66.04
X111.252Y-68.58
X111.252Y-71.12
X111.252Y-73.66
X118.872Y-53.34
X118.872Y-55.88
X118.872Y-58.42
X118.872Y-60.96
X118.872Y-63.5
X118.872Y-66.04
X118.872Y-68.58
X118.872Y-71.12
X118.872Y-73.66
X124.46Y-74.168
X132.08Y-74.168
X136.144Y-74.676
X136.144Y-77.724
X143.764Y-74.676
X143.764Y-77.724
X161.544Y-50.292
X161.544Y-53.34
X161.544Y-56.896
X161.544Y-60.452
X161.544Y-64.008
X161.544Y-67.564
X161.544Y-71.12
X161.544Y-74.676
X161.544Y-78.232
X161.544Y-81.788
X169.164Y-50.292
X169.164Y-53.34
X169.164Y-56.896
X169.164Y-60.452
X169.164Y-64.008
X169.164Y-67.564
X169.164Y-71.12
X169.164Y-74.676
X169.164Y-78.232
X169.164Y-81.788
X176.784Y-74.676
X176.784Y-77.462
X184.404Y-74.676
X184.404Y-77.462
T4
X68.834Y-83.566
X68.834Y-98.806
X71.374Y-83.566
X71.374Y-98.806
X73.914Y-83.566
X73.914Y-98.806
X74.414Y-112.999
X74.414Y-115.539
X74.414Y-118.079
X74.414Y-120.619
X74.414Y-123.159
X74.414Y-125.699
X76.454Y-83.566
X76.454Y-98.806
X78.994Y-83.566
X78.994Y-98.806
X81.534Y-83.566
X81.534Y-98.806
X84.074Y-83.566
X84.074Y-98.806
X86.614Y-83.566
X86.614Y-98.806
X89.154Y-83.566
X89.154Y-98.806
X91.694Y-83.566
X91.694Y-98.806
X94.234Y-83.566
X94.234Y-98.806
X96.774Y-83.566
X96.774Y-98.806
X101.854Y-83.566
X101.854Y-98.806
X104.394Y-83.566
X104.394Y-98.806
X151.384Y-89.916
X151.384Y-93.116
X151.384Y-95.316
X151.384Y-97.516
X151.384Y-105.156
X151.384Y-108.356
X151.384Y-110.556
X151.384Y-112.756
X151.384Y-120.396
X151.384Y-123.596
X151.384Y-125.796
X151.384Y-127.996
X156.464Y-89.916
X156.464Y-93.116
X156.464Y-95.316
X156.464Y-97.516
X156.464Y-105.156
X156.464Y-108.356
X156.464Y-110.556
X156.464Y-112.756
X156.464Y-120.396
X156.464Y-123.596
X156.464Y-125.796
X156.464Y-127.996
X167.132Y-89.916
X167.132Y-93.116
X167.132Y-95.316
X167.132Y-97.516
X167.132Y-105.156
X167.132Y-108.356
X167.132Y-110.556
X167.132Y-112.756
X167.132Y-120.396
X167.132Y-123.596
X167.132Y-125.796
X167.132Y-127.996
X172.212Y-89.916
X172.212Y-93.116
X172.212Y-95.316
X172.212Y-97.516
X172.212Y-105.156
X172.212Y-108.356
X172.212Y-110.556
X172.212Y-112.756
X172.212Y-120.396
X172.212Y-123.596
X172.212Y-125.796
X172.212Y-127.996
X181.864Y-89.916
X181.864Y-93.116
X181.864Y-95.316
X181.864Y-97.516
X181.864Y-105.156
X181.864Y-108.356
X181.864Y-110.556
X181.864Y-112.756
X181.864Y-120.396
X181.864Y-123.596
X181.864Y-125.796
X181.864Y-127.996
X186.944Y-89.916
X186.944Y-93.116
X186.944Y-95.316
X186.944Y-97.516
X186.944Y-105.156
X186.944Y-108.356
X186.944Y-110.556
X186.944Y-112.756
X186.944Y-120.396
X186.944Y-123.596
X186.944Y-125.796
X186.944Y-127.996
T5
X111.252Y-86.36
X111.252Y-88.9
X111.252Y-91.44
X111.252Y-93.98
X111.252Y-96.52
X111.252Y-99.06
X111.252Y-101.6
X111.252Y-104.14
X111.252Y-106.68
X111.252Y-109.22
X111.252Y-111.76
X111.252Y-114.3
X111.252Y-116.84
X111.252Y-119.38
X111.252Y-122.936
X118.752Y-122.936
X118.872Y-86.36
X118.872Y-88.9
X118.872Y-91.44
X118.872Y-93.98
X118.872Y-96.52
X118.872Y-99.06
X118.872Y-101.6
X118.872Y-104.14
X118.872Y-106.68
X118.872Y-109.22
X118.872Y-111.76
X118.872Y-114.3
X118.872Y-116.84
X118.872Y-119.38
X124.46Y-53.34
X124.46Y-55.88
X124.46Y-58.42
X124.46Y-60.96
X124.46Y-63.5
X124.46Y-66.04
X124.46Y-68.58
X124.46Y-71.12
X124.46Y-81.28
X124.46Y-83.82
X124.46Y-86.36
X124.46Y-88.9
X124.46Y-91.44
X124.46Y-93.98
X124.46Y-96.52
X124.46Y-99.06
X124.46Y-107.188
X124.46Y-109.728
X124.46Y-112.268
X124.46Y-114.808
X124.46Y-117.348
X124.46Y-119.888
X124.46Y-122.428
X124.46Y-124.968
X124.58Y-49.276
X124.58Y-77.724
X124.58Y-103.124
X124.58Y-128.524
X132.08Y-49.276
X132.08Y-53.34
X132.08Y-55.88
X132.08Y-58.42
X132.08Y-60.96
X132.08Y-63.5
X132.08Y-66.04
X132.08Y-68.58
X132.08Y-71.12
X132.08Y-77.724
X132.08Y-81.28
X132.08Y-83.82
X132.08Y-86.36
X132.08Y-88.9
X132.08Y-91.44
X132.08Y-93.98
X132.08Y-96.52
X132.08Y-99.06
X132.08Y-103.124
X132.08Y-107.188
X132.08Y-109.728
X132.08Y-112.268
X132.08Y-114.808
X132.08Y-117.348
X132.08Y-119.888
X132.08Y-122.428
X132.08Y-124.968
X132.08Y-128.524
X136.144Y-49.276
X136.144Y-53.34
X136.144Y-55.88
X136.144Y-58.42
X136.144Y-60.96
X136.144Y-63.5
X136.144Y-66.04
X136.144Y-68.58
X136.144Y-71.12
X143.644Y-49.276
X143.764Y-53.34
X143.764Y-55.88
X143.764Y-58.42
X143.764Y-60.96
X143.764Y-63.5
X143.764Y-66.04
X143.764Y-68.58
X143.764Y-71.12
X174.244Y-53.34
X174.244Y-55.88
X174.244Y-58.42
X174.244Y-60.96
X174.244Y-63.5
X174.244Y-66.04
X174.244Y-68.58
X174.244Y-71.12
X186.944Y-53.34
X186.944Y-55.88
X186.944Y-58.42
X186.944Y-60.96
X186.944Y-63.5
X186.944Y-66.04
X186.944Y-68.58
X186.944Y-71.12
T6
X99.432Y-116.84
X99.432Y-121.92
X103.632Y-116.84
X103.632Y-121.92
X195.072Y-55.744
X195.072Y-59.944
T7
X150.876Y-53.34
X150.876Y-56.896
X150.876Y-60.452
X150.876Y-64.008
X150.876Y-67.564
X150.876Y-71.12
X150.876Y-74.676
X150.876Y-78.232
X150.876Y-81.788
X158.496Y-53.34
X158.496Y-56.896
X158.496Y-60.452
X158.496Y-64.008
X158.496Y-67.564
X158.496Y-71.12
X158.496Y-74.676
X158.496Y-78.232
X158.496Y-81.788
T8
X71.12Y-74.676
X73.66Y-74.676
X76.2Y-74.676
X78.74Y-74.676
X78.74Y-103.124
X81.28Y-103.124
X83.82Y-103.124
X84.836Y-74.676
X86.36Y-103.124
X88.9Y-103.124
X90.548Y-117.122
X90.548Y-120.622
X90.932Y-74.676
X91.44Y-103.124
X93.472Y-74.676
X93.98Y-103.124
X96.012Y-74.676
X96.52Y-103.124
X98.552Y-74.676
X100.076Y-129.032
X101.092Y-74.676
X102.616Y-129.032
X103.632Y-74.676
X138.176Y-107.188
X138.176Y-109.728
X138.176Y-112.268
X138.176Y-114.808
X138.176Y-117.348
X138.176Y-119.888
X138.176Y-122.428
X138.176Y-124.968
X143.764Y-107.188
X143.764Y-109.728
X143.764Y-112.268
X143.764Y-114.808
X143.764Y-120.396
X143.764Y-122.936
X143.764Y-125.476
X143.764Y-128.016
X195.072Y-66.548
X195.072Y-69.088
X195.072Y-71.628
X195.072Y-74.168
X195.072Y-76.708
X195.072Y-83.82
X195.072Y-86.36
X195.072Y-88.9
X195.072Y-91.44
X195.072Y-93.98
X195.072Y-96.52
X195.072Y-99.06
X195.072Y-101.6
X195.072Y-109.728
X195.072Y-112.268
X195.072Y-114.808
X195.072Y-117.348
X195.072Y-124.46
X195.072Y-127.0
T9
X71.12Y-53.848
X71.12Y-56.388
X71.12Y-58.928
X71.12Y-61.468
X71.12Y-64.008
X71.12Y-66.548
X71.12Y-69.088
X71.12Y-79.248
X73.66Y-53.848
X73.66Y-69.088
X76.2Y-53.848
X76.2Y-69.088
X78.74Y-53.848
X78.74Y-69.088
X81.28Y-53.848
X81.28Y-69.088
X81.28Y-79.248
X83.82Y-53.848
X83.82Y-69.088
X86.36Y-53.848
X86.36Y-69.088
X88.9Y-53.848
X88.9Y-69.088
X91.44Y-53.848
X91.44Y-66.548
X91.44Y-69.088
X93.98Y-53.848
X93.98Y-66.548
X93.98Y-69.088
X96.52Y-53.848
X96.52Y-66.548
X96.52Y-69.088
X99.06Y-53.848
X99.06Y-69.088
X101.6Y-53.848
X101.6Y-66.548
X101.6Y-69.088
X104.14Y-53.848
X104.14Y-69.088
T0
M30
