%FSLAX45Y45*%
G04 Gerber Fmt 4.5, Leading zero omitted, Abs format (unit mm)*
G04 Created by KiCad (PCBNEW (5.1.9-0-10_14)) date 2021-03-06 16:34:52*
%MOMM*%
%LPD*%
G01*
G04 APERTURE LIST*
%ADD10C,0.200000*%
%ADD11C,0.300000*%
G04 APERTURE END LIST*
D10*
X9093840Y-6406890D02*
X9133840Y-6446890D01*
X9133840Y-6406890D02*
X9093840Y-6446890D01*
X9770350Y-7949490D02*
X9810350Y-7989490D01*
X9810350Y-7949490D02*
X9770350Y-7989490D01*
X9821060Y-8085420D02*
X9861060Y-8125420D01*
X9861060Y-8085420D02*
X9821060Y-8125420D01*
X10287200Y-7751170D02*
X10327200Y-7791170D01*
X10327200Y-7751170D02*
X10287200Y-7791170D01*
X10309790Y-7868270D02*
X10349790Y-7908270D01*
X10349790Y-7868270D02*
X10309790Y-7908270D01*
X10941090Y-7661580D02*
X10981090Y-7701580D01*
X10981090Y-7661580D02*
X10941090Y-7701580D01*
X11131940Y-12527630D02*
X11171940Y-12567630D01*
X11171940Y-12527630D02*
X11131940Y-12567630D01*
X11274080Y-7582590D02*
X11314080Y-7622590D01*
X11314080Y-7582590D02*
X11274080Y-7622590D01*
X12099390Y-8737410D02*
X12139390Y-8777410D01*
X12139390Y-8737410D02*
X12099390Y-8777410D01*
X12113330Y-8353080D02*
X12153330Y-8393080D01*
X12153330Y-8353080D02*
X12113330Y-8393080D01*
X12151520Y-9490540D02*
X12191520Y-9530540D01*
X12191520Y-9490540D02*
X12151520Y-9530540D01*
X12180130Y-8221240D02*
X12220130Y-8261240D01*
X12220130Y-8221240D02*
X12180130Y-8261240D01*
X12622270Y-7843600D02*
X12662270Y-7883600D01*
X12662270Y-7843600D02*
X12622270Y-7883600D01*
X12702190Y-6150940D02*
X12742190Y-6190940D01*
X12742190Y-6150940D02*
X12702190Y-6190940D01*
X13154080Y-7612050D02*
X13194080Y-7652050D01*
X13194080Y-7612050D02*
X13154080Y-7652050D01*
X13386090Y-9004670D02*
X13426090Y-9044670D01*
X13426090Y-9004670D02*
X13386090Y-9044670D01*
X13402980Y-8881680D02*
X13442980Y-8921680D01*
X13442980Y-8881680D02*
X13402980Y-8921680D01*
X13415890Y-7870730D02*
X13455890Y-7910730D01*
X13455890Y-7870730D02*
X13415890Y-7910730D01*
X13450400Y-10102950D02*
X13490400Y-10142950D01*
X13490400Y-10102950D02*
X13450400Y-10142950D01*
X13465800Y-8729830D02*
X13505800Y-8769830D01*
X13505800Y-8729830D02*
X13465800Y-8769830D01*
X13502200Y-8829920D02*
X13542200Y-8869920D01*
X13542200Y-8829920D02*
X13502200Y-8869920D01*
X14855020Y-8401090D02*
X14895020Y-8441090D01*
X14895020Y-8401090D02*
X14855020Y-8441090D01*
X14992940Y-6563050D02*
X15032940Y-6603050D01*
X15032940Y-6563050D02*
X14992940Y-6603050D01*
X14994620Y-8321470D02*
X15034620Y-8361470D01*
X15034620Y-8321470D02*
X14994620Y-8361470D01*
X15008220Y-10077010D02*
X15048220Y-10117010D01*
X15048220Y-10077010D02*
X15008220Y-10117010D01*
X15118400Y-10078070D02*
X15158400Y-10118070D01*
X15158400Y-10078070D02*
X15118400Y-10118070D01*
X15272310Y-10036470D02*
X15312310Y-10076470D01*
X15312310Y-10036470D02*
X15272310Y-10076470D01*
X15436040Y-11943870D02*
X15476040Y-11983870D01*
X15476040Y-11943870D02*
X15436040Y-11983870D01*
X15812900Y-9478100D02*
X15852900Y-9518100D01*
X15852900Y-9478100D02*
X15812900Y-9518100D01*
X16027540Y-9153960D02*
X16067540Y-9193960D01*
X16067540Y-9153960D02*
X16027540Y-9193960D01*
X16363020Y-9155820D02*
X16403020Y-9195820D01*
X16403020Y-9155820D02*
X16363020Y-9195820D01*
X16514900Y-9154080D02*
X16554900Y-9194080D01*
X16554900Y-9154080D02*
X16514900Y-9194080D01*
X17518160Y-7597100D02*
X17558160Y-7637100D01*
X17558160Y-7597100D02*
X17518160Y-7637100D01*
X17556720Y-5949000D02*
X17596720Y-5989000D01*
X17596720Y-5949000D02*
X17556720Y-5989000D01*
X17954930Y-10538800D02*
X17994930Y-10578800D01*
X17994930Y-10538800D02*
X17954930Y-10578800D01*
X9423000Y-6146800D02*
G75*
G03*
X9423000Y-6146800I-25000J0D01*
G01*
X9804000Y-6146800D02*
G75*
G03*
X9804000Y-6146800I-25000J0D01*
G01*
X11125200Y-5299000D02*
X11125200Y-5369000D01*
X11090200Y-5334000D02*
X11160200Y-5334000D01*
X11125200Y-5553000D02*
X11125200Y-5623000D01*
X11090200Y-5588000D02*
X11160200Y-5588000D01*
X11125200Y-5807000D02*
X11125200Y-5877000D01*
X11090200Y-5842000D02*
X11160200Y-5842000D01*
X11125200Y-6061000D02*
X11125200Y-6131000D01*
X11090200Y-6096000D02*
X11160200Y-6096000D01*
X11125200Y-6315000D02*
X11125200Y-6385000D01*
X11090200Y-6350000D02*
X11160200Y-6350000D01*
X11125200Y-6569000D02*
X11125200Y-6639000D01*
X11090200Y-6604000D02*
X11160200Y-6604000D01*
X11125200Y-6823000D02*
X11125200Y-6893000D01*
X11090200Y-6858000D02*
X11160200Y-6858000D01*
X11125200Y-7077000D02*
X11125200Y-7147000D01*
X11090200Y-7112000D02*
X11160200Y-7112000D01*
X11125200Y-7331000D02*
X11125200Y-7401000D01*
X11090200Y-7366000D02*
X11160200Y-7366000D01*
X11887200Y-5299000D02*
X11887200Y-5369000D01*
X11852200Y-5334000D02*
X11922200Y-5334000D01*
X11887200Y-5553000D02*
X11887200Y-5623000D01*
X11852200Y-5588000D02*
X11922200Y-5588000D01*
X11887200Y-5807000D02*
X11887200Y-5877000D01*
X11852200Y-5842000D02*
X11922200Y-5842000D01*
X11887200Y-6061000D02*
X11887200Y-6131000D01*
X11852200Y-6096000D02*
X11922200Y-6096000D01*
X11887200Y-6315000D02*
X11887200Y-6385000D01*
X11852200Y-6350000D02*
X11922200Y-6350000D01*
X11887200Y-6569000D02*
X11887200Y-6639000D01*
X11852200Y-6604000D02*
X11922200Y-6604000D01*
X11887200Y-6823000D02*
X11887200Y-6893000D01*
X11852200Y-6858000D02*
X11922200Y-6858000D01*
X11887200Y-7077000D02*
X11887200Y-7147000D01*
X11852200Y-7112000D02*
X11922200Y-7112000D01*
X11887200Y-7331000D02*
X11887200Y-7401000D01*
X11852200Y-7366000D02*
X11922200Y-7366000D01*
X12446000Y-7381800D02*
X12446000Y-7451800D01*
X12411000Y-7416800D02*
X12481000Y-7416800D01*
X13208000Y-7381800D02*
X13208000Y-7451800D01*
X13173000Y-7416800D02*
X13243000Y-7416800D01*
X13614400Y-7432600D02*
X13614400Y-7502600D01*
X13579400Y-7467600D02*
X13649400Y-7467600D01*
X13614400Y-7737400D02*
X13614400Y-7807400D01*
X13579400Y-7772400D02*
X13649400Y-7772400D01*
X14376400Y-7432600D02*
X14376400Y-7502600D01*
X14341400Y-7467600D02*
X14411400Y-7467600D01*
X14376400Y-7737400D02*
X14376400Y-7807400D01*
X14341400Y-7772400D02*
X14411400Y-7772400D01*
X16154400Y-4994200D02*
X16154400Y-5064200D01*
X16119400Y-5029200D02*
X16189400Y-5029200D01*
X16154400Y-5299000D02*
X16154400Y-5369000D01*
X16119400Y-5334000D02*
X16189400Y-5334000D01*
X16154400Y-5654600D02*
X16154400Y-5724600D01*
X16119400Y-5689600D02*
X16189400Y-5689600D01*
X16154400Y-6010200D02*
X16154400Y-6080200D01*
X16119400Y-6045200D02*
X16189400Y-6045200D01*
X16154400Y-6365800D02*
X16154400Y-6435800D01*
X16119400Y-6400800D02*
X16189400Y-6400800D01*
X16154400Y-6721400D02*
X16154400Y-6791400D01*
X16119400Y-6756400D02*
X16189400Y-6756400D01*
X16154400Y-7077000D02*
X16154400Y-7147000D01*
X16119400Y-7112000D02*
X16189400Y-7112000D01*
X16154400Y-7432600D02*
X16154400Y-7502600D01*
X16119400Y-7467600D02*
X16189400Y-7467600D01*
X16154400Y-7788200D02*
X16154400Y-7858200D01*
X16119400Y-7823200D02*
X16189400Y-7823200D01*
X16154400Y-8143800D02*
X16154400Y-8213800D01*
X16119400Y-8178800D02*
X16189400Y-8178800D01*
X16916400Y-4994200D02*
X16916400Y-5064200D01*
X16881400Y-5029200D02*
X16951400Y-5029200D01*
X16916400Y-5299000D02*
X16916400Y-5369000D01*
X16881400Y-5334000D02*
X16951400Y-5334000D01*
X16916400Y-5654600D02*
X16916400Y-5724600D01*
X16881400Y-5689600D02*
X16951400Y-5689600D01*
X16916400Y-6010200D02*
X16916400Y-6080200D01*
X16881400Y-6045200D02*
X16951400Y-6045200D01*
X16916400Y-6365800D02*
X16916400Y-6435800D01*
X16881400Y-6400800D02*
X16951400Y-6400800D01*
X16916400Y-6721400D02*
X16916400Y-6791400D01*
X16881400Y-6756400D02*
X16951400Y-6756400D01*
X16916400Y-7077000D02*
X16916400Y-7147000D01*
X16881400Y-7112000D02*
X16951400Y-7112000D01*
X16916400Y-7432600D02*
X16916400Y-7502600D01*
X16881400Y-7467600D02*
X16951400Y-7467600D01*
X16916400Y-7788200D02*
X16916400Y-7858200D01*
X16881400Y-7823200D02*
X16951400Y-7823200D01*
X16916400Y-8143800D02*
X16916400Y-8213800D01*
X16881400Y-8178800D02*
X16951400Y-8178800D01*
X17678400Y-7432600D02*
X17678400Y-7502600D01*
X17643400Y-7467600D02*
X17713400Y-7467600D01*
X17678400Y-7711200D02*
X17678400Y-7781200D01*
X17643400Y-7746200D02*
X17713400Y-7746200D01*
X18440400Y-7432600D02*
X18440400Y-7502600D01*
X18405400Y-7467600D02*
X18475400Y-7467600D01*
X18440400Y-7711200D02*
X18440400Y-7781200D01*
X18405400Y-7746200D02*
X18475400Y-7746200D01*
X6910341Y-8383541D02*
X6910341Y-8329659D01*
X6856459Y-8329659D01*
X6856459Y-8383541D01*
X6910341Y-8383541D01*
X6910341Y-9907541D02*
X6910341Y-9853659D01*
X6856459Y-9853659D01*
X6856459Y-9907541D01*
X6910341Y-9907541D01*
X7164341Y-8383541D02*
X7164341Y-8329659D01*
X7110459Y-8329659D01*
X7110459Y-8383541D01*
X7164341Y-8383541D01*
X7164341Y-9907541D02*
X7164341Y-9853659D01*
X7110459Y-9853659D01*
X7110459Y-9907541D01*
X7164341Y-9907541D01*
X7418341Y-8383541D02*
X7418341Y-8329659D01*
X7364459Y-8329659D01*
X7364459Y-8383541D01*
X7418341Y-8383541D01*
X7418341Y-9907541D02*
X7418341Y-9853659D01*
X7364459Y-9853659D01*
X7364459Y-9907541D01*
X7418341Y-9907541D01*
X7468341Y-11326841D02*
X7468341Y-11272959D01*
X7414459Y-11272959D01*
X7414459Y-11326841D01*
X7468341Y-11326841D01*
X7468341Y-11580841D02*
X7468341Y-11526959D01*
X7414459Y-11526959D01*
X7414459Y-11580841D01*
X7468341Y-11580841D01*
X7468341Y-11834841D02*
X7468341Y-11780959D01*
X7414459Y-11780959D01*
X7414459Y-11834841D01*
X7468341Y-11834841D01*
X7468341Y-12088841D02*
X7468341Y-12034959D01*
X7414459Y-12034959D01*
X7414459Y-12088841D01*
X7468341Y-12088841D01*
X7468341Y-12342841D02*
X7468341Y-12288959D01*
X7414459Y-12288959D01*
X7414459Y-12342841D01*
X7468341Y-12342841D01*
X7468341Y-12596841D02*
X7468341Y-12542959D01*
X7414459Y-12542959D01*
X7414459Y-12596841D01*
X7468341Y-12596841D01*
X7672341Y-8383541D02*
X7672341Y-8329659D01*
X7618459Y-8329659D01*
X7618459Y-8383541D01*
X7672341Y-8383541D01*
X7672341Y-9907541D02*
X7672341Y-9853659D01*
X7618459Y-9853659D01*
X7618459Y-9907541D01*
X7672341Y-9907541D01*
X7926341Y-8383541D02*
X7926341Y-8329659D01*
X7872459Y-8329659D01*
X7872459Y-8383541D01*
X7926341Y-8383541D01*
X7926341Y-9907541D02*
X7926341Y-9853659D01*
X7872459Y-9853659D01*
X7872459Y-9907541D01*
X7926341Y-9907541D01*
X8180341Y-8383541D02*
X8180341Y-8329659D01*
X8126459Y-8329659D01*
X8126459Y-8383541D01*
X8180341Y-8383541D01*
X8180341Y-9907541D02*
X8180341Y-9853659D01*
X8126459Y-9853659D01*
X8126459Y-9907541D01*
X8180341Y-9907541D01*
X8434341Y-8383541D02*
X8434341Y-8329659D01*
X8380459Y-8329659D01*
X8380459Y-8383541D01*
X8434341Y-8383541D01*
X8434341Y-9907541D02*
X8434341Y-9853659D01*
X8380459Y-9853659D01*
X8380459Y-9907541D01*
X8434341Y-9907541D01*
X8688341Y-8383541D02*
X8688341Y-8329659D01*
X8634459Y-8329659D01*
X8634459Y-8383541D01*
X8688341Y-8383541D01*
X8688341Y-9907541D02*
X8688341Y-9853659D01*
X8634459Y-9853659D01*
X8634459Y-9907541D01*
X8688341Y-9907541D01*
X8942341Y-8383541D02*
X8942341Y-8329659D01*
X8888459Y-8329659D01*
X8888459Y-8383541D01*
X8942341Y-8383541D01*
X8942341Y-9907541D02*
X8942341Y-9853659D01*
X8888459Y-9853659D01*
X8888459Y-9907541D01*
X8942341Y-9907541D01*
X9196341Y-8383541D02*
X9196341Y-8329659D01*
X9142459Y-8329659D01*
X9142459Y-8383541D01*
X9196341Y-8383541D01*
X9196341Y-9907541D02*
X9196341Y-9853659D01*
X9142459Y-9853659D01*
X9142459Y-9907541D01*
X9196341Y-9907541D01*
X9450341Y-8383541D02*
X9450341Y-8329659D01*
X9396459Y-8329659D01*
X9396459Y-8383541D01*
X9450341Y-8383541D01*
X9450341Y-9907541D02*
X9450341Y-9853659D01*
X9396459Y-9853659D01*
X9396459Y-9907541D01*
X9450341Y-9907541D01*
X9704341Y-8383541D02*
X9704341Y-8329659D01*
X9650459Y-8329659D01*
X9650459Y-8383541D01*
X9704341Y-8383541D01*
X9704341Y-9907541D02*
X9704341Y-9853659D01*
X9650459Y-9853659D01*
X9650459Y-9907541D01*
X9704341Y-9907541D01*
X10212341Y-8383541D02*
X10212341Y-8329659D01*
X10158459Y-8329659D01*
X10158459Y-8383541D01*
X10212341Y-8383541D01*
X10212341Y-9907541D02*
X10212341Y-9853659D01*
X10158459Y-9853659D01*
X10158459Y-9907541D01*
X10212341Y-9907541D01*
X10466341Y-8383541D02*
X10466341Y-8329659D01*
X10412459Y-8329659D01*
X10412459Y-8383541D01*
X10466341Y-8383541D01*
X10466341Y-9907541D02*
X10466341Y-9853659D01*
X10412459Y-9853659D01*
X10412459Y-9907541D01*
X10466341Y-9907541D01*
X15165341Y-9018541D02*
X15165341Y-8964659D01*
X15111459Y-8964659D01*
X15111459Y-9018541D01*
X15165341Y-9018541D01*
X15165341Y-9338541D02*
X15165341Y-9284659D01*
X15111459Y-9284659D01*
X15111459Y-9338541D01*
X15165341Y-9338541D01*
X15165341Y-9558541D02*
X15165341Y-9504659D01*
X15111459Y-9504659D01*
X15111459Y-9558541D01*
X15165341Y-9558541D01*
X15165341Y-9778541D02*
X15165341Y-9724659D01*
X15111459Y-9724659D01*
X15111459Y-9778541D01*
X15165341Y-9778541D01*
X15165341Y-10542541D02*
X15165341Y-10488659D01*
X15111459Y-10488659D01*
X15111459Y-10542541D01*
X15165341Y-10542541D01*
X15165341Y-10862541D02*
X15165341Y-10808659D01*
X15111459Y-10808659D01*
X15111459Y-10862541D01*
X15165341Y-10862541D01*
X15165341Y-11082541D02*
X15165341Y-11028659D01*
X15111459Y-11028659D01*
X15111459Y-11082541D01*
X15165341Y-11082541D01*
X15165341Y-11302541D02*
X15165341Y-11248659D01*
X15111459Y-11248659D01*
X15111459Y-11302541D01*
X15165341Y-11302541D01*
X15165341Y-12066541D02*
X15165341Y-12012659D01*
X15111459Y-12012659D01*
X15111459Y-12066541D01*
X15165341Y-12066541D01*
X15165341Y-12386541D02*
X15165341Y-12332659D01*
X15111459Y-12332659D01*
X15111459Y-12386541D01*
X15165341Y-12386541D01*
X15165341Y-12606541D02*
X15165341Y-12552659D01*
X15111459Y-12552659D01*
X15111459Y-12606541D01*
X15165341Y-12606541D01*
X15165341Y-12826541D02*
X15165341Y-12772659D01*
X15111459Y-12772659D01*
X15111459Y-12826541D01*
X15165341Y-12826541D01*
X15673341Y-9018541D02*
X15673341Y-8964659D01*
X15619459Y-8964659D01*
X15619459Y-9018541D01*
X15673341Y-9018541D01*
X15673341Y-9338541D02*
X15673341Y-9284659D01*
X15619459Y-9284659D01*
X15619459Y-9338541D01*
X15673341Y-9338541D01*
X15673341Y-9558541D02*
X15673341Y-9504659D01*
X15619459Y-9504659D01*
X15619459Y-9558541D01*
X15673341Y-9558541D01*
X15673341Y-9778541D02*
X15673341Y-9724659D01*
X15619459Y-9724659D01*
X15619459Y-9778541D01*
X15673341Y-9778541D01*
X15673341Y-10542541D02*
X15673341Y-10488659D01*
X15619459Y-10488659D01*
X15619459Y-10542541D01*
X15673341Y-10542541D01*
X15673341Y-10862541D02*
X15673341Y-10808659D01*
X15619459Y-10808659D01*
X15619459Y-10862541D01*
X15673341Y-10862541D01*
X15673341Y-11082541D02*
X15673341Y-11028659D01*
X15619459Y-11028659D01*
X15619459Y-11082541D01*
X15673341Y-11082541D01*
X15673341Y-11302541D02*
X15673341Y-11248659D01*
X15619459Y-11248659D01*
X15619459Y-11302541D01*
X15673341Y-11302541D01*
X15673341Y-12066541D02*
X15673341Y-12012659D01*
X15619459Y-12012659D01*
X15619459Y-12066541D01*
X15673341Y-12066541D01*
X15673341Y-12386541D02*
X15673341Y-12332659D01*
X15619459Y-12332659D01*
X15619459Y-12386541D01*
X15673341Y-12386541D01*
X15673341Y-12606541D02*
X15673341Y-12552659D01*
X15619459Y-12552659D01*
X15619459Y-12606541D01*
X15673341Y-12606541D01*
X15673341Y-12826541D02*
X15673341Y-12772659D01*
X15619459Y-12772659D01*
X15619459Y-12826541D01*
X15673341Y-12826541D01*
X16740141Y-9018541D02*
X16740141Y-8964659D01*
X16686259Y-8964659D01*
X16686259Y-9018541D01*
X16740141Y-9018541D01*
X16740141Y-9338541D02*
X16740141Y-9284659D01*
X16686259Y-9284659D01*
X16686259Y-9338541D01*
X16740141Y-9338541D01*
X16740141Y-9558541D02*
X16740141Y-9504659D01*
X16686259Y-9504659D01*
X16686259Y-9558541D01*
X16740141Y-9558541D01*
X16740141Y-9778541D02*
X16740141Y-9724659D01*
X16686259Y-9724659D01*
X16686259Y-9778541D01*
X16740141Y-9778541D01*
X16740141Y-10542541D02*
X16740141Y-10488659D01*
X16686259Y-10488659D01*
X16686259Y-10542541D01*
X16740141Y-10542541D01*
X16740141Y-10862541D02*
X16740141Y-10808659D01*
X16686259Y-10808659D01*
X16686259Y-10862541D01*
X16740141Y-10862541D01*
X16740141Y-11082541D02*
X16740141Y-11028659D01*
X16686259Y-11028659D01*
X16686259Y-11082541D01*
X16740141Y-11082541D01*
X16740141Y-11302541D02*
X16740141Y-11248659D01*
X16686259Y-11248659D01*
X16686259Y-11302541D01*
X16740141Y-11302541D01*
X16740141Y-12066541D02*
X16740141Y-12012659D01*
X16686259Y-12012659D01*
X16686259Y-12066541D01*
X16740141Y-12066541D01*
X16740141Y-12386541D02*
X16740141Y-12332659D01*
X16686259Y-12332659D01*
X16686259Y-12386541D01*
X16740141Y-12386541D01*
X16740141Y-12606541D02*
X16740141Y-12552659D01*
X16686259Y-12552659D01*
X16686259Y-12606541D01*
X16740141Y-12606541D01*
X16740141Y-12826541D02*
X16740141Y-12772659D01*
X16686259Y-12772659D01*
X16686259Y-12826541D01*
X16740141Y-12826541D01*
X17248141Y-9018541D02*
X17248141Y-8964659D01*
X17194259Y-8964659D01*
X17194259Y-9018541D01*
X17248141Y-9018541D01*
X17248141Y-9338541D02*
X17248141Y-9284659D01*
X17194259Y-9284659D01*
X17194259Y-9338541D01*
X17248141Y-9338541D01*
X17248141Y-9558541D02*
X17248141Y-9504659D01*
X17194259Y-9504659D01*
X17194259Y-9558541D01*
X17248141Y-9558541D01*
X17248141Y-9778541D02*
X17248141Y-9724659D01*
X17194259Y-9724659D01*
X17194259Y-9778541D01*
X17248141Y-9778541D01*
X17248141Y-10542541D02*
X17248141Y-10488659D01*
X17194259Y-10488659D01*
X17194259Y-10542541D01*
X17248141Y-10542541D01*
X17248141Y-10862541D02*
X17248141Y-10808659D01*
X17194259Y-10808659D01*
X17194259Y-10862541D01*
X17248141Y-10862541D01*
X17248141Y-11082541D02*
X17248141Y-11028659D01*
X17194259Y-11028659D01*
X17194259Y-11082541D01*
X17248141Y-11082541D01*
X17248141Y-11302541D02*
X17248141Y-11248659D01*
X17194259Y-11248659D01*
X17194259Y-11302541D01*
X17248141Y-11302541D01*
X17248141Y-12066541D02*
X17248141Y-12012659D01*
X17194259Y-12012659D01*
X17194259Y-12066541D01*
X17248141Y-12066541D01*
X17248141Y-12386541D02*
X17248141Y-12332659D01*
X17194259Y-12332659D01*
X17194259Y-12386541D01*
X17248141Y-12386541D01*
X17248141Y-12606541D02*
X17248141Y-12552659D01*
X17194259Y-12552659D01*
X17194259Y-12606541D01*
X17248141Y-12606541D01*
X17248141Y-12826541D02*
X17248141Y-12772659D01*
X17194259Y-12772659D01*
X17194259Y-12826541D01*
X17248141Y-12826541D01*
X18213341Y-9018541D02*
X18213341Y-8964659D01*
X18159459Y-8964659D01*
X18159459Y-9018541D01*
X18213341Y-9018541D01*
X18213341Y-9338541D02*
X18213341Y-9284659D01*
X18159459Y-9284659D01*
X18159459Y-9338541D01*
X18213341Y-9338541D01*
X18213341Y-9558541D02*
X18213341Y-9504659D01*
X18159459Y-9504659D01*
X18159459Y-9558541D01*
X18213341Y-9558541D01*
X18213341Y-9778541D02*
X18213341Y-9724659D01*
X18159459Y-9724659D01*
X18159459Y-9778541D01*
X18213341Y-9778541D01*
X18213341Y-10542541D02*
X18213341Y-10488659D01*
X18159459Y-10488659D01*
X18159459Y-10542541D01*
X18213341Y-10542541D01*
X18213341Y-10862541D02*
X18213341Y-10808659D01*
X18159459Y-10808659D01*
X18159459Y-10862541D01*
X18213341Y-10862541D01*
X18213341Y-11082541D02*
X18213341Y-11028659D01*
X18159459Y-11028659D01*
X18159459Y-11082541D01*
X18213341Y-11082541D01*
X18213341Y-11302541D02*
X18213341Y-11248659D01*
X18159459Y-11248659D01*
X18159459Y-11302541D01*
X18213341Y-11302541D01*
X18213341Y-12066541D02*
X18213341Y-12012659D01*
X18159459Y-12012659D01*
X18159459Y-12066541D01*
X18213341Y-12066541D01*
X18213341Y-12386541D02*
X18213341Y-12332659D01*
X18159459Y-12332659D01*
X18159459Y-12386541D01*
X18213341Y-12386541D01*
X18213341Y-12606541D02*
X18213341Y-12552659D01*
X18159459Y-12552659D01*
X18159459Y-12606541D01*
X18213341Y-12606541D01*
X18213341Y-12826541D02*
X18213341Y-12772659D01*
X18159459Y-12772659D01*
X18159459Y-12826541D01*
X18213341Y-12826541D01*
X18721341Y-9018541D02*
X18721341Y-8964659D01*
X18667459Y-8964659D01*
X18667459Y-9018541D01*
X18721341Y-9018541D01*
X18721341Y-9338541D02*
X18721341Y-9284659D01*
X18667459Y-9284659D01*
X18667459Y-9338541D01*
X18721341Y-9338541D01*
X18721341Y-9558541D02*
X18721341Y-9504659D01*
X18667459Y-9504659D01*
X18667459Y-9558541D01*
X18721341Y-9558541D01*
X18721341Y-9778541D02*
X18721341Y-9724659D01*
X18667459Y-9724659D01*
X18667459Y-9778541D01*
X18721341Y-9778541D01*
X18721341Y-10542541D02*
X18721341Y-10488659D01*
X18667459Y-10488659D01*
X18667459Y-10542541D01*
X18721341Y-10542541D01*
X18721341Y-10862541D02*
X18721341Y-10808659D01*
X18667459Y-10808659D01*
X18667459Y-10862541D01*
X18721341Y-10862541D01*
X18721341Y-11082541D02*
X18721341Y-11028659D01*
X18667459Y-11028659D01*
X18667459Y-11082541D01*
X18721341Y-11082541D01*
X18721341Y-11302541D02*
X18721341Y-11248659D01*
X18667459Y-11248659D01*
X18667459Y-11302541D01*
X18721341Y-11302541D01*
X18721341Y-12066541D02*
X18721341Y-12012659D01*
X18667459Y-12012659D01*
X18667459Y-12066541D01*
X18721341Y-12066541D01*
X18721341Y-12386541D02*
X18721341Y-12332659D01*
X18667459Y-12332659D01*
X18667459Y-12386541D01*
X18721341Y-12386541D01*
X18721341Y-12606541D02*
X18721341Y-12552659D01*
X18667459Y-12552659D01*
X18667459Y-12606541D01*
X18721341Y-12606541D01*
X18721341Y-12826541D02*
X18721341Y-12772659D01*
X18667459Y-12772659D01*
X18667459Y-12826541D01*
X18721341Y-12826541D01*
X11125200Y-8676000D02*
X11165200Y-8636000D01*
X11125200Y-8596000D01*
X11085200Y-8636000D01*
X11125200Y-8676000D01*
X11125200Y-8930000D02*
X11165200Y-8890000D01*
X11125200Y-8850000D01*
X11085200Y-8890000D01*
X11125200Y-8930000D01*
X11125200Y-9184000D02*
X11165200Y-9144000D01*
X11125200Y-9104000D01*
X11085200Y-9144000D01*
X11125200Y-9184000D01*
X11125200Y-9438000D02*
X11165200Y-9398000D01*
X11125200Y-9358000D01*
X11085200Y-9398000D01*
X11125200Y-9438000D01*
X11125200Y-9692000D02*
X11165200Y-9652000D01*
X11125200Y-9612000D01*
X11085200Y-9652000D01*
X11125200Y-9692000D01*
X11125200Y-9946000D02*
X11165200Y-9906000D01*
X11125200Y-9866000D01*
X11085200Y-9906000D01*
X11125200Y-9946000D01*
X11125200Y-10200000D02*
X11165200Y-10160000D01*
X11125200Y-10120000D01*
X11085200Y-10160000D01*
X11125200Y-10200000D01*
X11125200Y-10454000D02*
X11165200Y-10414000D01*
X11125200Y-10374000D01*
X11085200Y-10414000D01*
X11125200Y-10454000D01*
X11125200Y-10708000D02*
X11165200Y-10668000D01*
X11125200Y-10628000D01*
X11085200Y-10668000D01*
X11125200Y-10708000D01*
X11125200Y-10962000D02*
X11165200Y-10922000D01*
X11125200Y-10882000D01*
X11085200Y-10922000D01*
X11125200Y-10962000D01*
X11125200Y-11216000D02*
X11165200Y-11176000D01*
X11125200Y-11136000D01*
X11085200Y-11176000D01*
X11125200Y-11216000D01*
X11125200Y-11470000D02*
X11165200Y-11430000D01*
X11125200Y-11390000D01*
X11085200Y-11430000D01*
X11125200Y-11470000D01*
X11125200Y-11724000D02*
X11165200Y-11684000D01*
X11125200Y-11644000D01*
X11085200Y-11684000D01*
X11125200Y-11724000D01*
X11125200Y-11978000D02*
X11165200Y-11938000D01*
X11125200Y-11898000D01*
X11085200Y-11938000D01*
X11125200Y-11978000D01*
X11125200Y-12333600D02*
X11165200Y-12293600D01*
X11125200Y-12253600D01*
X11085200Y-12293600D01*
X11125200Y-12333600D01*
X11875200Y-12333600D02*
X11915200Y-12293600D01*
X11875200Y-12253600D01*
X11835200Y-12293600D01*
X11875200Y-12333600D01*
X11887200Y-8676000D02*
X11927200Y-8636000D01*
X11887200Y-8596000D01*
X11847200Y-8636000D01*
X11887200Y-8676000D01*
X11887200Y-8930000D02*
X11927200Y-8890000D01*
X11887200Y-8850000D01*
X11847200Y-8890000D01*
X11887200Y-8930000D01*
X11887200Y-9184000D02*
X11927200Y-9144000D01*
X11887200Y-9104000D01*
X11847200Y-9144000D01*
X11887200Y-9184000D01*
X11887200Y-9438000D02*
X11927200Y-9398000D01*
X11887200Y-9358000D01*
X11847200Y-9398000D01*
X11887200Y-9438000D01*
X11887200Y-9692000D02*
X11927200Y-9652000D01*
X11887200Y-9612000D01*
X11847200Y-9652000D01*
X11887200Y-9692000D01*
X11887200Y-9946000D02*
X11927200Y-9906000D01*
X11887200Y-9866000D01*
X11847200Y-9906000D01*
X11887200Y-9946000D01*
X11887200Y-10200000D02*
X11927200Y-10160000D01*
X11887200Y-10120000D01*
X11847200Y-10160000D01*
X11887200Y-10200000D01*
X11887200Y-10454000D02*
X11927200Y-10414000D01*
X11887200Y-10374000D01*
X11847200Y-10414000D01*
X11887200Y-10454000D01*
X11887200Y-10708000D02*
X11927200Y-10668000D01*
X11887200Y-10628000D01*
X11847200Y-10668000D01*
X11887200Y-10708000D01*
X11887200Y-10962000D02*
X11927200Y-10922000D01*
X11887200Y-10882000D01*
X11847200Y-10922000D01*
X11887200Y-10962000D01*
X11887200Y-11216000D02*
X11927200Y-11176000D01*
X11887200Y-11136000D01*
X11847200Y-11176000D01*
X11887200Y-11216000D01*
X11887200Y-11470000D02*
X11927200Y-11430000D01*
X11887200Y-11390000D01*
X11847200Y-11430000D01*
X11887200Y-11470000D01*
X11887200Y-11724000D02*
X11927200Y-11684000D01*
X11887200Y-11644000D01*
X11847200Y-11684000D01*
X11887200Y-11724000D01*
X11887200Y-11978000D02*
X11927200Y-11938000D01*
X11887200Y-11898000D01*
X11847200Y-11938000D01*
X11887200Y-11978000D01*
X12446000Y-5374000D02*
X12486000Y-5334000D01*
X12446000Y-5294000D01*
X12406000Y-5334000D01*
X12446000Y-5374000D01*
X12446000Y-5628000D02*
X12486000Y-5588000D01*
X12446000Y-5548000D01*
X12406000Y-5588000D01*
X12446000Y-5628000D01*
X12446000Y-5882000D02*
X12486000Y-5842000D01*
X12446000Y-5802000D01*
X12406000Y-5842000D01*
X12446000Y-5882000D01*
X12446000Y-6136000D02*
X12486000Y-6096000D01*
X12446000Y-6056000D01*
X12406000Y-6096000D01*
X12446000Y-6136000D01*
X12446000Y-6390000D02*
X12486000Y-6350000D01*
X12446000Y-6310000D01*
X12406000Y-6350000D01*
X12446000Y-6390000D01*
X12446000Y-6644000D02*
X12486000Y-6604000D01*
X12446000Y-6564000D01*
X12406000Y-6604000D01*
X12446000Y-6644000D01*
X12446000Y-6898000D02*
X12486000Y-6858000D01*
X12446000Y-6818000D01*
X12406000Y-6858000D01*
X12446000Y-6898000D01*
X12446000Y-7152000D02*
X12486000Y-7112000D01*
X12446000Y-7072000D01*
X12406000Y-7112000D01*
X12446000Y-7152000D01*
X12446000Y-8168000D02*
X12486000Y-8128000D01*
X12446000Y-8088000D01*
X12406000Y-8128000D01*
X12446000Y-8168000D01*
X12446000Y-8422000D02*
X12486000Y-8382000D01*
X12446000Y-8342000D01*
X12406000Y-8382000D01*
X12446000Y-8422000D01*
X12446000Y-8676000D02*
X12486000Y-8636000D01*
X12446000Y-8596000D01*
X12406000Y-8636000D01*
X12446000Y-8676000D01*
X12446000Y-8930000D02*
X12486000Y-8890000D01*
X12446000Y-8850000D01*
X12406000Y-8890000D01*
X12446000Y-8930000D01*
X12446000Y-9184000D02*
X12486000Y-9144000D01*
X12446000Y-9104000D01*
X12406000Y-9144000D01*
X12446000Y-9184000D01*
X12446000Y-9438000D02*
X12486000Y-9398000D01*
X12446000Y-9358000D01*
X12406000Y-9398000D01*
X12446000Y-9438000D01*
X12446000Y-9692000D02*
X12486000Y-9652000D01*
X12446000Y-9612000D01*
X12406000Y-9652000D01*
X12446000Y-9692000D01*
X12446000Y-9946000D02*
X12486000Y-9906000D01*
X12446000Y-9866000D01*
X12406000Y-9906000D01*
X12446000Y-9946000D01*
X12446000Y-10758800D02*
X12486000Y-10718800D01*
X12446000Y-10678800D01*
X12406000Y-10718800D01*
X12446000Y-10758800D01*
X12446000Y-11012800D02*
X12486000Y-10972800D01*
X12446000Y-10932800D01*
X12406000Y-10972800D01*
X12446000Y-11012800D01*
X12446000Y-11266800D02*
X12486000Y-11226800D01*
X12446000Y-11186800D01*
X12406000Y-11226800D01*
X12446000Y-11266800D01*
X12446000Y-11520800D02*
X12486000Y-11480800D01*
X12446000Y-11440800D01*
X12406000Y-11480800D01*
X12446000Y-11520800D01*
X12446000Y-11774800D02*
X12486000Y-11734800D01*
X12446000Y-11694800D01*
X12406000Y-11734800D01*
X12446000Y-11774800D01*
X12446000Y-12028800D02*
X12486000Y-11988800D01*
X12446000Y-11948800D01*
X12406000Y-11988800D01*
X12446000Y-12028800D01*
X12446000Y-12282800D02*
X12486000Y-12242800D01*
X12446000Y-12202800D01*
X12406000Y-12242800D01*
X12446000Y-12282800D01*
X12446000Y-12536800D02*
X12486000Y-12496800D01*
X12446000Y-12456800D01*
X12406000Y-12496800D01*
X12446000Y-12536800D01*
X12458000Y-4967600D02*
X12498000Y-4927600D01*
X12458000Y-4887600D01*
X12418000Y-4927600D01*
X12458000Y-4967600D01*
X12458000Y-7812400D02*
X12498000Y-7772400D01*
X12458000Y-7732400D01*
X12418000Y-7772400D01*
X12458000Y-7812400D01*
X12458000Y-10352400D02*
X12498000Y-10312400D01*
X12458000Y-10272400D01*
X12418000Y-10312400D01*
X12458000Y-10352400D01*
X12458000Y-12892400D02*
X12498000Y-12852400D01*
X12458000Y-12812400D01*
X12418000Y-12852400D01*
X12458000Y-12892400D01*
X13208000Y-4967600D02*
X13248000Y-4927600D01*
X13208000Y-4887600D01*
X13168000Y-4927600D01*
X13208000Y-4967600D01*
X13208000Y-5374000D02*
X13248000Y-5334000D01*
X13208000Y-5294000D01*
X13168000Y-5334000D01*
X13208000Y-5374000D01*
X13208000Y-5628000D02*
X13248000Y-5588000D01*
X13208000Y-5548000D01*
X13168000Y-5588000D01*
X13208000Y-5628000D01*
X13208000Y-5882000D02*
X13248000Y-5842000D01*
X13208000Y-5802000D01*
X13168000Y-5842000D01*
X13208000Y-5882000D01*
X13208000Y-6136000D02*
X13248000Y-6096000D01*
X13208000Y-6056000D01*
X13168000Y-6096000D01*
X13208000Y-6136000D01*
X13208000Y-6390000D02*
X13248000Y-6350000D01*
X13208000Y-6310000D01*
X13168000Y-6350000D01*
X13208000Y-6390000D01*
X13208000Y-6644000D02*
X13248000Y-6604000D01*
X13208000Y-6564000D01*
X13168000Y-6604000D01*
X13208000Y-6644000D01*
X13208000Y-6898000D02*
X13248000Y-6858000D01*
X13208000Y-6818000D01*
X13168000Y-6858000D01*
X13208000Y-6898000D01*
X13208000Y-7152000D02*
X13248000Y-7112000D01*
X13208000Y-7072000D01*
X13168000Y-7112000D01*
X13208000Y-7152000D01*
X13208000Y-7812400D02*
X13248000Y-7772400D01*
X13208000Y-7732400D01*
X13168000Y-7772400D01*
X13208000Y-7812400D01*
X13208000Y-8168000D02*
X13248000Y-8128000D01*
X13208000Y-8088000D01*
X13168000Y-8128000D01*
X13208000Y-8168000D01*
X13208000Y-8422000D02*
X13248000Y-8382000D01*
X13208000Y-8342000D01*
X13168000Y-8382000D01*
X13208000Y-8422000D01*
X13208000Y-8676000D02*
X13248000Y-8636000D01*
X13208000Y-8596000D01*
X13168000Y-8636000D01*
X13208000Y-8676000D01*
X13208000Y-8930000D02*
X13248000Y-8890000D01*
X13208000Y-8850000D01*
X13168000Y-8890000D01*
X13208000Y-8930000D01*
X13208000Y-9184000D02*
X13248000Y-9144000D01*
X13208000Y-9104000D01*
X13168000Y-9144000D01*
X13208000Y-9184000D01*
X13208000Y-9438000D02*
X13248000Y-9398000D01*
X13208000Y-9358000D01*
X13168000Y-9398000D01*
X13208000Y-9438000D01*
X13208000Y-9692000D02*
X13248000Y-9652000D01*
X13208000Y-9612000D01*
X13168000Y-9652000D01*
X13208000Y-9692000D01*
X13208000Y-9946000D02*
X13248000Y-9906000D01*
X13208000Y-9866000D01*
X13168000Y-9906000D01*
X13208000Y-9946000D01*
X13208000Y-10352400D02*
X13248000Y-10312400D01*
X13208000Y-10272400D01*
X13168000Y-10312400D01*
X13208000Y-10352400D01*
X13208000Y-10758800D02*
X13248000Y-10718800D01*
X13208000Y-10678800D01*
X13168000Y-10718800D01*
X13208000Y-10758800D01*
X13208000Y-11012800D02*
X13248000Y-10972800D01*
X13208000Y-10932800D01*
X13168000Y-10972800D01*
X13208000Y-11012800D01*
X13208000Y-11266800D02*
X13248000Y-11226800D01*
X13208000Y-11186800D01*
X13168000Y-11226800D01*
X13208000Y-11266800D01*
X13208000Y-11520800D02*
X13248000Y-11480800D01*
X13208000Y-11440800D01*
X13168000Y-11480800D01*
X13208000Y-11520800D01*
X13208000Y-11774800D02*
X13248000Y-11734800D01*
X13208000Y-11694800D01*
X13168000Y-11734800D01*
X13208000Y-11774800D01*
X13208000Y-12028800D02*
X13248000Y-11988800D01*
X13208000Y-11948800D01*
X13168000Y-11988800D01*
X13208000Y-12028800D01*
X13208000Y-12282800D02*
X13248000Y-12242800D01*
X13208000Y-12202800D01*
X13168000Y-12242800D01*
X13208000Y-12282800D01*
X13208000Y-12536800D02*
X13248000Y-12496800D01*
X13208000Y-12456800D01*
X13168000Y-12496800D01*
X13208000Y-12536800D01*
X13208000Y-12892400D02*
X13248000Y-12852400D01*
X13208000Y-12812400D01*
X13168000Y-12852400D01*
X13208000Y-12892400D01*
X13614400Y-4967600D02*
X13654400Y-4927600D01*
X13614400Y-4887600D01*
X13574400Y-4927600D01*
X13614400Y-4967600D01*
X13614400Y-5374000D02*
X13654400Y-5334000D01*
X13614400Y-5294000D01*
X13574400Y-5334000D01*
X13614400Y-5374000D01*
X13614400Y-5628000D02*
X13654400Y-5588000D01*
X13614400Y-5548000D01*
X13574400Y-5588000D01*
X13614400Y-5628000D01*
X13614400Y-5882000D02*
X13654400Y-5842000D01*
X13614400Y-5802000D01*
X13574400Y-5842000D01*
X13614400Y-5882000D01*
X13614400Y-6136000D02*
X13654400Y-6096000D01*
X13614400Y-6056000D01*
X13574400Y-6096000D01*
X13614400Y-6136000D01*
X13614400Y-6390000D02*
X13654400Y-6350000D01*
X13614400Y-6310000D01*
X13574400Y-6350000D01*
X13614400Y-6390000D01*
X13614400Y-6644000D02*
X13654400Y-6604000D01*
X13614400Y-6564000D01*
X13574400Y-6604000D01*
X13614400Y-6644000D01*
X13614400Y-6898000D02*
X13654400Y-6858000D01*
X13614400Y-6818000D01*
X13574400Y-6858000D01*
X13614400Y-6898000D01*
X13614400Y-7152000D02*
X13654400Y-7112000D01*
X13614400Y-7072000D01*
X13574400Y-7112000D01*
X13614400Y-7152000D01*
X14364400Y-4967600D02*
X14404400Y-4927600D01*
X14364400Y-4887600D01*
X14324400Y-4927600D01*
X14364400Y-4967600D01*
X14376400Y-5374000D02*
X14416400Y-5334000D01*
X14376400Y-5294000D01*
X14336400Y-5334000D01*
X14376400Y-5374000D01*
X14376400Y-5628000D02*
X14416400Y-5588000D01*
X14376400Y-5548000D01*
X14336400Y-5588000D01*
X14376400Y-5628000D01*
X14376400Y-5882000D02*
X14416400Y-5842000D01*
X14376400Y-5802000D01*
X14336400Y-5842000D01*
X14376400Y-5882000D01*
X14376400Y-6136000D02*
X14416400Y-6096000D01*
X14376400Y-6056000D01*
X14336400Y-6096000D01*
X14376400Y-6136000D01*
X14376400Y-6390000D02*
X14416400Y-6350000D01*
X14376400Y-6310000D01*
X14336400Y-6350000D01*
X14376400Y-6390000D01*
X14376400Y-6644000D02*
X14416400Y-6604000D01*
X14376400Y-6564000D01*
X14336400Y-6604000D01*
X14376400Y-6644000D01*
X14376400Y-6898000D02*
X14416400Y-6858000D01*
X14376400Y-6818000D01*
X14336400Y-6858000D01*
X14376400Y-6898000D01*
X14376400Y-7152000D02*
X14416400Y-7112000D01*
X14376400Y-7072000D01*
X14336400Y-7112000D01*
X14376400Y-7152000D01*
X17424400Y-5374000D02*
X17464400Y-5334000D01*
X17424400Y-5294000D01*
X17384400Y-5334000D01*
X17424400Y-5374000D01*
X17424400Y-5628000D02*
X17464400Y-5588000D01*
X17424400Y-5548000D01*
X17384400Y-5588000D01*
X17424400Y-5628000D01*
X17424400Y-5882000D02*
X17464400Y-5842000D01*
X17424400Y-5802000D01*
X17384400Y-5842000D01*
X17424400Y-5882000D01*
X17424400Y-6136000D02*
X17464400Y-6096000D01*
X17424400Y-6056000D01*
X17384400Y-6096000D01*
X17424400Y-6136000D01*
X17424400Y-6390000D02*
X17464400Y-6350000D01*
X17424400Y-6310000D01*
X17384400Y-6350000D01*
X17424400Y-6390000D01*
X17424400Y-6644000D02*
X17464400Y-6604000D01*
X17424400Y-6564000D01*
X17384400Y-6604000D01*
X17424400Y-6644000D01*
X17424400Y-6898000D02*
X17464400Y-6858000D01*
X17424400Y-6818000D01*
X17384400Y-6858000D01*
X17424400Y-6898000D01*
X17424400Y-7152000D02*
X17464400Y-7112000D01*
X17424400Y-7072000D01*
X17384400Y-7112000D01*
X17424400Y-7152000D01*
X18694400Y-5374000D02*
X18734400Y-5334000D01*
X18694400Y-5294000D01*
X18654400Y-5334000D01*
X18694400Y-5374000D01*
X18694400Y-5628000D02*
X18734400Y-5588000D01*
X18694400Y-5548000D01*
X18654400Y-5588000D01*
X18694400Y-5628000D01*
X18694400Y-5882000D02*
X18734400Y-5842000D01*
X18694400Y-5802000D01*
X18654400Y-5842000D01*
X18694400Y-5882000D01*
X18694400Y-6136000D02*
X18734400Y-6096000D01*
X18694400Y-6056000D01*
X18654400Y-6096000D01*
X18694400Y-6136000D01*
X18694400Y-6390000D02*
X18734400Y-6350000D01*
X18694400Y-6310000D01*
X18654400Y-6350000D01*
X18694400Y-6390000D01*
X18694400Y-6644000D02*
X18734400Y-6604000D01*
X18694400Y-6564000D01*
X18654400Y-6604000D01*
X18694400Y-6644000D01*
X18694400Y-6898000D02*
X18734400Y-6858000D01*
X18694400Y-6818000D01*
X18654400Y-6858000D01*
X18694400Y-6898000D01*
X18694400Y-7152000D02*
X18734400Y-7112000D01*
X18694400Y-7072000D01*
X18654400Y-7112000D01*
X18694400Y-7152000D01*
X9900700Y-11641500D02*
X9985700Y-11726500D01*
X9985700Y-11641500D02*
X9900700Y-11726500D01*
X9985700Y-11684000D02*
G75*
G03*
X9985700Y-11684000I-42500J0D01*
G01*
X9900700Y-12149500D02*
X9985700Y-12234500D01*
X9985700Y-12149500D02*
X9900700Y-12234500D01*
X9985700Y-12192000D02*
G75*
G03*
X9985700Y-12192000I-42500J0D01*
G01*
X10320700Y-11641500D02*
X10405700Y-11726500D01*
X10405700Y-11641500D02*
X10320700Y-11726500D01*
X10405700Y-11684000D02*
G75*
G03*
X10405700Y-11684000I-42500J0D01*
G01*
X10320700Y-12149500D02*
X10405700Y-12234500D01*
X10405700Y-12149500D02*
X10320700Y-12234500D01*
X10405700Y-12192000D02*
G75*
G03*
X10405700Y-12192000I-42500J0D01*
G01*
X19464700Y-5531900D02*
X19549700Y-5616900D01*
X19549700Y-5531900D02*
X19464700Y-5616900D01*
X19549700Y-5574400D02*
G75*
G03*
X19549700Y-5574400I-42500J0D01*
G01*
X19464700Y-5951900D02*
X19549700Y-6036900D01*
X19549700Y-5951900D02*
X19464700Y-6036900D01*
X19549700Y-5994400D02*
G75*
G03*
X19549700Y-5994400I-42500J0D01*
G01*
X15042600Y-5289000D02*
X15132600Y-5379000D01*
X15132600Y-5289000D02*
X15042600Y-5379000D01*
X15087600Y-5289000D02*
X15087600Y-5379000D01*
X15042600Y-5334000D02*
X15132600Y-5334000D01*
X15042600Y-5644600D02*
X15132600Y-5734600D01*
X15132600Y-5644600D02*
X15042600Y-5734600D01*
X15087600Y-5644600D02*
X15087600Y-5734600D01*
X15042600Y-5689600D02*
X15132600Y-5689600D01*
X15042600Y-6000200D02*
X15132600Y-6090200D01*
X15132600Y-6000200D02*
X15042600Y-6090200D01*
X15087600Y-6000200D02*
X15087600Y-6090200D01*
X15042600Y-6045200D02*
X15132600Y-6045200D01*
X15042600Y-6355800D02*
X15132600Y-6445800D01*
X15132600Y-6355800D02*
X15042600Y-6445800D01*
X15087600Y-6355800D02*
X15087600Y-6445800D01*
X15042600Y-6400800D02*
X15132600Y-6400800D01*
X15042600Y-6711400D02*
X15132600Y-6801400D01*
X15132600Y-6711400D02*
X15042600Y-6801400D01*
X15087600Y-6711400D02*
X15087600Y-6801400D01*
X15042600Y-6756400D02*
X15132600Y-6756400D01*
X15042600Y-7067000D02*
X15132600Y-7157000D01*
X15132600Y-7067000D02*
X15042600Y-7157000D01*
X15087600Y-7067000D02*
X15087600Y-7157000D01*
X15042600Y-7112000D02*
X15132600Y-7112000D01*
X15042600Y-7422600D02*
X15132600Y-7512600D01*
X15132600Y-7422600D02*
X15042600Y-7512600D01*
X15087600Y-7422600D02*
X15087600Y-7512600D01*
X15042600Y-7467600D02*
X15132600Y-7467600D01*
X15042600Y-7778200D02*
X15132600Y-7868200D01*
X15132600Y-7778200D02*
X15042600Y-7868200D01*
X15087600Y-7778200D02*
X15087600Y-7868200D01*
X15042600Y-7823200D02*
X15132600Y-7823200D01*
X15042600Y-8133800D02*
X15132600Y-8223800D01*
X15132600Y-8133800D02*
X15042600Y-8223800D01*
X15087600Y-8133800D02*
X15087600Y-8223800D01*
X15042600Y-8178800D02*
X15132600Y-8178800D01*
X15804600Y-5289000D02*
X15894600Y-5379000D01*
X15894600Y-5289000D02*
X15804600Y-5379000D01*
X15849600Y-5289000D02*
X15849600Y-5379000D01*
X15804600Y-5334000D02*
X15894600Y-5334000D01*
X15804600Y-5644600D02*
X15894600Y-5734600D01*
X15894600Y-5644600D02*
X15804600Y-5734600D01*
X15849600Y-5644600D02*
X15849600Y-5734600D01*
X15804600Y-5689600D02*
X15894600Y-5689600D01*
X15804600Y-6000200D02*
X15894600Y-6090200D01*
X15894600Y-6000200D02*
X15804600Y-6090200D01*
X15849600Y-6000200D02*
X15849600Y-6090200D01*
X15804600Y-6045200D02*
X15894600Y-6045200D01*
X15804600Y-6355800D02*
X15894600Y-6445800D01*
X15894600Y-6355800D02*
X15804600Y-6445800D01*
X15849600Y-6355800D02*
X15849600Y-6445800D01*
X15804600Y-6400800D02*
X15894600Y-6400800D01*
X15804600Y-6711400D02*
X15894600Y-6801400D01*
X15894600Y-6711400D02*
X15804600Y-6801400D01*
X15849600Y-6711400D02*
X15849600Y-6801400D01*
X15804600Y-6756400D02*
X15894600Y-6756400D01*
X15804600Y-7067000D02*
X15894600Y-7157000D01*
X15894600Y-7067000D02*
X15804600Y-7157000D01*
X15849600Y-7067000D02*
X15849600Y-7157000D01*
X15804600Y-7112000D02*
X15894600Y-7112000D01*
X15804600Y-7422600D02*
X15894600Y-7512600D01*
X15894600Y-7422600D02*
X15804600Y-7512600D01*
X15849600Y-7422600D02*
X15849600Y-7512600D01*
X15804600Y-7467600D02*
X15894600Y-7467600D01*
X15804600Y-7778200D02*
X15894600Y-7868200D01*
X15894600Y-7778200D02*
X15804600Y-7868200D01*
X15849600Y-7778200D02*
X15849600Y-7868200D01*
X15804600Y-7823200D02*
X15894600Y-7823200D01*
X15804600Y-8133800D02*
X15894600Y-8223800D01*
X15894600Y-8133800D02*
X15804600Y-8223800D01*
X15849600Y-8133800D02*
X15849600Y-8223800D01*
X15804600Y-8178800D02*
X15894600Y-8178800D01*
X7062000Y-7417600D02*
X7162000Y-7517600D01*
X7162000Y-7417600D02*
X7062000Y-7517600D01*
X7147356Y-7502956D02*
X7147356Y-7432244D01*
X7076644Y-7432244D01*
X7076644Y-7502956D01*
X7147356Y-7502956D01*
X7316000Y-7417600D02*
X7416000Y-7517600D01*
X7416000Y-7417600D02*
X7316000Y-7517600D01*
X7401356Y-7502956D02*
X7401356Y-7432244D01*
X7330644Y-7432244D01*
X7330644Y-7502956D01*
X7401356Y-7502956D01*
X7570000Y-7417600D02*
X7670000Y-7517600D01*
X7670000Y-7417600D02*
X7570000Y-7517600D01*
X7655356Y-7502956D02*
X7655356Y-7432244D01*
X7584644Y-7432244D01*
X7584644Y-7502956D01*
X7655356Y-7502956D01*
X7824000Y-7417600D02*
X7924000Y-7517600D01*
X7924000Y-7417600D02*
X7824000Y-7517600D01*
X7909356Y-7502956D02*
X7909356Y-7432244D01*
X7838644Y-7432244D01*
X7838644Y-7502956D01*
X7909356Y-7502956D01*
X7824000Y-10262400D02*
X7924000Y-10362400D01*
X7924000Y-10262400D02*
X7824000Y-10362400D01*
X7909356Y-10347756D02*
X7909356Y-10277044D01*
X7838644Y-10277044D01*
X7838644Y-10347756D01*
X7909356Y-10347756D01*
X8078000Y-10262400D02*
X8178000Y-10362400D01*
X8178000Y-10262400D02*
X8078000Y-10362400D01*
X8163356Y-10347756D02*
X8163356Y-10277044D01*
X8092644Y-10277044D01*
X8092644Y-10347756D01*
X8163356Y-10347756D01*
X8332000Y-10262400D02*
X8432000Y-10362400D01*
X8432000Y-10262400D02*
X8332000Y-10362400D01*
X8417356Y-10347756D02*
X8417356Y-10277044D01*
X8346644Y-10277044D01*
X8346644Y-10347756D01*
X8417356Y-10347756D01*
X8433600Y-7417600D02*
X8533600Y-7517600D01*
X8533600Y-7417600D02*
X8433600Y-7517600D01*
X8518956Y-7502956D02*
X8518956Y-7432244D01*
X8448244Y-7432244D01*
X8448244Y-7502956D01*
X8518956Y-7502956D01*
X8586000Y-10262400D02*
X8686000Y-10362400D01*
X8686000Y-10262400D02*
X8586000Y-10362400D01*
X8671356Y-10347756D02*
X8671356Y-10277044D01*
X8600644Y-10277044D01*
X8600644Y-10347756D01*
X8671356Y-10347756D01*
X8840000Y-10262400D02*
X8940000Y-10362400D01*
X8940000Y-10262400D02*
X8840000Y-10362400D01*
X8925356Y-10347756D02*
X8925356Y-10277044D01*
X8854644Y-10277044D01*
X8854644Y-10347756D01*
X8925356Y-10347756D01*
X9004800Y-11662200D02*
X9104800Y-11762200D01*
X9104800Y-11662200D02*
X9004800Y-11762200D01*
X9090156Y-11747556D02*
X9090156Y-11676844D01*
X9019444Y-11676844D01*
X9019444Y-11747556D01*
X9090156Y-11747556D01*
X9004800Y-12012200D02*
X9104800Y-12112200D01*
X9104800Y-12012200D02*
X9004800Y-12112200D01*
X9090156Y-12097556D02*
X9090156Y-12026844D01*
X9019444Y-12026844D01*
X9019444Y-12097556D01*
X9090156Y-12097556D01*
X9043200Y-7417600D02*
X9143200Y-7517600D01*
X9143200Y-7417600D02*
X9043200Y-7517600D01*
X9128556Y-7502956D02*
X9128556Y-7432244D01*
X9057844Y-7432244D01*
X9057844Y-7502956D01*
X9128556Y-7502956D01*
X9094000Y-10262400D02*
X9194000Y-10362400D01*
X9194000Y-10262400D02*
X9094000Y-10362400D01*
X9179356Y-10347756D02*
X9179356Y-10277044D01*
X9108644Y-10277044D01*
X9108644Y-10347756D01*
X9179356Y-10347756D01*
X9297200Y-7417600D02*
X9397200Y-7517600D01*
X9397200Y-7417600D02*
X9297200Y-7517600D01*
X9382556Y-7502956D02*
X9382556Y-7432244D01*
X9311844Y-7432244D01*
X9311844Y-7502956D01*
X9382556Y-7502956D01*
X9348000Y-10262400D02*
X9448000Y-10362400D01*
X9448000Y-10262400D02*
X9348000Y-10362400D01*
X9433356Y-10347756D02*
X9433356Y-10277044D01*
X9362644Y-10277044D01*
X9362644Y-10347756D01*
X9433356Y-10347756D01*
X9551200Y-7417600D02*
X9651200Y-7517600D01*
X9651200Y-7417600D02*
X9551200Y-7517600D01*
X9636556Y-7502956D02*
X9636556Y-7432244D01*
X9565844Y-7432244D01*
X9565844Y-7502956D01*
X9636556Y-7502956D01*
X9602000Y-10262400D02*
X9702000Y-10362400D01*
X9702000Y-10262400D02*
X9602000Y-10362400D01*
X9687356Y-10347756D02*
X9687356Y-10277044D01*
X9616644Y-10277044D01*
X9616644Y-10347756D01*
X9687356Y-10347756D01*
X9805200Y-7417600D02*
X9905200Y-7517600D01*
X9905200Y-7417600D02*
X9805200Y-7517600D01*
X9890556Y-7502956D02*
X9890556Y-7432244D01*
X9819844Y-7432244D01*
X9819844Y-7502956D01*
X9890556Y-7502956D01*
X9957600Y-12853200D02*
X10057600Y-12953200D01*
X10057600Y-12853200D02*
X9957600Y-12953200D01*
X10042956Y-12938556D02*
X10042956Y-12867844D01*
X9972244Y-12867844D01*
X9972244Y-12938556D01*
X10042956Y-12938556D01*
X10059200Y-7417600D02*
X10159200Y-7517600D01*
X10159200Y-7417600D02*
X10059200Y-7517600D01*
X10144556Y-7502956D02*
X10144556Y-7432244D01*
X10073844Y-7432244D01*
X10073844Y-7502956D01*
X10144556Y-7502956D01*
X10211600Y-12853200D02*
X10311600Y-12953200D01*
X10311600Y-12853200D02*
X10211600Y-12953200D01*
X10296956Y-12938556D02*
X10296956Y-12867844D01*
X10226244Y-12867844D01*
X10226244Y-12938556D01*
X10296956Y-12938556D01*
X10313200Y-7417600D02*
X10413200Y-7517600D01*
X10413200Y-7417600D02*
X10313200Y-7517600D01*
X10398556Y-7502956D02*
X10398556Y-7432244D01*
X10327844Y-7432244D01*
X10327844Y-7502956D01*
X10398556Y-7502956D01*
X13767600Y-10668800D02*
X13867600Y-10768800D01*
X13867600Y-10668800D02*
X13767600Y-10768800D01*
X13852956Y-10754156D02*
X13852956Y-10683444D01*
X13782244Y-10683444D01*
X13782244Y-10754156D01*
X13852956Y-10754156D01*
X13767600Y-10922800D02*
X13867600Y-11022800D01*
X13867600Y-10922800D02*
X13767600Y-11022800D01*
X13852956Y-11008156D02*
X13852956Y-10937444D01*
X13782244Y-10937444D01*
X13782244Y-11008156D01*
X13852956Y-11008156D01*
X13767600Y-11176800D02*
X13867600Y-11276800D01*
X13867600Y-11176800D02*
X13767600Y-11276800D01*
X13852956Y-11262156D02*
X13852956Y-11191444D01*
X13782244Y-11191444D01*
X13782244Y-11262156D01*
X13852956Y-11262156D01*
X13767600Y-11430800D02*
X13867600Y-11530800D01*
X13867600Y-11430800D02*
X13767600Y-11530800D01*
X13852956Y-11516156D02*
X13852956Y-11445444D01*
X13782244Y-11445444D01*
X13782244Y-11516156D01*
X13852956Y-11516156D01*
X13767600Y-11684800D02*
X13867600Y-11784800D01*
X13867600Y-11684800D02*
X13767600Y-11784800D01*
X13852956Y-11770156D02*
X13852956Y-11699444D01*
X13782244Y-11699444D01*
X13782244Y-11770156D01*
X13852956Y-11770156D01*
X13767600Y-11938800D02*
X13867600Y-12038800D01*
X13867600Y-11938800D02*
X13767600Y-12038800D01*
X13852956Y-12024156D02*
X13852956Y-11953444D01*
X13782244Y-11953444D01*
X13782244Y-12024156D01*
X13852956Y-12024156D01*
X13767600Y-12192800D02*
X13867600Y-12292800D01*
X13867600Y-12192800D02*
X13767600Y-12292800D01*
X13852956Y-12278156D02*
X13852956Y-12207444D01*
X13782244Y-12207444D01*
X13782244Y-12278156D01*
X13852956Y-12278156D01*
X13767600Y-12446800D02*
X13867600Y-12546800D01*
X13867600Y-12446800D02*
X13767600Y-12546800D01*
X13852956Y-12532156D02*
X13852956Y-12461444D01*
X13782244Y-12461444D01*
X13782244Y-12532156D01*
X13852956Y-12532156D01*
X14326400Y-10668800D02*
X14426400Y-10768800D01*
X14426400Y-10668800D02*
X14326400Y-10768800D01*
X14411756Y-10754156D02*
X14411756Y-10683444D01*
X14341044Y-10683444D01*
X14341044Y-10754156D01*
X14411756Y-10754156D01*
X14326400Y-10922800D02*
X14426400Y-11022800D01*
X14426400Y-10922800D02*
X14326400Y-11022800D01*
X14411756Y-11008156D02*
X14411756Y-10937444D01*
X14341044Y-10937444D01*
X14341044Y-11008156D01*
X14411756Y-11008156D01*
X14326400Y-11176800D02*
X14426400Y-11276800D01*
X14426400Y-11176800D02*
X14326400Y-11276800D01*
X14411756Y-11262156D02*
X14411756Y-11191444D01*
X14341044Y-11191444D01*
X14341044Y-11262156D01*
X14411756Y-11262156D01*
X14326400Y-11430800D02*
X14426400Y-11530800D01*
X14426400Y-11430800D02*
X14326400Y-11530800D01*
X14411756Y-11516156D02*
X14411756Y-11445444D01*
X14341044Y-11445444D01*
X14341044Y-11516156D01*
X14411756Y-11516156D01*
X14326400Y-11989600D02*
X14426400Y-12089600D01*
X14426400Y-11989600D02*
X14326400Y-12089600D01*
X14411756Y-12074956D02*
X14411756Y-12004244D01*
X14341044Y-12004244D01*
X14341044Y-12074956D01*
X14411756Y-12074956D01*
X14326400Y-12243600D02*
X14426400Y-12343600D01*
X14426400Y-12243600D02*
X14326400Y-12343600D01*
X14411756Y-12328956D02*
X14411756Y-12258244D01*
X14341044Y-12258244D01*
X14341044Y-12328956D01*
X14411756Y-12328956D01*
X14326400Y-12497600D02*
X14426400Y-12597600D01*
X14426400Y-12497600D02*
X14326400Y-12597600D01*
X14411756Y-12582956D02*
X14411756Y-12512244D01*
X14341044Y-12512244D01*
X14341044Y-12582956D01*
X14411756Y-12582956D01*
X14326400Y-12751600D02*
X14426400Y-12851600D01*
X14426400Y-12751600D02*
X14326400Y-12851600D01*
X14411756Y-12836956D02*
X14411756Y-12766244D01*
X14341044Y-12766244D01*
X14341044Y-12836956D01*
X14411756Y-12836956D01*
X19457200Y-6604800D02*
X19557200Y-6704800D01*
X19557200Y-6604800D02*
X19457200Y-6704800D01*
X19542556Y-6690156D02*
X19542556Y-6619444D01*
X19471844Y-6619444D01*
X19471844Y-6690156D01*
X19542556Y-6690156D01*
X19457200Y-6858800D02*
X19557200Y-6958800D01*
X19557200Y-6858800D02*
X19457200Y-6958800D01*
X19542556Y-6944156D02*
X19542556Y-6873444D01*
X19471844Y-6873444D01*
X19471844Y-6944156D01*
X19542556Y-6944156D01*
X19457200Y-7112800D02*
X19557200Y-7212800D01*
X19557200Y-7112800D02*
X19457200Y-7212800D01*
X19542556Y-7198156D02*
X19542556Y-7127444D01*
X19471844Y-7127444D01*
X19471844Y-7198156D01*
X19542556Y-7198156D01*
X19457200Y-7366800D02*
X19557200Y-7466800D01*
X19557200Y-7366800D02*
X19457200Y-7466800D01*
X19542556Y-7452156D02*
X19542556Y-7381444D01*
X19471844Y-7381444D01*
X19471844Y-7452156D01*
X19542556Y-7452156D01*
X19457200Y-7620800D02*
X19557200Y-7720800D01*
X19557200Y-7620800D02*
X19457200Y-7720800D01*
X19542556Y-7706156D02*
X19542556Y-7635444D01*
X19471844Y-7635444D01*
X19471844Y-7706156D01*
X19542556Y-7706156D01*
X19457200Y-8332000D02*
X19557200Y-8432000D01*
X19557200Y-8332000D02*
X19457200Y-8432000D01*
X19542556Y-8417356D02*
X19542556Y-8346644D01*
X19471844Y-8346644D01*
X19471844Y-8417356D01*
X19542556Y-8417356D01*
X19457200Y-8586000D02*
X19557200Y-8686000D01*
X19557200Y-8586000D02*
X19457200Y-8686000D01*
X19542556Y-8671356D02*
X19542556Y-8600644D01*
X19471844Y-8600644D01*
X19471844Y-8671356D01*
X19542556Y-8671356D01*
X19457200Y-8840000D02*
X19557200Y-8940000D01*
X19557200Y-8840000D02*
X19457200Y-8940000D01*
X19542556Y-8925356D02*
X19542556Y-8854644D01*
X19471844Y-8854644D01*
X19471844Y-8925356D01*
X19542556Y-8925356D01*
X19457200Y-9094000D02*
X19557200Y-9194000D01*
X19557200Y-9094000D02*
X19457200Y-9194000D01*
X19542556Y-9179356D02*
X19542556Y-9108644D01*
X19471844Y-9108644D01*
X19471844Y-9179356D01*
X19542556Y-9179356D01*
X19457200Y-9348000D02*
X19557200Y-9448000D01*
X19557200Y-9348000D02*
X19457200Y-9448000D01*
X19542556Y-9433356D02*
X19542556Y-9362644D01*
X19471844Y-9362644D01*
X19471844Y-9433356D01*
X19542556Y-9433356D01*
X19457200Y-9602000D02*
X19557200Y-9702000D01*
X19557200Y-9602000D02*
X19457200Y-9702000D01*
X19542556Y-9687356D02*
X19542556Y-9616644D01*
X19471844Y-9616644D01*
X19471844Y-9687356D01*
X19542556Y-9687356D01*
X19457200Y-9856000D02*
X19557200Y-9956000D01*
X19557200Y-9856000D02*
X19457200Y-9956000D01*
X19542556Y-9941356D02*
X19542556Y-9870644D01*
X19471844Y-9870644D01*
X19471844Y-9941356D01*
X19542556Y-9941356D01*
X19457200Y-10110000D02*
X19557200Y-10210000D01*
X19557200Y-10110000D02*
X19457200Y-10210000D01*
X19542556Y-10195356D02*
X19542556Y-10124644D01*
X19471844Y-10124644D01*
X19471844Y-10195356D01*
X19542556Y-10195356D01*
X19457200Y-10922800D02*
X19557200Y-11022800D01*
X19557200Y-10922800D02*
X19457200Y-11022800D01*
X19542556Y-11008156D02*
X19542556Y-10937444D01*
X19471844Y-10937444D01*
X19471844Y-11008156D01*
X19542556Y-11008156D01*
X19457200Y-11176800D02*
X19557200Y-11276800D01*
X19557200Y-11176800D02*
X19457200Y-11276800D01*
X19542556Y-11262156D02*
X19542556Y-11191444D01*
X19471844Y-11191444D01*
X19471844Y-11262156D01*
X19542556Y-11262156D01*
X19457200Y-11430800D02*
X19557200Y-11530800D01*
X19557200Y-11430800D02*
X19457200Y-11530800D01*
X19542556Y-11516156D02*
X19542556Y-11445444D01*
X19471844Y-11445444D01*
X19471844Y-11516156D01*
X19542556Y-11516156D01*
X19457200Y-11684800D02*
X19557200Y-11784800D01*
X19557200Y-11684800D02*
X19457200Y-11784800D01*
X19542556Y-11770156D02*
X19542556Y-11699444D01*
X19471844Y-11699444D01*
X19471844Y-11770156D01*
X19542556Y-11770156D01*
X19457200Y-12396000D02*
X19557200Y-12496000D01*
X19557200Y-12396000D02*
X19457200Y-12496000D01*
X19542556Y-12481356D02*
X19542556Y-12410644D01*
X19471844Y-12410644D01*
X19471844Y-12481356D01*
X19542556Y-12481356D01*
X19457200Y-12650000D02*
X19557200Y-12750000D01*
X19557200Y-12650000D02*
X19457200Y-12750000D01*
X19542556Y-12735356D02*
X19542556Y-12664644D01*
X19471844Y-12664644D01*
X19471844Y-12735356D01*
X19542556Y-12735356D01*
X7057000Y-5329800D02*
X7167000Y-5439800D01*
X7167000Y-5329800D02*
X7057000Y-5439800D01*
X7112000Y-5439800D02*
X7167000Y-5384800D01*
X7112000Y-5329800D01*
X7057000Y-5384800D01*
X7112000Y-5439800D01*
X7057000Y-5583800D02*
X7167000Y-5693800D01*
X7167000Y-5583800D02*
X7057000Y-5693800D01*
X7112000Y-5693800D02*
X7167000Y-5638800D01*
X7112000Y-5583800D01*
X7057000Y-5638800D01*
X7112000Y-5693800D01*
X7057000Y-5837800D02*
X7167000Y-5947800D01*
X7167000Y-5837800D02*
X7057000Y-5947800D01*
X7112000Y-5947800D02*
X7167000Y-5892800D01*
X7112000Y-5837800D01*
X7057000Y-5892800D01*
X7112000Y-5947800D01*
X7057000Y-6091800D02*
X7167000Y-6201800D01*
X7167000Y-6091800D02*
X7057000Y-6201800D01*
X7112000Y-6201800D02*
X7167000Y-6146800D01*
X7112000Y-6091800D01*
X7057000Y-6146800D01*
X7112000Y-6201800D01*
X7057000Y-6345800D02*
X7167000Y-6455800D01*
X7167000Y-6345800D02*
X7057000Y-6455800D01*
X7112000Y-6455800D02*
X7167000Y-6400800D01*
X7112000Y-6345800D01*
X7057000Y-6400800D01*
X7112000Y-6455800D01*
X7057000Y-6599800D02*
X7167000Y-6709800D01*
X7167000Y-6599800D02*
X7057000Y-6709800D01*
X7112000Y-6709800D02*
X7167000Y-6654800D01*
X7112000Y-6599800D01*
X7057000Y-6654800D01*
X7112000Y-6709800D01*
X7057000Y-6853800D02*
X7167000Y-6963800D01*
X7167000Y-6853800D02*
X7057000Y-6963800D01*
X7112000Y-6963800D02*
X7167000Y-6908800D01*
X7112000Y-6853800D01*
X7057000Y-6908800D01*
X7112000Y-6963800D01*
X7057000Y-7869800D02*
X7167000Y-7979800D01*
X7167000Y-7869800D02*
X7057000Y-7979800D01*
X7112000Y-7979800D02*
X7167000Y-7924800D01*
X7112000Y-7869800D01*
X7057000Y-7924800D01*
X7112000Y-7979800D01*
X7311000Y-5329800D02*
X7421000Y-5439800D01*
X7421000Y-5329800D02*
X7311000Y-5439800D01*
X7366000Y-5439800D02*
X7421000Y-5384800D01*
X7366000Y-5329800D01*
X7311000Y-5384800D01*
X7366000Y-5439800D01*
X7311000Y-6853800D02*
X7421000Y-6963800D01*
X7421000Y-6853800D02*
X7311000Y-6963800D01*
X7366000Y-6963800D02*
X7421000Y-6908800D01*
X7366000Y-6853800D01*
X7311000Y-6908800D01*
X7366000Y-6963800D01*
X7565000Y-5329800D02*
X7675000Y-5439800D01*
X7675000Y-5329800D02*
X7565000Y-5439800D01*
X7620000Y-5439800D02*
X7675000Y-5384800D01*
X7620000Y-5329800D01*
X7565000Y-5384800D01*
X7620000Y-5439800D01*
X7565000Y-6853800D02*
X7675000Y-6963800D01*
X7675000Y-6853800D02*
X7565000Y-6963800D01*
X7620000Y-6963800D02*
X7675000Y-6908800D01*
X7620000Y-6853800D01*
X7565000Y-6908800D01*
X7620000Y-6963800D01*
X7819000Y-5329800D02*
X7929000Y-5439800D01*
X7929000Y-5329800D02*
X7819000Y-5439800D01*
X7874000Y-5439800D02*
X7929000Y-5384800D01*
X7874000Y-5329800D01*
X7819000Y-5384800D01*
X7874000Y-5439800D01*
X7819000Y-6853800D02*
X7929000Y-6963800D01*
X7929000Y-6853800D02*
X7819000Y-6963800D01*
X7874000Y-6963800D02*
X7929000Y-6908800D01*
X7874000Y-6853800D01*
X7819000Y-6908800D01*
X7874000Y-6963800D01*
X8073000Y-5329800D02*
X8183000Y-5439800D01*
X8183000Y-5329800D02*
X8073000Y-5439800D01*
X8128000Y-5439800D02*
X8183000Y-5384800D01*
X8128000Y-5329800D01*
X8073000Y-5384800D01*
X8128000Y-5439800D01*
X8073000Y-6853800D02*
X8183000Y-6963800D01*
X8183000Y-6853800D02*
X8073000Y-6963800D01*
X8128000Y-6963800D02*
X8183000Y-6908800D01*
X8128000Y-6853800D01*
X8073000Y-6908800D01*
X8128000Y-6963800D01*
X8073000Y-7869800D02*
X8183000Y-7979800D01*
X8183000Y-7869800D02*
X8073000Y-7979800D01*
X8128000Y-7979800D02*
X8183000Y-7924800D01*
X8128000Y-7869800D01*
X8073000Y-7924800D01*
X8128000Y-7979800D01*
X8327000Y-5329800D02*
X8437000Y-5439800D01*
X8437000Y-5329800D02*
X8327000Y-5439800D01*
X8382000Y-5439800D02*
X8437000Y-5384800D01*
X8382000Y-5329800D01*
X8327000Y-5384800D01*
X8382000Y-5439800D01*
X8327000Y-6853800D02*
X8437000Y-6963800D01*
X8437000Y-6853800D02*
X8327000Y-6963800D01*
X8382000Y-6963800D02*
X8437000Y-6908800D01*
X8382000Y-6853800D01*
X8327000Y-6908800D01*
X8382000Y-6963800D01*
X8581000Y-5329800D02*
X8691000Y-5439800D01*
X8691000Y-5329800D02*
X8581000Y-5439800D01*
X8636000Y-5439800D02*
X8691000Y-5384800D01*
X8636000Y-5329800D01*
X8581000Y-5384800D01*
X8636000Y-5439800D01*
X8581000Y-6853800D02*
X8691000Y-6963800D01*
X8691000Y-6853800D02*
X8581000Y-6963800D01*
X8636000Y-6963800D02*
X8691000Y-6908800D01*
X8636000Y-6853800D01*
X8581000Y-6908800D01*
X8636000Y-6963800D01*
X8835000Y-5329800D02*
X8945000Y-5439800D01*
X8945000Y-5329800D02*
X8835000Y-5439800D01*
X8890000Y-5439800D02*
X8945000Y-5384800D01*
X8890000Y-5329800D01*
X8835000Y-5384800D01*
X8890000Y-5439800D01*
X8835000Y-6853800D02*
X8945000Y-6963800D01*
X8945000Y-6853800D02*
X8835000Y-6963800D01*
X8890000Y-6963800D02*
X8945000Y-6908800D01*
X8890000Y-6853800D01*
X8835000Y-6908800D01*
X8890000Y-6963800D01*
X9089000Y-5329800D02*
X9199000Y-5439800D01*
X9199000Y-5329800D02*
X9089000Y-5439800D01*
X9144000Y-5439800D02*
X9199000Y-5384800D01*
X9144000Y-5329800D01*
X9089000Y-5384800D01*
X9144000Y-5439800D01*
X9089000Y-6599800D02*
X9199000Y-6709800D01*
X9199000Y-6599800D02*
X9089000Y-6709800D01*
X9144000Y-6709800D02*
X9199000Y-6654800D01*
X9144000Y-6599800D01*
X9089000Y-6654800D01*
X9144000Y-6709800D01*
X9089000Y-6853800D02*
X9199000Y-6963800D01*
X9199000Y-6853800D02*
X9089000Y-6963800D01*
X9144000Y-6963800D02*
X9199000Y-6908800D01*
X9144000Y-6853800D01*
X9089000Y-6908800D01*
X9144000Y-6963800D01*
X9343000Y-5329800D02*
X9453000Y-5439800D01*
X9453000Y-5329800D02*
X9343000Y-5439800D01*
X9398000Y-5439800D02*
X9453000Y-5384800D01*
X9398000Y-5329800D01*
X9343000Y-5384800D01*
X9398000Y-5439800D01*
X9343000Y-6599800D02*
X9453000Y-6709800D01*
X9453000Y-6599800D02*
X9343000Y-6709800D01*
X9398000Y-6709800D02*
X9453000Y-6654800D01*
X9398000Y-6599800D01*
X9343000Y-6654800D01*
X9398000Y-6709800D01*
X9343000Y-6853800D02*
X9453000Y-6963800D01*
X9453000Y-6853800D02*
X9343000Y-6963800D01*
X9398000Y-6963800D02*
X9453000Y-6908800D01*
X9398000Y-6853800D01*
X9343000Y-6908800D01*
X9398000Y-6963800D01*
X9597000Y-5329800D02*
X9707000Y-5439800D01*
X9707000Y-5329800D02*
X9597000Y-5439800D01*
X9652000Y-5439800D02*
X9707000Y-5384800D01*
X9652000Y-5329800D01*
X9597000Y-5384800D01*
X9652000Y-5439800D01*
X9597000Y-6599800D02*
X9707000Y-6709800D01*
X9707000Y-6599800D02*
X9597000Y-6709800D01*
X9652000Y-6709800D02*
X9707000Y-6654800D01*
X9652000Y-6599800D01*
X9597000Y-6654800D01*
X9652000Y-6709800D01*
X9597000Y-6853800D02*
X9707000Y-6963800D01*
X9707000Y-6853800D02*
X9597000Y-6963800D01*
X9652000Y-6963800D02*
X9707000Y-6908800D01*
X9652000Y-6853800D01*
X9597000Y-6908800D01*
X9652000Y-6963800D01*
X9851000Y-5329800D02*
X9961000Y-5439800D01*
X9961000Y-5329800D02*
X9851000Y-5439800D01*
X9906000Y-5439800D02*
X9961000Y-5384800D01*
X9906000Y-5329800D01*
X9851000Y-5384800D01*
X9906000Y-5439800D01*
X9851000Y-6853800D02*
X9961000Y-6963800D01*
X9961000Y-6853800D02*
X9851000Y-6963800D01*
X9906000Y-6963800D02*
X9961000Y-6908800D01*
X9906000Y-6853800D01*
X9851000Y-6908800D01*
X9906000Y-6963800D01*
X10105000Y-5329800D02*
X10215000Y-5439800D01*
X10215000Y-5329800D02*
X10105000Y-5439800D01*
X10160000Y-5439800D02*
X10215000Y-5384800D01*
X10160000Y-5329800D01*
X10105000Y-5384800D01*
X10160000Y-5439800D01*
X10105000Y-6599800D02*
X10215000Y-6709800D01*
X10215000Y-6599800D02*
X10105000Y-6709800D01*
X10160000Y-6709800D02*
X10215000Y-6654800D01*
X10160000Y-6599800D01*
X10105000Y-6654800D01*
X10160000Y-6709800D01*
X10105000Y-6853800D02*
X10215000Y-6963800D01*
X10215000Y-6853800D02*
X10105000Y-6963800D01*
X10160000Y-6963800D02*
X10215000Y-6908800D01*
X10160000Y-6853800D01*
X10105000Y-6908800D01*
X10160000Y-6963800D01*
X10359000Y-5329800D02*
X10469000Y-5439800D01*
X10469000Y-5329800D02*
X10359000Y-5439800D01*
X10414000Y-5439800D02*
X10469000Y-5384800D01*
X10414000Y-5329800D01*
X10359000Y-5384800D01*
X10414000Y-5439800D01*
X10359000Y-6853800D02*
X10469000Y-6963800D01*
X10469000Y-6853800D02*
X10359000Y-6963800D01*
X10414000Y-6963800D02*
X10469000Y-6908800D01*
X10414000Y-6853800D01*
X10359000Y-6908800D01*
X10414000Y-6963800D01*
D11*
X6843628Y-13974514D02*
X6843628Y-13674514D01*
X6915057Y-13674514D01*
X6957914Y-13688800D01*
X6986486Y-13717371D01*
X7000771Y-13745943D01*
X7015057Y-13803086D01*
X7015057Y-13845943D01*
X7000771Y-13903086D01*
X6986486Y-13931657D01*
X6957914Y-13960228D01*
X6915057Y-13974514D01*
X6843628Y-13974514D01*
X7143628Y-13974514D02*
X7143628Y-13774514D01*
X7143628Y-13831657D02*
X7157914Y-13803086D01*
X7172200Y-13788800D01*
X7200771Y-13774514D01*
X7229343Y-13774514D01*
X7329343Y-13974514D02*
X7329343Y-13774514D01*
X7329343Y-13674514D02*
X7315057Y-13688800D01*
X7329343Y-13703086D01*
X7343628Y-13688800D01*
X7329343Y-13674514D01*
X7329343Y-13703086D01*
X7515057Y-13974514D02*
X7486486Y-13960228D01*
X7472200Y-13931657D01*
X7472200Y-13674514D01*
X7672200Y-13974514D02*
X7643628Y-13960228D01*
X7629343Y-13931657D01*
X7629343Y-13674514D01*
X8015057Y-13974514D02*
X8015057Y-13674514D01*
X8115057Y-13888800D01*
X8215057Y-13674514D01*
X8215057Y-13974514D01*
X8486486Y-13974514D02*
X8486486Y-13817371D01*
X8472200Y-13788800D01*
X8443629Y-13774514D01*
X8386486Y-13774514D01*
X8357914Y-13788800D01*
X8486486Y-13960228D02*
X8457914Y-13974514D01*
X8386486Y-13974514D01*
X8357914Y-13960228D01*
X8343628Y-13931657D01*
X8343628Y-13903086D01*
X8357914Y-13874514D01*
X8386486Y-13860228D01*
X8457914Y-13860228D01*
X8486486Y-13845943D01*
X8629343Y-13774514D02*
X8629343Y-14074514D01*
X8629343Y-13788800D02*
X8657914Y-13774514D01*
X8715057Y-13774514D01*
X8743629Y-13788800D01*
X8757914Y-13803086D01*
X8772200Y-13831657D01*
X8772200Y-13917371D01*
X8757914Y-13945943D01*
X8743629Y-13960228D01*
X8715057Y-13974514D01*
X8657914Y-13974514D01*
X8629343Y-13960228D01*
X8900771Y-13945943D02*
X8915057Y-13960228D01*
X8900771Y-13974514D01*
X8886486Y-13960228D01*
X8900771Y-13945943D01*
X8900771Y-13974514D01*
X8900771Y-13788800D02*
X8915057Y-13803086D01*
X8900771Y-13817371D01*
X8886486Y-13803086D01*
X8900771Y-13788800D01*
X8900771Y-13817371D01*
X6517200Y-14448800D02*
X6557200Y-14488800D01*
X6557200Y-14448800D02*
X6517200Y-14488800D01*
X6900771Y-14304514D02*
X6929343Y-14304514D01*
X6957914Y-14318800D01*
X6972200Y-14333086D01*
X6986486Y-14361657D01*
X7000771Y-14418800D01*
X7000771Y-14490228D01*
X6986486Y-14547371D01*
X6972200Y-14575943D01*
X6957914Y-14590228D01*
X6929343Y-14604514D01*
X6900771Y-14604514D01*
X6872200Y-14590228D01*
X6857914Y-14575943D01*
X6843628Y-14547371D01*
X6829343Y-14490228D01*
X6829343Y-14418800D01*
X6843628Y-14361657D01*
X6857914Y-14333086D01*
X6872200Y-14318800D01*
X6900771Y-14304514D01*
X7129343Y-14575943D02*
X7143628Y-14590228D01*
X7129343Y-14604514D01*
X7115057Y-14590228D01*
X7129343Y-14575943D01*
X7129343Y-14604514D01*
X7400771Y-14404514D02*
X7400771Y-14604514D01*
X7329343Y-14290228D02*
X7257914Y-14504514D01*
X7443628Y-14504514D01*
X7615057Y-14304514D02*
X7643628Y-14304514D01*
X7672200Y-14318800D01*
X7686486Y-14333086D01*
X7700771Y-14361657D01*
X7715057Y-14418800D01*
X7715057Y-14490228D01*
X7700771Y-14547371D01*
X7686486Y-14575943D01*
X7672200Y-14590228D01*
X7643628Y-14604514D01*
X7615057Y-14604514D01*
X7586486Y-14590228D01*
X7572200Y-14575943D01*
X7557914Y-14547371D01*
X7543628Y-14490228D01*
X7543628Y-14418800D01*
X7557914Y-14361657D01*
X7572200Y-14333086D01*
X7586486Y-14318800D01*
X7615057Y-14304514D01*
X7843628Y-14604514D02*
X7843628Y-14404514D01*
X7843628Y-14433086D02*
X7857914Y-14418800D01*
X7886486Y-14404514D01*
X7929343Y-14404514D01*
X7957914Y-14418800D01*
X7972200Y-14447371D01*
X7972200Y-14604514D01*
X7972200Y-14447371D02*
X7986486Y-14418800D01*
X8015057Y-14404514D01*
X8057914Y-14404514D01*
X8086486Y-14418800D01*
X8100771Y-14447371D01*
X8100771Y-14604514D01*
X8243628Y-14604514D02*
X8243628Y-14404514D01*
X8243628Y-14433086D02*
X8257914Y-14418800D01*
X8286486Y-14404514D01*
X8329343Y-14404514D01*
X8357914Y-14418800D01*
X8372200Y-14447371D01*
X8372200Y-14604514D01*
X8372200Y-14447371D02*
X8386486Y-14418800D01*
X8415057Y-14404514D01*
X8457914Y-14404514D01*
X8486486Y-14418800D01*
X8500771Y-14447371D01*
X8500771Y-14604514D01*
X9086486Y-14290228D02*
X8829343Y-14675943D01*
X9472200Y-14304514D02*
X9500771Y-14304514D01*
X9529343Y-14318800D01*
X9543629Y-14333086D01*
X9557914Y-14361657D01*
X9572200Y-14418800D01*
X9572200Y-14490228D01*
X9557914Y-14547371D01*
X9543629Y-14575943D01*
X9529343Y-14590228D01*
X9500771Y-14604514D01*
X9472200Y-14604514D01*
X9443629Y-14590228D01*
X9429343Y-14575943D01*
X9415057Y-14547371D01*
X9400771Y-14490228D01*
X9400771Y-14418800D01*
X9415057Y-14361657D01*
X9429343Y-14333086D01*
X9443629Y-14318800D01*
X9472200Y-14304514D01*
X9700771Y-14575943D02*
X9715057Y-14590228D01*
X9700771Y-14604514D01*
X9686486Y-14590228D01*
X9700771Y-14575943D01*
X9700771Y-14604514D01*
X9900771Y-14304514D02*
X9929343Y-14304514D01*
X9957914Y-14318800D01*
X9972200Y-14333086D01*
X9986486Y-14361657D01*
X10000771Y-14418800D01*
X10000771Y-14490228D01*
X9986486Y-14547371D01*
X9972200Y-14575943D01*
X9957914Y-14590228D01*
X9929343Y-14604514D01*
X9900771Y-14604514D01*
X9872200Y-14590228D01*
X9857914Y-14575943D01*
X9843629Y-14547371D01*
X9829343Y-14490228D01*
X9829343Y-14418800D01*
X9843629Y-14361657D01*
X9857914Y-14333086D01*
X9872200Y-14318800D01*
X9900771Y-14304514D01*
X10286486Y-14604514D02*
X10115057Y-14604514D01*
X10200771Y-14604514D02*
X10200771Y-14304514D01*
X10172200Y-14347371D01*
X10143629Y-14375943D01*
X10115057Y-14390228D01*
X10543629Y-14304514D02*
X10486486Y-14304514D01*
X10457914Y-14318800D01*
X10443629Y-14333086D01*
X10415057Y-14375943D01*
X10400771Y-14433086D01*
X10400771Y-14547371D01*
X10415057Y-14575943D01*
X10429343Y-14590228D01*
X10457914Y-14604514D01*
X10515057Y-14604514D01*
X10543629Y-14590228D01*
X10557914Y-14575943D01*
X10572200Y-14547371D01*
X10572200Y-14475943D01*
X10557914Y-14447371D01*
X10543629Y-14433086D01*
X10515057Y-14418800D01*
X10457914Y-14418800D01*
X10429343Y-14433086D01*
X10415057Y-14447371D01*
X10400771Y-14475943D01*
X10686486Y-14304514D02*
X10686486Y-14361657D01*
X10800771Y-14304514D02*
X10800771Y-14361657D01*
X11243628Y-14718800D02*
X11229343Y-14704514D01*
X11200771Y-14661657D01*
X11186486Y-14633086D01*
X11172200Y-14590228D01*
X11157914Y-14518800D01*
X11157914Y-14461657D01*
X11172200Y-14390228D01*
X11186486Y-14347371D01*
X11200771Y-14318800D01*
X11229343Y-14275943D01*
X11243628Y-14261657D01*
X11329343Y-14304514D02*
X11515057Y-14304514D01*
X11415057Y-14418800D01*
X11457914Y-14418800D01*
X11486486Y-14433086D01*
X11500771Y-14447371D01*
X11515057Y-14475943D01*
X11515057Y-14547371D01*
X11500771Y-14575943D01*
X11486486Y-14590228D01*
X11457914Y-14604514D01*
X11372200Y-14604514D01*
X11343628Y-14590228D01*
X11329343Y-14575943D01*
X11786486Y-14304514D02*
X11643628Y-14304514D01*
X11629343Y-14447371D01*
X11643628Y-14433086D01*
X11672200Y-14418800D01*
X11743628Y-14418800D01*
X11772200Y-14433086D01*
X11786486Y-14447371D01*
X11800771Y-14475943D01*
X11800771Y-14547371D01*
X11786486Y-14575943D01*
X11772200Y-14590228D01*
X11743628Y-14604514D01*
X11672200Y-14604514D01*
X11643628Y-14590228D01*
X11629343Y-14575943D01*
X12157914Y-14604514D02*
X12157914Y-14304514D01*
X12286486Y-14604514D02*
X12286486Y-14447371D01*
X12272200Y-14418800D01*
X12243628Y-14404514D01*
X12200771Y-14404514D01*
X12172200Y-14418800D01*
X12157914Y-14433086D01*
X12472200Y-14604514D02*
X12443628Y-14590228D01*
X12429343Y-14575943D01*
X12415057Y-14547371D01*
X12415057Y-14461657D01*
X12429343Y-14433086D01*
X12443628Y-14418800D01*
X12472200Y-14404514D01*
X12515057Y-14404514D01*
X12543628Y-14418800D01*
X12557914Y-14433086D01*
X12572200Y-14461657D01*
X12572200Y-14547371D01*
X12557914Y-14575943D01*
X12543628Y-14590228D01*
X12515057Y-14604514D01*
X12472200Y-14604514D01*
X12743628Y-14604514D02*
X12715057Y-14590228D01*
X12700771Y-14561657D01*
X12700771Y-14304514D01*
X12972200Y-14590228D02*
X12943628Y-14604514D01*
X12886486Y-14604514D01*
X12857914Y-14590228D01*
X12843628Y-14561657D01*
X12843628Y-14447371D01*
X12857914Y-14418800D01*
X12886486Y-14404514D01*
X12943628Y-14404514D01*
X12972200Y-14418800D01*
X12986486Y-14447371D01*
X12986486Y-14475943D01*
X12843628Y-14504514D01*
X13100771Y-14590228D02*
X13129343Y-14604514D01*
X13186486Y-14604514D01*
X13215057Y-14590228D01*
X13229343Y-14561657D01*
X13229343Y-14547371D01*
X13215057Y-14518800D01*
X13186486Y-14504514D01*
X13143628Y-14504514D01*
X13115057Y-14490228D01*
X13100771Y-14461657D01*
X13100771Y-14447371D01*
X13115057Y-14418800D01*
X13143628Y-14404514D01*
X13186486Y-14404514D01*
X13215057Y-14418800D01*
X13329343Y-14718800D02*
X13343628Y-14704514D01*
X13372200Y-14661657D01*
X13386486Y-14633086D01*
X13400771Y-14590228D01*
X13415057Y-14518800D01*
X13415057Y-14461657D01*
X13400771Y-14390228D01*
X13386486Y-14347371D01*
X13372200Y-14318800D01*
X13343628Y-14275943D01*
X13329343Y-14261657D01*
X6557200Y-14864800D02*
G75*
G03*
X6557200Y-14864800I-25000J0D01*
G01*
X6900771Y-14700514D02*
X6929343Y-14700514D01*
X6957914Y-14714800D01*
X6972200Y-14729086D01*
X6986486Y-14757657D01*
X7000771Y-14814800D01*
X7000771Y-14886228D01*
X6986486Y-14943371D01*
X6972200Y-14971943D01*
X6957914Y-14986228D01*
X6929343Y-15000514D01*
X6900771Y-15000514D01*
X6872200Y-14986228D01*
X6857914Y-14971943D01*
X6843628Y-14943371D01*
X6829343Y-14886228D01*
X6829343Y-14814800D01*
X6843628Y-14757657D01*
X6857914Y-14729086D01*
X6872200Y-14714800D01*
X6900771Y-14700514D01*
X7129343Y-14971943D02*
X7143628Y-14986228D01*
X7129343Y-15000514D01*
X7115057Y-14986228D01*
X7129343Y-14971943D01*
X7129343Y-15000514D01*
X7415057Y-14700514D02*
X7272200Y-14700514D01*
X7257914Y-14843371D01*
X7272200Y-14829086D01*
X7300771Y-14814800D01*
X7372200Y-14814800D01*
X7400771Y-14829086D01*
X7415057Y-14843371D01*
X7429343Y-14871943D01*
X7429343Y-14943371D01*
X7415057Y-14971943D01*
X7400771Y-14986228D01*
X7372200Y-15000514D01*
X7300771Y-15000514D01*
X7272200Y-14986228D01*
X7257914Y-14971943D01*
X7615057Y-14700514D02*
X7643628Y-14700514D01*
X7672200Y-14714800D01*
X7686486Y-14729086D01*
X7700771Y-14757657D01*
X7715057Y-14814800D01*
X7715057Y-14886228D01*
X7700771Y-14943371D01*
X7686486Y-14971943D01*
X7672200Y-14986228D01*
X7643628Y-15000514D01*
X7615057Y-15000514D01*
X7586486Y-14986228D01*
X7572200Y-14971943D01*
X7557914Y-14943371D01*
X7543628Y-14886228D01*
X7543628Y-14814800D01*
X7557914Y-14757657D01*
X7572200Y-14729086D01*
X7586486Y-14714800D01*
X7615057Y-14700514D01*
X7843628Y-15000514D02*
X7843628Y-14800514D01*
X7843628Y-14829086D02*
X7857914Y-14814800D01*
X7886486Y-14800514D01*
X7929343Y-14800514D01*
X7957914Y-14814800D01*
X7972200Y-14843371D01*
X7972200Y-15000514D01*
X7972200Y-14843371D02*
X7986486Y-14814800D01*
X8015057Y-14800514D01*
X8057914Y-14800514D01*
X8086486Y-14814800D01*
X8100771Y-14843371D01*
X8100771Y-15000514D01*
X8243628Y-15000514D02*
X8243628Y-14800514D01*
X8243628Y-14829086D02*
X8257914Y-14814800D01*
X8286486Y-14800514D01*
X8329343Y-14800514D01*
X8357914Y-14814800D01*
X8372200Y-14843371D01*
X8372200Y-15000514D01*
X8372200Y-14843371D02*
X8386486Y-14814800D01*
X8415057Y-14800514D01*
X8457914Y-14800514D01*
X8486486Y-14814800D01*
X8500771Y-14843371D01*
X8500771Y-15000514D01*
X9086486Y-14686228D02*
X8829343Y-15071943D01*
X9472200Y-14700514D02*
X9500771Y-14700514D01*
X9529343Y-14714800D01*
X9543629Y-14729086D01*
X9557914Y-14757657D01*
X9572200Y-14814800D01*
X9572200Y-14886228D01*
X9557914Y-14943371D01*
X9543629Y-14971943D01*
X9529343Y-14986228D01*
X9500771Y-15000514D01*
X9472200Y-15000514D01*
X9443629Y-14986228D01*
X9429343Y-14971943D01*
X9415057Y-14943371D01*
X9400771Y-14886228D01*
X9400771Y-14814800D01*
X9415057Y-14757657D01*
X9429343Y-14729086D01*
X9443629Y-14714800D01*
X9472200Y-14700514D01*
X9700771Y-14971943D02*
X9715057Y-14986228D01*
X9700771Y-15000514D01*
X9686486Y-14986228D01*
X9700771Y-14971943D01*
X9700771Y-15000514D01*
X9900771Y-14700514D02*
X9929343Y-14700514D01*
X9957914Y-14714800D01*
X9972200Y-14729086D01*
X9986486Y-14757657D01*
X10000771Y-14814800D01*
X10000771Y-14886228D01*
X9986486Y-14943371D01*
X9972200Y-14971943D01*
X9957914Y-14986228D01*
X9929343Y-15000514D01*
X9900771Y-15000514D01*
X9872200Y-14986228D01*
X9857914Y-14971943D01*
X9843629Y-14943371D01*
X9829343Y-14886228D01*
X9829343Y-14814800D01*
X9843629Y-14757657D01*
X9857914Y-14729086D01*
X9872200Y-14714800D01*
X9900771Y-14700514D01*
X10115057Y-14729086D02*
X10129343Y-14714800D01*
X10157914Y-14700514D01*
X10229343Y-14700514D01*
X10257914Y-14714800D01*
X10272200Y-14729086D01*
X10286486Y-14757657D01*
X10286486Y-14786228D01*
X10272200Y-14829086D01*
X10100771Y-15000514D01*
X10286486Y-15000514D01*
X10472200Y-14700514D02*
X10500771Y-14700514D01*
X10529343Y-14714800D01*
X10543629Y-14729086D01*
X10557914Y-14757657D01*
X10572200Y-14814800D01*
X10572200Y-14886228D01*
X10557914Y-14943371D01*
X10543629Y-14971943D01*
X10529343Y-14986228D01*
X10500771Y-15000514D01*
X10472200Y-15000514D01*
X10443629Y-14986228D01*
X10429343Y-14971943D01*
X10415057Y-14943371D01*
X10400771Y-14886228D01*
X10400771Y-14814800D01*
X10415057Y-14757657D01*
X10429343Y-14729086D01*
X10443629Y-14714800D01*
X10472200Y-14700514D01*
X10686486Y-14700514D02*
X10686486Y-14757657D01*
X10800771Y-14700514D02*
X10800771Y-14757657D01*
X11243628Y-15114800D02*
X11229343Y-15100514D01*
X11200771Y-15057657D01*
X11186486Y-15029086D01*
X11172200Y-14986228D01*
X11157914Y-14914800D01*
X11157914Y-14857657D01*
X11172200Y-14786228D01*
X11186486Y-14743371D01*
X11200771Y-14714800D01*
X11229343Y-14671943D01*
X11243628Y-14657657D01*
X11343628Y-14729086D02*
X11357914Y-14714800D01*
X11386486Y-14700514D01*
X11457914Y-14700514D01*
X11486486Y-14714800D01*
X11500771Y-14729086D01*
X11515057Y-14757657D01*
X11515057Y-14786228D01*
X11500771Y-14829086D01*
X11329343Y-15000514D01*
X11515057Y-15000514D01*
X11872200Y-15000514D02*
X11872200Y-14700514D01*
X12000771Y-15000514D02*
X12000771Y-14843371D01*
X11986486Y-14814800D01*
X11957914Y-14800514D01*
X11915057Y-14800514D01*
X11886486Y-14814800D01*
X11872200Y-14829086D01*
X12186486Y-15000514D02*
X12157914Y-14986228D01*
X12143628Y-14971943D01*
X12129343Y-14943371D01*
X12129343Y-14857657D01*
X12143628Y-14829086D01*
X12157914Y-14814800D01*
X12186486Y-14800514D01*
X12229343Y-14800514D01*
X12257914Y-14814800D01*
X12272200Y-14829086D01*
X12286486Y-14857657D01*
X12286486Y-14943371D01*
X12272200Y-14971943D01*
X12257914Y-14986228D01*
X12229343Y-15000514D01*
X12186486Y-15000514D01*
X12457914Y-15000514D02*
X12429343Y-14986228D01*
X12415057Y-14957657D01*
X12415057Y-14700514D01*
X12686486Y-14986228D02*
X12657914Y-15000514D01*
X12600771Y-15000514D01*
X12572200Y-14986228D01*
X12557914Y-14957657D01*
X12557914Y-14843371D01*
X12572200Y-14814800D01*
X12600771Y-14800514D01*
X12657914Y-14800514D01*
X12686486Y-14814800D01*
X12700771Y-14843371D01*
X12700771Y-14871943D01*
X12557914Y-14900514D01*
X12815057Y-14986228D02*
X12843628Y-15000514D01*
X12900771Y-15000514D01*
X12929343Y-14986228D01*
X12943628Y-14957657D01*
X12943628Y-14943371D01*
X12929343Y-14914800D01*
X12900771Y-14900514D01*
X12857914Y-14900514D01*
X12829343Y-14886228D01*
X12815057Y-14857657D01*
X12815057Y-14843371D01*
X12829343Y-14814800D01*
X12857914Y-14800514D01*
X12900771Y-14800514D01*
X12929343Y-14814800D01*
X13043628Y-15114800D02*
X13057914Y-15100514D01*
X13086486Y-15057657D01*
X13100771Y-15029086D01*
X13115057Y-14986228D01*
X13129343Y-14914800D01*
X13129343Y-14857657D01*
X13115057Y-14786228D01*
X13100771Y-14743371D01*
X13086486Y-14714800D01*
X13057914Y-14671943D01*
X13043628Y-14657657D01*
X6522200Y-15225800D02*
X6522200Y-15295800D01*
X6487200Y-15260800D02*
X6557200Y-15260800D01*
X6900771Y-15096514D02*
X6929343Y-15096514D01*
X6957914Y-15110800D01*
X6972200Y-15125086D01*
X6986486Y-15153657D01*
X7000771Y-15210800D01*
X7000771Y-15282228D01*
X6986486Y-15339371D01*
X6972200Y-15367943D01*
X6957914Y-15382228D01*
X6929343Y-15396514D01*
X6900771Y-15396514D01*
X6872200Y-15382228D01*
X6857914Y-15367943D01*
X6843628Y-15339371D01*
X6829343Y-15282228D01*
X6829343Y-15210800D01*
X6843628Y-15153657D01*
X6857914Y-15125086D01*
X6872200Y-15110800D01*
X6900771Y-15096514D01*
X7129343Y-15367943D02*
X7143628Y-15382228D01*
X7129343Y-15396514D01*
X7115057Y-15382228D01*
X7129343Y-15367943D01*
X7129343Y-15396514D01*
X7243628Y-15096514D02*
X7443628Y-15096514D01*
X7315057Y-15396514D01*
X7615057Y-15096514D02*
X7643628Y-15096514D01*
X7672200Y-15110800D01*
X7686486Y-15125086D01*
X7700771Y-15153657D01*
X7715057Y-15210800D01*
X7715057Y-15282228D01*
X7700771Y-15339371D01*
X7686486Y-15367943D01*
X7672200Y-15382228D01*
X7643628Y-15396514D01*
X7615057Y-15396514D01*
X7586486Y-15382228D01*
X7572200Y-15367943D01*
X7557914Y-15339371D01*
X7543628Y-15282228D01*
X7543628Y-15210800D01*
X7557914Y-15153657D01*
X7572200Y-15125086D01*
X7586486Y-15110800D01*
X7615057Y-15096514D01*
X7843628Y-15396514D02*
X7843628Y-15196514D01*
X7843628Y-15225086D02*
X7857914Y-15210800D01*
X7886486Y-15196514D01*
X7929343Y-15196514D01*
X7957914Y-15210800D01*
X7972200Y-15239371D01*
X7972200Y-15396514D01*
X7972200Y-15239371D02*
X7986486Y-15210800D01*
X8015057Y-15196514D01*
X8057914Y-15196514D01*
X8086486Y-15210800D01*
X8100771Y-15239371D01*
X8100771Y-15396514D01*
X8243628Y-15396514D02*
X8243628Y-15196514D01*
X8243628Y-15225086D02*
X8257914Y-15210800D01*
X8286486Y-15196514D01*
X8329343Y-15196514D01*
X8357914Y-15210800D01*
X8372200Y-15239371D01*
X8372200Y-15396514D01*
X8372200Y-15239371D02*
X8386486Y-15210800D01*
X8415057Y-15196514D01*
X8457914Y-15196514D01*
X8486486Y-15210800D01*
X8500771Y-15239371D01*
X8500771Y-15396514D01*
X9086486Y-15082228D02*
X8829343Y-15467943D01*
X9472200Y-15096514D02*
X9500771Y-15096514D01*
X9529343Y-15110800D01*
X9543629Y-15125086D01*
X9557914Y-15153657D01*
X9572200Y-15210800D01*
X9572200Y-15282228D01*
X9557914Y-15339371D01*
X9543629Y-15367943D01*
X9529343Y-15382228D01*
X9500771Y-15396514D01*
X9472200Y-15396514D01*
X9443629Y-15382228D01*
X9429343Y-15367943D01*
X9415057Y-15339371D01*
X9400771Y-15282228D01*
X9400771Y-15210800D01*
X9415057Y-15153657D01*
X9429343Y-15125086D01*
X9443629Y-15110800D01*
X9472200Y-15096514D01*
X9700771Y-15367943D02*
X9715057Y-15382228D01*
X9700771Y-15396514D01*
X9686486Y-15382228D01*
X9700771Y-15367943D01*
X9700771Y-15396514D01*
X9900771Y-15096514D02*
X9929343Y-15096514D01*
X9957914Y-15110800D01*
X9972200Y-15125086D01*
X9986486Y-15153657D01*
X10000771Y-15210800D01*
X10000771Y-15282228D01*
X9986486Y-15339371D01*
X9972200Y-15367943D01*
X9957914Y-15382228D01*
X9929343Y-15396514D01*
X9900771Y-15396514D01*
X9872200Y-15382228D01*
X9857914Y-15367943D01*
X9843629Y-15339371D01*
X9829343Y-15282228D01*
X9829343Y-15210800D01*
X9843629Y-15153657D01*
X9857914Y-15125086D01*
X9872200Y-15110800D01*
X9900771Y-15096514D01*
X10115057Y-15125086D02*
X10129343Y-15110800D01*
X10157914Y-15096514D01*
X10229343Y-15096514D01*
X10257914Y-15110800D01*
X10272200Y-15125086D01*
X10286486Y-15153657D01*
X10286486Y-15182228D01*
X10272200Y-15225086D01*
X10100771Y-15396514D01*
X10286486Y-15396514D01*
X10457914Y-15225086D02*
X10429343Y-15210800D01*
X10415057Y-15196514D01*
X10400771Y-15167943D01*
X10400771Y-15153657D01*
X10415057Y-15125086D01*
X10429343Y-15110800D01*
X10457914Y-15096514D01*
X10515057Y-15096514D01*
X10543629Y-15110800D01*
X10557914Y-15125086D01*
X10572200Y-15153657D01*
X10572200Y-15167943D01*
X10557914Y-15196514D01*
X10543629Y-15210800D01*
X10515057Y-15225086D01*
X10457914Y-15225086D01*
X10429343Y-15239371D01*
X10415057Y-15253657D01*
X10400771Y-15282228D01*
X10400771Y-15339371D01*
X10415057Y-15367943D01*
X10429343Y-15382228D01*
X10457914Y-15396514D01*
X10515057Y-15396514D01*
X10543629Y-15382228D01*
X10557914Y-15367943D01*
X10572200Y-15339371D01*
X10572200Y-15282228D01*
X10557914Y-15253657D01*
X10543629Y-15239371D01*
X10515057Y-15225086D01*
X10686486Y-15096514D02*
X10686486Y-15153657D01*
X10800771Y-15096514D02*
X10800771Y-15153657D01*
X11243628Y-15510800D02*
X11229343Y-15496514D01*
X11200771Y-15453657D01*
X11186486Y-15425086D01*
X11172200Y-15382228D01*
X11157914Y-15310800D01*
X11157914Y-15253657D01*
X11172200Y-15182228D01*
X11186486Y-15139371D01*
X11200771Y-15110800D01*
X11229343Y-15067943D01*
X11243628Y-15053657D01*
X11486486Y-15196514D02*
X11486486Y-15396514D01*
X11415057Y-15082228D02*
X11343628Y-15296514D01*
X11529343Y-15296514D01*
X11686486Y-15225086D02*
X11657914Y-15210800D01*
X11643628Y-15196514D01*
X11629343Y-15167943D01*
X11629343Y-15153657D01*
X11643628Y-15125086D01*
X11657914Y-15110800D01*
X11686486Y-15096514D01*
X11743628Y-15096514D01*
X11772200Y-15110800D01*
X11786486Y-15125086D01*
X11800771Y-15153657D01*
X11800771Y-15167943D01*
X11786486Y-15196514D01*
X11772200Y-15210800D01*
X11743628Y-15225086D01*
X11686486Y-15225086D01*
X11657914Y-15239371D01*
X11643628Y-15253657D01*
X11629343Y-15282228D01*
X11629343Y-15339371D01*
X11643628Y-15367943D01*
X11657914Y-15382228D01*
X11686486Y-15396514D01*
X11743628Y-15396514D01*
X11772200Y-15382228D01*
X11786486Y-15367943D01*
X11800771Y-15339371D01*
X11800771Y-15282228D01*
X11786486Y-15253657D01*
X11772200Y-15239371D01*
X11743628Y-15225086D01*
X12157914Y-15396514D02*
X12157914Y-15096514D01*
X12286486Y-15396514D02*
X12286486Y-15239371D01*
X12272200Y-15210800D01*
X12243628Y-15196514D01*
X12200771Y-15196514D01*
X12172200Y-15210800D01*
X12157914Y-15225086D01*
X12472200Y-15396514D02*
X12443628Y-15382228D01*
X12429343Y-15367943D01*
X12415057Y-15339371D01*
X12415057Y-15253657D01*
X12429343Y-15225086D01*
X12443628Y-15210800D01*
X12472200Y-15196514D01*
X12515057Y-15196514D01*
X12543628Y-15210800D01*
X12557914Y-15225086D01*
X12572200Y-15253657D01*
X12572200Y-15339371D01*
X12557914Y-15367943D01*
X12543628Y-15382228D01*
X12515057Y-15396514D01*
X12472200Y-15396514D01*
X12743628Y-15396514D02*
X12715057Y-15382228D01*
X12700771Y-15353657D01*
X12700771Y-15096514D01*
X12972200Y-15382228D02*
X12943628Y-15396514D01*
X12886486Y-15396514D01*
X12857914Y-15382228D01*
X12843628Y-15353657D01*
X12843628Y-15239371D01*
X12857914Y-15210800D01*
X12886486Y-15196514D01*
X12943628Y-15196514D01*
X12972200Y-15210800D01*
X12986486Y-15239371D01*
X12986486Y-15267943D01*
X12843628Y-15296514D01*
X13100771Y-15382228D02*
X13129343Y-15396514D01*
X13186486Y-15396514D01*
X13215057Y-15382228D01*
X13229343Y-15353657D01*
X13229343Y-15339371D01*
X13215057Y-15310800D01*
X13186486Y-15296514D01*
X13143628Y-15296514D01*
X13115057Y-15282228D01*
X13100771Y-15253657D01*
X13100771Y-15239371D01*
X13115057Y-15210800D01*
X13143628Y-15196514D01*
X13186486Y-15196514D01*
X13215057Y-15210800D01*
X13329343Y-15510800D02*
X13343628Y-15496514D01*
X13372200Y-15453657D01*
X13386486Y-15425086D01*
X13400771Y-15382228D01*
X13415057Y-15310800D01*
X13415057Y-15253657D01*
X13400771Y-15182228D01*
X13386486Y-15139371D01*
X13372200Y-15110800D01*
X13343628Y-15067943D01*
X13329343Y-15053657D01*
X6546041Y-15683741D02*
X6546041Y-15629859D01*
X6492159Y-15629859D01*
X6492159Y-15683741D01*
X6546041Y-15683741D01*
X6900771Y-15492514D02*
X6929343Y-15492514D01*
X6957914Y-15506800D01*
X6972200Y-15521086D01*
X6986486Y-15549657D01*
X7000771Y-15606800D01*
X7000771Y-15678228D01*
X6986486Y-15735371D01*
X6972200Y-15763943D01*
X6957914Y-15778228D01*
X6929343Y-15792514D01*
X6900771Y-15792514D01*
X6872200Y-15778228D01*
X6857914Y-15763943D01*
X6843628Y-15735371D01*
X6829343Y-15678228D01*
X6829343Y-15606800D01*
X6843628Y-15549657D01*
X6857914Y-15521086D01*
X6872200Y-15506800D01*
X6900771Y-15492514D01*
X7129343Y-15763943D02*
X7143628Y-15778228D01*
X7129343Y-15792514D01*
X7115057Y-15778228D01*
X7129343Y-15763943D01*
X7129343Y-15792514D01*
X7243628Y-15492514D02*
X7443628Y-15492514D01*
X7315057Y-15792514D01*
X7686486Y-15492514D02*
X7629343Y-15492514D01*
X7600771Y-15506800D01*
X7586486Y-15521086D01*
X7557914Y-15563943D01*
X7543628Y-15621086D01*
X7543628Y-15735371D01*
X7557914Y-15763943D01*
X7572200Y-15778228D01*
X7600771Y-15792514D01*
X7657914Y-15792514D01*
X7686486Y-15778228D01*
X7700771Y-15763943D01*
X7715057Y-15735371D01*
X7715057Y-15663943D01*
X7700771Y-15635371D01*
X7686486Y-15621086D01*
X7657914Y-15606800D01*
X7600771Y-15606800D01*
X7572200Y-15621086D01*
X7557914Y-15635371D01*
X7543628Y-15663943D01*
X7843628Y-15792514D02*
X7843628Y-15592514D01*
X7843628Y-15621086D02*
X7857914Y-15606800D01*
X7886486Y-15592514D01*
X7929343Y-15592514D01*
X7957914Y-15606800D01*
X7972200Y-15635371D01*
X7972200Y-15792514D01*
X7972200Y-15635371D02*
X7986486Y-15606800D01*
X8015057Y-15592514D01*
X8057914Y-15592514D01*
X8086486Y-15606800D01*
X8100771Y-15635371D01*
X8100771Y-15792514D01*
X8243628Y-15792514D02*
X8243628Y-15592514D01*
X8243628Y-15621086D02*
X8257914Y-15606800D01*
X8286486Y-15592514D01*
X8329343Y-15592514D01*
X8357914Y-15606800D01*
X8372200Y-15635371D01*
X8372200Y-15792514D01*
X8372200Y-15635371D02*
X8386486Y-15606800D01*
X8415057Y-15592514D01*
X8457914Y-15592514D01*
X8486486Y-15606800D01*
X8500771Y-15635371D01*
X8500771Y-15792514D01*
X9086486Y-15478228D02*
X8829343Y-15863943D01*
X9472200Y-15492514D02*
X9500771Y-15492514D01*
X9529343Y-15506800D01*
X9543629Y-15521086D01*
X9557914Y-15549657D01*
X9572200Y-15606800D01*
X9572200Y-15678228D01*
X9557914Y-15735371D01*
X9543629Y-15763943D01*
X9529343Y-15778228D01*
X9500771Y-15792514D01*
X9472200Y-15792514D01*
X9443629Y-15778228D01*
X9429343Y-15763943D01*
X9415057Y-15735371D01*
X9400771Y-15678228D01*
X9400771Y-15606800D01*
X9415057Y-15549657D01*
X9429343Y-15521086D01*
X9443629Y-15506800D01*
X9472200Y-15492514D01*
X9700771Y-15763943D02*
X9715057Y-15778228D01*
X9700771Y-15792514D01*
X9686486Y-15778228D01*
X9700771Y-15763943D01*
X9700771Y-15792514D01*
X9900771Y-15492514D02*
X9929343Y-15492514D01*
X9957914Y-15506800D01*
X9972200Y-15521086D01*
X9986486Y-15549657D01*
X10000771Y-15606800D01*
X10000771Y-15678228D01*
X9986486Y-15735371D01*
X9972200Y-15763943D01*
X9957914Y-15778228D01*
X9929343Y-15792514D01*
X9900771Y-15792514D01*
X9872200Y-15778228D01*
X9857914Y-15763943D01*
X9843629Y-15735371D01*
X9829343Y-15678228D01*
X9829343Y-15606800D01*
X9843629Y-15549657D01*
X9857914Y-15521086D01*
X9872200Y-15506800D01*
X9900771Y-15492514D01*
X10100771Y-15492514D02*
X10286486Y-15492514D01*
X10186486Y-15606800D01*
X10229343Y-15606800D01*
X10257914Y-15621086D01*
X10272200Y-15635371D01*
X10286486Y-15663943D01*
X10286486Y-15735371D01*
X10272200Y-15763943D01*
X10257914Y-15778228D01*
X10229343Y-15792514D01*
X10143629Y-15792514D01*
X10115057Y-15778228D01*
X10100771Y-15763943D01*
X10472200Y-15492514D02*
X10500771Y-15492514D01*
X10529343Y-15506800D01*
X10543629Y-15521086D01*
X10557914Y-15549657D01*
X10572200Y-15606800D01*
X10572200Y-15678228D01*
X10557914Y-15735371D01*
X10543629Y-15763943D01*
X10529343Y-15778228D01*
X10500771Y-15792514D01*
X10472200Y-15792514D01*
X10443629Y-15778228D01*
X10429343Y-15763943D01*
X10415057Y-15735371D01*
X10400771Y-15678228D01*
X10400771Y-15606800D01*
X10415057Y-15549657D01*
X10429343Y-15521086D01*
X10443629Y-15506800D01*
X10472200Y-15492514D01*
X10686486Y-15492514D02*
X10686486Y-15549657D01*
X10800771Y-15492514D02*
X10800771Y-15549657D01*
X11243628Y-15906800D02*
X11229343Y-15892514D01*
X11200771Y-15849657D01*
X11186486Y-15821086D01*
X11172200Y-15778228D01*
X11157914Y-15706800D01*
X11157914Y-15649657D01*
X11172200Y-15578228D01*
X11186486Y-15535371D01*
X11200771Y-15506800D01*
X11229343Y-15463943D01*
X11243628Y-15449657D01*
X11515057Y-15792514D02*
X11343628Y-15792514D01*
X11429343Y-15792514D02*
X11429343Y-15492514D01*
X11400771Y-15535371D01*
X11372200Y-15563943D01*
X11343628Y-15578228D01*
X11700771Y-15492514D02*
X11729343Y-15492514D01*
X11757914Y-15506800D01*
X11772200Y-15521086D01*
X11786486Y-15549657D01*
X11800771Y-15606800D01*
X11800771Y-15678228D01*
X11786486Y-15735371D01*
X11772200Y-15763943D01*
X11757914Y-15778228D01*
X11729343Y-15792514D01*
X11700771Y-15792514D01*
X11672200Y-15778228D01*
X11657914Y-15763943D01*
X11643628Y-15735371D01*
X11629343Y-15678228D01*
X11629343Y-15606800D01*
X11643628Y-15549657D01*
X11657914Y-15521086D01*
X11672200Y-15506800D01*
X11700771Y-15492514D01*
X12057914Y-15492514D02*
X12000771Y-15492514D01*
X11972200Y-15506800D01*
X11957914Y-15521086D01*
X11929343Y-15563943D01*
X11915057Y-15621086D01*
X11915057Y-15735371D01*
X11929343Y-15763943D01*
X11943628Y-15778228D01*
X11972200Y-15792514D01*
X12029343Y-15792514D01*
X12057914Y-15778228D01*
X12072200Y-15763943D01*
X12086486Y-15735371D01*
X12086486Y-15663943D01*
X12072200Y-15635371D01*
X12057914Y-15621086D01*
X12029343Y-15606800D01*
X11972200Y-15606800D01*
X11943628Y-15621086D01*
X11929343Y-15635371D01*
X11915057Y-15663943D01*
X12443628Y-15792514D02*
X12443628Y-15492514D01*
X12572200Y-15792514D02*
X12572200Y-15635371D01*
X12557914Y-15606800D01*
X12529343Y-15592514D01*
X12486486Y-15592514D01*
X12457914Y-15606800D01*
X12443628Y-15621086D01*
X12757914Y-15792514D02*
X12729343Y-15778228D01*
X12715057Y-15763943D01*
X12700771Y-15735371D01*
X12700771Y-15649657D01*
X12715057Y-15621086D01*
X12729343Y-15606800D01*
X12757914Y-15592514D01*
X12800771Y-15592514D01*
X12829343Y-15606800D01*
X12843628Y-15621086D01*
X12857914Y-15649657D01*
X12857914Y-15735371D01*
X12843628Y-15763943D01*
X12829343Y-15778228D01*
X12800771Y-15792514D01*
X12757914Y-15792514D01*
X13029343Y-15792514D02*
X13000771Y-15778228D01*
X12986486Y-15749657D01*
X12986486Y-15492514D01*
X13257914Y-15778228D02*
X13229343Y-15792514D01*
X13172200Y-15792514D01*
X13143628Y-15778228D01*
X13129343Y-15749657D01*
X13129343Y-15635371D01*
X13143628Y-15606800D01*
X13172200Y-15592514D01*
X13229343Y-15592514D01*
X13257914Y-15606800D01*
X13272200Y-15635371D01*
X13272200Y-15663943D01*
X13129343Y-15692514D01*
X13386486Y-15778228D02*
X13415057Y-15792514D01*
X13472200Y-15792514D01*
X13500771Y-15778228D01*
X13515057Y-15749657D01*
X13515057Y-15735371D01*
X13500771Y-15706800D01*
X13472200Y-15692514D01*
X13429343Y-15692514D01*
X13400771Y-15678228D01*
X13386486Y-15649657D01*
X13386486Y-15635371D01*
X13400771Y-15606800D01*
X13429343Y-15592514D01*
X13472200Y-15592514D01*
X13500771Y-15606800D01*
X13615057Y-15906800D02*
X13629343Y-15892514D01*
X13657914Y-15849657D01*
X13672200Y-15821086D01*
X13686486Y-15778228D01*
X13700771Y-15706800D01*
X13700771Y-15649657D01*
X13686486Y-15578228D01*
X13672200Y-15535371D01*
X13657914Y-15506800D01*
X13629343Y-15463943D01*
X13615057Y-15449657D01*
X6517200Y-16092800D02*
X6557200Y-16052800D01*
X6517200Y-16012800D01*
X6477200Y-16052800D01*
X6517200Y-16092800D01*
X6900771Y-15888514D02*
X6929343Y-15888514D01*
X6957914Y-15902800D01*
X6972200Y-15917086D01*
X6986486Y-15945657D01*
X7000771Y-16002800D01*
X7000771Y-16074228D01*
X6986486Y-16131371D01*
X6972200Y-16159943D01*
X6957914Y-16174228D01*
X6929343Y-16188514D01*
X6900771Y-16188514D01*
X6872200Y-16174228D01*
X6857914Y-16159943D01*
X6843628Y-16131371D01*
X6829343Y-16074228D01*
X6829343Y-16002800D01*
X6843628Y-15945657D01*
X6857914Y-15917086D01*
X6872200Y-15902800D01*
X6900771Y-15888514D01*
X7129343Y-16159943D02*
X7143628Y-16174228D01*
X7129343Y-16188514D01*
X7115057Y-16174228D01*
X7129343Y-16159943D01*
X7129343Y-16188514D01*
X7315057Y-16017086D02*
X7286486Y-16002800D01*
X7272200Y-15988514D01*
X7257914Y-15959943D01*
X7257914Y-15945657D01*
X7272200Y-15917086D01*
X7286486Y-15902800D01*
X7315057Y-15888514D01*
X7372200Y-15888514D01*
X7400771Y-15902800D01*
X7415057Y-15917086D01*
X7429343Y-15945657D01*
X7429343Y-15959943D01*
X7415057Y-15988514D01*
X7400771Y-16002800D01*
X7372200Y-16017086D01*
X7315057Y-16017086D01*
X7286486Y-16031371D01*
X7272200Y-16045657D01*
X7257914Y-16074228D01*
X7257914Y-16131371D01*
X7272200Y-16159943D01*
X7286486Y-16174228D01*
X7315057Y-16188514D01*
X7372200Y-16188514D01*
X7400771Y-16174228D01*
X7415057Y-16159943D01*
X7429343Y-16131371D01*
X7429343Y-16074228D01*
X7415057Y-16045657D01*
X7400771Y-16031371D01*
X7372200Y-16017086D01*
X7615057Y-15888514D02*
X7643628Y-15888514D01*
X7672200Y-15902800D01*
X7686486Y-15917086D01*
X7700771Y-15945657D01*
X7715057Y-16002800D01*
X7715057Y-16074228D01*
X7700771Y-16131371D01*
X7686486Y-16159943D01*
X7672200Y-16174228D01*
X7643628Y-16188514D01*
X7615057Y-16188514D01*
X7586486Y-16174228D01*
X7572200Y-16159943D01*
X7557914Y-16131371D01*
X7543628Y-16074228D01*
X7543628Y-16002800D01*
X7557914Y-15945657D01*
X7572200Y-15917086D01*
X7586486Y-15902800D01*
X7615057Y-15888514D01*
X7843628Y-16188514D02*
X7843628Y-15988514D01*
X7843628Y-16017086D02*
X7857914Y-16002800D01*
X7886486Y-15988514D01*
X7929343Y-15988514D01*
X7957914Y-16002800D01*
X7972200Y-16031371D01*
X7972200Y-16188514D01*
X7972200Y-16031371D02*
X7986486Y-16002800D01*
X8015057Y-15988514D01*
X8057914Y-15988514D01*
X8086486Y-16002800D01*
X8100771Y-16031371D01*
X8100771Y-16188514D01*
X8243628Y-16188514D02*
X8243628Y-15988514D01*
X8243628Y-16017086D02*
X8257914Y-16002800D01*
X8286486Y-15988514D01*
X8329343Y-15988514D01*
X8357914Y-16002800D01*
X8372200Y-16031371D01*
X8372200Y-16188514D01*
X8372200Y-16031371D02*
X8386486Y-16002800D01*
X8415057Y-15988514D01*
X8457914Y-15988514D01*
X8486486Y-16002800D01*
X8500771Y-16031371D01*
X8500771Y-16188514D01*
X9086486Y-15874228D02*
X8829343Y-16259943D01*
X9472200Y-15888514D02*
X9500771Y-15888514D01*
X9529343Y-15902800D01*
X9543629Y-15917086D01*
X9557914Y-15945657D01*
X9572200Y-16002800D01*
X9572200Y-16074228D01*
X9557914Y-16131371D01*
X9543629Y-16159943D01*
X9529343Y-16174228D01*
X9500771Y-16188514D01*
X9472200Y-16188514D01*
X9443629Y-16174228D01*
X9429343Y-16159943D01*
X9415057Y-16131371D01*
X9400771Y-16074228D01*
X9400771Y-16002800D01*
X9415057Y-15945657D01*
X9429343Y-15917086D01*
X9443629Y-15902800D01*
X9472200Y-15888514D01*
X9700771Y-16159943D02*
X9715057Y-16174228D01*
X9700771Y-16188514D01*
X9686486Y-16174228D01*
X9700771Y-16159943D01*
X9700771Y-16188514D01*
X9900771Y-15888514D02*
X9929343Y-15888514D01*
X9957914Y-15902800D01*
X9972200Y-15917086D01*
X9986486Y-15945657D01*
X10000771Y-16002800D01*
X10000771Y-16074228D01*
X9986486Y-16131371D01*
X9972200Y-16159943D01*
X9957914Y-16174228D01*
X9929343Y-16188514D01*
X9900771Y-16188514D01*
X9872200Y-16174228D01*
X9857914Y-16159943D01*
X9843629Y-16131371D01*
X9829343Y-16074228D01*
X9829343Y-16002800D01*
X9843629Y-15945657D01*
X9857914Y-15917086D01*
X9872200Y-15902800D01*
X9900771Y-15888514D01*
X10100771Y-15888514D02*
X10286486Y-15888514D01*
X10186486Y-16002800D01*
X10229343Y-16002800D01*
X10257914Y-16017086D01*
X10272200Y-16031371D01*
X10286486Y-16059943D01*
X10286486Y-16131371D01*
X10272200Y-16159943D01*
X10257914Y-16174228D01*
X10229343Y-16188514D01*
X10143629Y-16188514D01*
X10115057Y-16174228D01*
X10100771Y-16159943D01*
X10572200Y-16188514D02*
X10400771Y-16188514D01*
X10486486Y-16188514D02*
X10486486Y-15888514D01*
X10457914Y-15931371D01*
X10429343Y-15959943D01*
X10400771Y-15974228D01*
X10686486Y-15888514D02*
X10686486Y-15945657D01*
X10800771Y-15888514D02*
X10800771Y-15945657D01*
X11243628Y-16302800D02*
X11229343Y-16288514D01*
X11200771Y-16245657D01*
X11186486Y-16217086D01*
X11172200Y-16174228D01*
X11157914Y-16102800D01*
X11157914Y-16045657D01*
X11172200Y-15974228D01*
X11186486Y-15931371D01*
X11200771Y-15902800D01*
X11229343Y-15859943D01*
X11243628Y-15845657D01*
X11515057Y-16188514D02*
X11343628Y-16188514D01*
X11429343Y-16188514D02*
X11429343Y-15888514D01*
X11400771Y-15931371D01*
X11372200Y-15959943D01*
X11343628Y-15974228D01*
X11629343Y-15917086D02*
X11643628Y-15902800D01*
X11672200Y-15888514D01*
X11743628Y-15888514D01*
X11772200Y-15902800D01*
X11786486Y-15917086D01*
X11800771Y-15945657D01*
X11800771Y-15974228D01*
X11786486Y-16017086D01*
X11615057Y-16188514D01*
X11800771Y-16188514D01*
X11986486Y-15888514D02*
X12015057Y-15888514D01*
X12043628Y-15902800D01*
X12057914Y-15917086D01*
X12072200Y-15945657D01*
X12086486Y-16002800D01*
X12086486Y-16074228D01*
X12072200Y-16131371D01*
X12057914Y-16159943D01*
X12043628Y-16174228D01*
X12015057Y-16188514D01*
X11986486Y-16188514D01*
X11957914Y-16174228D01*
X11943628Y-16159943D01*
X11929343Y-16131371D01*
X11915057Y-16074228D01*
X11915057Y-16002800D01*
X11929343Y-15945657D01*
X11943628Y-15917086D01*
X11957914Y-15902800D01*
X11986486Y-15888514D01*
X12443628Y-16188514D02*
X12443628Y-15888514D01*
X12572200Y-16188514D02*
X12572200Y-16031371D01*
X12557914Y-16002800D01*
X12529343Y-15988514D01*
X12486486Y-15988514D01*
X12457914Y-16002800D01*
X12443628Y-16017086D01*
X12757914Y-16188514D02*
X12729343Y-16174228D01*
X12715057Y-16159943D01*
X12700771Y-16131371D01*
X12700771Y-16045657D01*
X12715057Y-16017086D01*
X12729343Y-16002800D01*
X12757914Y-15988514D01*
X12800771Y-15988514D01*
X12829343Y-16002800D01*
X12843628Y-16017086D01*
X12857914Y-16045657D01*
X12857914Y-16131371D01*
X12843628Y-16159943D01*
X12829343Y-16174228D01*
X12800771Y-16188514D01*
X12757914Y-16188514D01*
X13029343Y-16188514D02*
X13000771Y-16174228D01*
X12986486Y-16145657D01*
X12986486Y-15888514D01*
X13257914Y-16174228D02*
X13229343Y-16188514D01*
X13172200Y-16188514D01*
X13143628Y-16174228D01*
X13129343Y-16145657D01*
X13129343Y-16031371D01*
X13143628Y-16002800D01*
X13172200Y-15988514D01*
X13229343Y-15988514D01*
X13257914Y-16002800D01*
X13272200Y-16031371D01*
X13272200Y-16059943D01*
X13129343Y-16088514D01*
X13386486Y-16174228D02*
X13415057Y-16188514D01*
X13472200Y-16188514D01*
X13500771Y-16174228D01*
X13515057Y-16145657D01*
X13515057Y-16131371D01*
X13500771Y-16102800D01*
X13472200Y-16088514D01*
X13429343Y-16088514D01*
X13400771Y-16074228D01*
X13386486Y-16045657D01*
X13386486Y-16031371D01*
X13400771Y-16002800D01*
X13429343Y-15988514D01*
X13472200Y-15988514D01*
X13500771Y-16002800D01*
X13615057Y-16302800D02*
X13629343Y-16288514D01*
X13657914Y-16245657D01*
X13672200Y-16217086D01*
X13686486Y-16174228D01*
X13700771Y-16102800D01*
X13700771Y-16045657D01*
X13686486Y-15974228D01*
X13672200Y-15931371D01*
X13657914Y-15902800D01*
X13629343Y-15859943D01*
X13615057Y-15845657D01*
X6472200Y-16406300D02*
X6557200Y-16491300D01*
X6557200Y-16406300D02*
X6472200Y-16491300D01*
X6557200Y-16448800D02*
G75*
G03*
X6557200Y-16448800I-42500J0D01*
G01*
X6900771Y-16284514D02*
X6929343Y-16284514D01*
X6957914Y-16298800D01*
X6972200Y-16313086D01*
X6986486Y-16341657D01*
X7000771Y-16398800D01*
X7000771Y-16470228D01*
X6986486Y-16527371D01*
X6972200Y-16555943D01*
X6957914Y-16570228D01*
X6929343Y-16584514D01*
X6900771Y-16584514D01*
X6872200Y-16570228D01*
X6857914Y-16555943D01*
X6843628Y-16527371D01*
X6829343Y-16470228D01*
X6829343Y-16398800D01*
X6843628Y-16341657D01*
X6857914Y-16313086D01*
X6872200Y-16298800D01*
X6900771Y-16284514D01*
X7129343Y-16555943D02*
X7143628Y-16570228D01*
X7129343Y-16584514D01*
X7115057Y-16570228D01*
X7129343Y-16555943D01*
X7129343Y-16584514D01*
X7315057Y-16413086D02*
X7286486Y-16398800D01*
X7272200Y-16384514D01*
X7257914Y-16355943D01*
X7257914Y-16341657D01*
X7272200Y-16313086D01*
X7286486Y-16298800D01*
X7315057Y-16284514D01*
X7372200Y-16284514D01*
X7400771Y-16298800D01*
X7415057Y-16313086D01*
X7429343Y-16341657D01*
X7429343Y-16355943D01*
X7415057Y-16384514D01*
X7400771Y-16398800D01*
X7372200Y-16413086D01*
X7315057Y-16413086D01*
X7286486Y-16427371D01*
X7272200Y-16441657D01*
X7257914Y-16470228D01*
X7257914Y-16527371D01*
X7272200Y-16555943D01*
X7286486Y-16570228D01*
X7315057Y-16584514D01*
X7372200Y-16584514D01*
X7400771Y-16570228D01*
X7415057Y-16555943D01*
X7429343Y-16527371D01*
X7429343Y-16470228D01*
X7415057Y-16441657D01*
X7400771Y-16427371D01*
X7372200Y-16413086D01*
X7700771Y-16284514D02*
X7557914Y-16284514D01*
X7543628Y-16427371D01*
X7557914Y-16413086D01*
X7586486Y-16398800D01*
X7657914Y-16398800D01*
X7686486Y-16413086D01*
X7700771Y-16427371D01*
X7715057Y-16455943D01*
X7715057Y-16527371D01*
X7700771Y-16555943D01*
X7686486Y-16570228D01*
X7657914Y-16584514D01*
X7586486Y-16584514D01*
X7557914Y-16570228D01*
X7543628Y-16555943D01*
X7843628Y-16584514D02*
X7843628Y-16384514D01*
X7843628Y-16413086D02*
X7857914Y-16398800D01*
X7886486Y-16384514D01*
X7929343Y-16384514D01*
X7957914Y-16398800D01*
X7972200Y-16427371D01*
X7972200Y-16584514D01*
X7972200Y-16427371D02*
X7986486Y-16398800D01*
X8015057Y-16384514D01*
X8057914Y-16384514D01*
X8086486Y-16398800D01*
X8100771Y-16427371D01*
X8100771Y-16584514D01*
X8243628Y-16584514D02*
X8243628Y-16384514D01*
X8243628Y-16413086D02*
X8257914Y-16398800D01*
X8286486Y-16384514D01*
X8329343Y-16384514D01*
X8357914Y-16398800D01*
X8372200Y-16427371D01*
X8372200Y-16584514D01*
X8372200Y-16427371D02*
X8386486Y-16398800D01*
X8415057Y-16384514D01*
X8457914Y-16384514D01*
X8486486Y-16398800D01*
X8500771Y-16427371D01*
X8500771Y-16584514D01*
X9086486Y-16270228D02*
X8829343Y-16655943D01*
X9472200Y-16284514D02*
X9500771Y-16284514D01*
X9529343Y-16298800D01*
X9543629Y-16313086D01*
X9557914Y-16341657D01*
X9572200Y-16398800D01*
X9572200Y-16470228D01*
X9557914Y-16527371D01*
X9543629Y-16555943D01*
X9529343Y-16570228D01*
X9500771Y-16584514D01*
X9472200Y-16584514D01*
X9443629Y-16570228D01*
X9429343Y-16555943D01*
X9415057Y-16527371D01*
X9400771Y-16470228D01*
X9400771Y-16398800D01*
X9415057Y-16341657D01*
X9429343Y-16313086D01*
X9443629Y-16298800D01*
X9472200Y-16284514D01*
X9700771Y-16555943D02*
X9715057Y-16570228D01*
X9700771Y-16584514D01*
X9686486Y-16570228D01*
X9700771Y-16555943D01*
X9700771Y-16584514D01*
X9900771Y-16284514D02*
X9929343Y-16284514D01*
X9957914Y-16298800D01*
X9972200Y-16313086D01*
X9986486Y-16341657D01*
X10000771Y-16398800D01*
X10000771Y-16470228D01*
X9986486Y-16527371D01*
X9972200Y-16555943D01*
X9957914Y-16570228D01*
X9929343Y-16584514D01*
X9900771Y-16584514D01*
X9872200Y-16570228D01*
X9857914Y-16555943D01*
X9843629Y-16527371D01*
X9829343Y-16470228D01*
X9829343Y-16398800D01*
X9843629Y-16341657D01*
X9857914Y-16313086D01*
X9872200Y-16298800D01*
X9900771Y-16284514D01*
X10100771Y-16284514D02*
X10286486Y-16284514D01*
X10186486Y-16398800D01*
X10229343Y-16398800D01*
X10257914Y-16413086D01*
X10272200Y-16427371D01*
X10286486Y-16455943D01*
X10286486Y-16527371D01*
X10272200Y-16555943D01*
X10257914Y-16570228D01*
X10229343Y-16584514D01*
X10143629Y-16584514D01*
X10115057Y-16570228D01*
X10100771Y-16555943D01*
X10386486Y-16284514D02*
X10572200Y-16284514D01*
X10472200Y-16398800D01*
X10515057Y-16398800D01*
X10543629Y-16413086D01*
X10557914Y-16427371D01*
X10572200Y-16455943D01*
X10572200Y-16527371D01*
X10557914Y-16555943D01*
X10543629Y-16570228D01*
X10515057Y-16584514D01*
X10429343Y-16584514D01*
X10400771Y-16570228D01*
X10386486Y-16555943D01*
X10686486Y-16284514D02*
X10686486Y-16341657D01*
X10800771Y-16284514D02*
X10800771Y-16341657D01*
X11243628Y-16698800D02*
X11229343Y-16684514D01*
X11200771Y-16641657D01*
X11186486Y-16613086D01*
X11172200Y-16570228D01*
X11157914Y-16498800D01*
X11157914Y-16441657D01*
X11172200Y-16370228D01*
X11186486Y-16327371D01*
X11200771Y-16298800D01*
X11229343Y-16255943D01*
X11243628Y-16241657D01*
X11486486Y-16284514D02*
X11429343Y-16284514D01*
X11400771Y-16298800D01*
X11386486Y-16313086D01*
X11357914Y-16355943D01*
X11343628Y-16413086D01*
X11343628Y-16527371D01*
X11357914Y-16555943D01*
X11372200Y-16570228D01*
X11400771Y-16584514D01*
X11457914Y-16584514D01*
X11486486Y-16570228D01*
X11500771Y-16555943D01*
X11515057Y-16527371D01*
X11515057Y-16455943D01*
X11500771Y-16427371D01*
X11486486Y-16413086D01*
X11457914Y-16398800D01*
X11400771Y-16398800D01*
X11372200Y-16413086D01*
X11357914Y-16427371D01*
X11343628Y-16455943D01*
X11872200Y-16584514D02*
X11872200Y-16284514D01*
X12000771Y-16584514D02*
X12000771Y-16427371D01*
X11986486Y-16398800D01*
X11957914Y-16384514D01*
X11915057Y-16384514D01*
X11886486Y-16398800D01*
X11872200Y-16413086D01*
X12186486Y-16584514D02*
X12157914Y-16570228D01*
X12143628Y-16555943D01*
X12129343Y-16527371D01*
X12129343Y-16441657D01*
X12143628Y-16413086D01*
X12157914Y-16398800D01*
X12186486Y-16384514D01*
X12229343Y-16384514D01*
X12257914Y-16398800D01*
X12272200Y-16413086D01*
X12286486Y-16441657D01*
X12286486Y-16527371D01*
X12272200Y-16555943D01*
X12257914Y-16570228D01*
X12229343Y-16584514D01*
X12186486Y-16584514D01*
X12457914Y-16584514D02*
X12429343Y-16570228D01*
X12415057Y-16541657D01*
X12415057Y-16284514D01*
X12686486Y-16570228D02*
X12657914Y-16584514D01*
X12600771Y-16584514D01*
X12572200Y-16570228D01*
X12557914Y-16541657D01*
X12557914Y-16427371D01*
X12572200Y-16398800D01*
X12600771Y-16384514D01*
X12657914Y-16384514D01*
X12686486Y-16398800D01*
X12700771Y-16427371D01*
X12700771Y-16455943D01*
X12557914Y-16484514D01*
X12815057Y-16570228D02*
X12843628Y-16584514D01*
X12900771Y-16584514D01*
X12929343Y-16570228D01*
X12943628Y-16541657D01*
X12943628Y-16527371D01*
X12929343Y-16498800D01*
X12900771Y-16484514D01*
X12857914Y-16484514D01*
X12829343Y-16470228D01*
X12815057Y-16441657D01*
X12815057Y-16427371D01*
X12829343Y-16398800D01*
X12857914Y-16384514D01*
X12900771Y-16384514D01*
X12929343Y-16398800D01*
X13043628Y-16698800D02*
X13057914Y-16684514D01*
X13086486Y-16641657D01*
X13100771Y-16613086D01*
X13115057Y-16570228D01*
X13129343Y-16498800D01*
X13129343Y-16441657D01*
X13115057Y-16370228D01*
X13100771Y-16327371D01*
X13086486Y-16298800D01*
X13057914Y-16255943D01*
X13043628Y-16241657D01*
X6467200Y-16799800D02*
X6557200Y-16889800D01*
X6557200Y-16799800D02*
X6467200Y-16889800D01*
X6512200Y-16799800D02*
X6512200Y-16889800D01*
X6467200Y-16844800D02*
X6557200Y-16844800D01*
X6900771Y-16680514D02*
X6929343Y-16680514D01*
X6957914Y-16694800D01*
X6972200Y-16709086D01*
X6986486Y-16737657D01*
X7000771Y-16794800D01*
X7000771Y-16866229D01*
X6986486Y-16923371D01*
X6972200Y-16951943D01*
X6957914Y-16966229D01*
X6929343Y-16980514D01*
X6900771Y-16980514D01*
X6872200Y-16966229D01*
X6857914Y-16951943D01*
X6843628Y-16923371D01*
X6829343Y-16866229D01*
X6829343Y-16794800D01*
X6843628Y-16737657D01*
X6857914Y-16709086D01*
X6872200Y-16694800D01*
X6900771Y-16680514D01*
X7129343Y-16951943D02*
X7143628Y-16966229D01*
X7129343Y-16980514D01*
X7115057Y-16966229D01*
X7129343Y-16951943D01*
X7129343Y-16980514D01*
X7286486Y-16980514D02*
X7343628Y-16980514D01*
X7372200Y-16966229D01*
X7386486Y-16951943D01*
X7415057Y-16909086D01*
X7429343Y-16851943D01*
X7429343Y-16737657D01*
X7415057Y-16709086D01*
X7400771Y-16694800D01*
X7372200Y-16680514D01*
X7315057Y-16680514D01*
X7286486Y-16694800D01*
X7272200Y-16709086D01*
X7257914Y-16737657D01*
X7257914Y-16809086D01*
X7272200Y-16837657D01*
X7286486Y-16851943D01*
X7315057Y-16866229D01*
X7372200Y-16866229D01*
X7400771Y-16851943D01*
X7415057Y-16837657D01*
X7429343Y-16809086D01*
X7615057Y-16680514D02*
X7643628Y-16680514D01*
X7672200Y-16694800D01*
X7686486Y-16709086D01*
X7700771Y-16737657D01*
X7715057Y-16794800D01*
X7715057Y-16866229D01*
X7700771Y-16923371D01*
X7686486Y-16951943D01*
X7672200Y-16966229D01*
X7643628Y-16980514D01*
X7615057Y-16980514D01*
X7586486Y-16966229D01*
X7572200Y-16951943D01*
X7557914Y-16923371D01*
X7543628Y-16866229D01*
X7543628Y-16794800D01*
X7557914Y-16737657D01*
X7572200Y-16709086D01*
X7586486Y-16694800D01*
X7615057Y-16680514D01*
X7843628Y-16980514D02*
X7843628Y-16780514D01*
X7843628Y-16809086D02*
X7857914Y-16794800D01*
X7886486Y-16780514D01*
X7929343Y-16780514D01*
X7957914Y-16794800D01*
X7972200Y-16823371D01*
X7972200Y-16980514D01*
X7972200Y-16823371D02*
X7986486Y-16794800D01*
X8015057Y-16780514D01*
X8057914Y-16780514D01*
X8086486Y-16794800D01*
X8100771Y-16823371D01*
X8100771Y-16980514D01*
X8243628Y-16980514D02*
X8243628Y-16780514D01*
X8243628Y-16809086D02*
X8257914Y-16794800D01*
X8286486Y-16780514D01*
X8329343Y-16780514D01*
X8357914Y-16794800D01*
X8372200Y-16823371D01*
X8372200Y-16980514D01*
X8372200Y-16823371D02*
X8386486Y-16794800D01*
X8415057Y-16780514D01*
X8457914Y-16780514D01*
X8486486Y-16794800D01*
X8500771Y-16823371D01*
X8500771Y-16980514D01*
X9086486Y-16666228D02*
X8829343Y-17051943D01*
X9472200Y-16680514D02*
X9500771Y-16680514D01*
X9529343Y-16694800D01*
X9543629Y-16709086D01*
X9557914Y-16737657D01*
X9572200Y-16794800D01*
X9572200Y-16866229D01*
X9557914Y-16923371D01*
X9543629Y-16951943D01*
X9529343Y-16966229D01*
X9500771Y-16980514D01*
X9472200Y-16980514D01*
X9443629Y-16966229D01*
X9429343Y-16951943D01*
X9415057Y-16923371D01*
X9400771Y-16866229D01*
X9400771Y-16794800D01*
X9415057Y-16737657D01*
X9429343Y-16709086D01*
X9443629Y-16694800D01*
X9472200Y-16680514D01*
X9700771Y-16951943D02*
X9715057Y-16966229D01*
X9700771Y-16980514D01*
X9686486Y-16966229D01*
X9700771Y-16951943D01*
X9700771Y-16980514D01*
X9900771Y-16680514D02*
X9929343Y-16680514D01*
X9957914Y-16694800D01*
X9972200Y-16709086D01*
X9986486Y-16737657D01*
X10000771Y-16794800D01*
X10000771Y-16866229D01*
X9986486Y-16923371D01*
X9972200Y-16951943D01*
X9957914Y-16966229D01*
X9929343Y-16980514D01*
X9900771Y-16980514D01*
X9872200Y-16966229D01*
X9857914Y-16951943D01*
X9843629Y-16923371D01*
X9829343Y-16866229D01*
X9829343Y-16794800D01*
X9843629Y-16737657D01*
X9857914Y-16709086D01*
X9872200Y-16694800D01*
X9900771Y-16680514D01*
X10100771Y-16680514D02*
X10286486Y-16680514D01*
X10186486Y-16794800D01*
X10229343Y-16794800D01*
X10257914Y-16809086D01*
X10272200Y-16823371D01*
X10286486Y-16851943D01*
X10286486Y-16923371D01*
X10272200Y-16951943D01*
X10257914Y-16966229D01*
X10229343Y-16980514D01*
X10143629Y-16980514D01*
X10115057Y-16966229D01*
X10100771Y-16951943D01*
X10557914Y-16680514D02*
X10415057Y-16680514D01*
X10400771Y-16823371D01*
X10415057Y-16809086D01*
X10443629Y-16794800D01*
X10515057Y-16794800D01*
X10543629Y-16809086D01*
X10557914Y-16823371D01*
X10572200Y-16851943D01*
X10572200Y-16923371D01*
X10557914Y-16951943D01*
X10543629Y-16966229D01*
X10515057Y-16980514D01*
X10443629Y-16980514D01*
X10415057Y-16966229D01*
X10400771Y-16951943D01*
X10686486Y-16680514D02*
X10686486Y-16737657D01*
X10800771Y-16680514D02*
X10800771Y-16737657D01*
X11243628Y-17094800D02*
X11229343Y-17080514D01*
X11200771Y-17037657D01*
X11186486Y-17009086D01*
X11172200Y-16966229D01*
X11157914Y-16894800D01*
X11157914Y-16837657D01*
X11172200Y-16766228D01*
X11186486Y-16723371D01*
X11200771Y-16694800D01*
X11229343Y-16651943D01*
X11243628Y-16637657D01*
X11515057Y-16980514D02*
X11343628Y-16980514D01*
X11429343Y-16980514D02*
X11429343Y-16680514D01*
X11400771Y-16723371D01*
X11372200Y-16751943D01*
X11343628Y-16766228D01*
X11686486Y-16809086D02*
X11657914Y-16794800D01*
X11643628Y-16780514D01*
X11629343Y-16751943D01*
X11629343Y-16737657D01*
X11643628Y-16709086D01*
X11657914Y-16694800D01*
X11686486Y-16680514D01*
X11743628Y-16680514D01*
X11772200Y-16694800D01*
X11786486Y-16709086D01*
X11800771Y-16737657D01*
X11800771Y-16751943D01*
X11786486Y-16780514D01*
X11772200Y-16794800D01*
X11743628Y-16809086D01*
X11686486Y-16809086D01*
X11657914Y-16823371D01*
X11643628Y-16837657D01*
X11629343Y-16866229D01*
X11629343Y-16923371D01*
X11643628Y-16951943D01*
X11657914Y-16966229D01*
X11686486Y-16980514D01*
X11743628Y-16980514D01*
X11772200Y-16966229D01*
X11786486Y-16951943D01*
X11800771Y-16923371D01*
X11800771Y-16866229D01*
X11786486Y-16837657D01*
X11772200Y-16823371D01*
X11743628Y-16809086D01*
X12157914Y-16980514D02*
X12157914Y-16680514D01*
X12286486Y-16980514D02*
X12286486Y-16823371D01*
X12272200Y-16794800D01*
X12243628Y-16780514D01*
X12200771Y-16780514D01*
X12172200Y-16794800D01*
X12157914Y-16809086D01*
X12472200Y-16980514D02*
X12443628Y-16966229D01*
X12429343Y-16951943D01*
X12415057Y-16923371D01*
X12415057Y-16837657D01*
X12429343Y-16809086D01*
X12443628Y-16794800D01*
X12472200Y-16780514D01*
X12515057Y-16780514D01*
X12543628Y-16794800D01*
X12557914Y-16809086D01*
X12572200Y-16837657D01*
X12572200Y-16923371D01*
X12557914Y-16951943D01*
X12543628Y-16966229D01*
X12515057Y-16980514D01*
X12472200Y-16980514D01*
X12743628Y-16980514D02*
X12715057Y-16966229D01*
X12700771Y-16937657D01*
X12700771Y-16680514D01*
X12972200Y-16966229D02*
X12943628Y-16980514D01*
X12886486Y-16980514D01*
X12857914Y-16966229D01*
X12843628Y-16937657D01*
X12843628Y-16823371D01*
X12857914Y-16794800D01*
X12886486Y-16780514D01*
X12943628Y-16780514D01*
X12972200Y-16794800D01*
X12986486Y-16823371D01*
X12986486Y-16851943D01*
X12843628Y-16880514D01*
X13100771Y-16966229D02*
X13129343Y-16980514D01*
X13186486Y-16980514D01*
X13215057Y-16966229D01*
X13229343Y-16937657D01*
X13229343Y-16923371D01*
X13215057Y-16894800D01*
X13186486Y-16880514D01*
X13143628Y-16880514D01*
X13115057Y-16866229D01*
X13100771Y-16837657D01*
X13100771Y-16823371D01*
X13115057Y-16794800D01*
X13143628Y-16780514D01*
X13186486Y-16780514D01*
X13215057Y-16794800D01*
X13329343Y-17094800D02*
X13343628Y-17080514D01*
X13372200Y-17037657D01*
X13386486Y-17009086D01*
X13400771Y-16966229D01*
X13415057Y-16894800D01*
X13415057Y-16837657D01*
X13400771Y-16766228D01*
X13386486Y-16723371D01*
X13372200Y-16694800D01*
X13343628Y-16651943D01*
X13329343Y-16637657D01*
X6457200Y-17190800D02*
X6557200Y-17290800D01*
X6557200Y-17190800D02*
X6457200Y-17290800D01*
X6542556Y-17276156D02*
X6542556Y-17205444D01*
X6471844Y-17205444D01*
X6471844Y-17276156D01*
X6542556Y-17276156D01*
X7000771Y-17376514D02*
X6829343Y-17376514D01*
X6915057Y-17376514D02*
X6915057Y-17076514D01*
X6886486Y-17119371D01*
X6857914Y-17147943D01*
X6829343Y-17162229D01*
X7129343Y-17347943D02*
X7143628Y-17362229D01*
X7129343Y-17376514D01*
X7115057Y-17362229D01*
X7129343Y-17347943D01*
X7129343Y-17376514D01*
X7329343Y-17076514D02*
X7357914Y-17076514D01*
X7386486Y-17090800D01*
X7400771Y-17105086D01*
X7415057Y-17133657D01*
X7429343Y-17190800D01*
X7429343Y-17262229D01*
X7415057Y-17319371D01*
X7400771Y-17347943D01*
X7386486Y-17362229D01*
X7357914Y-17376514D01*
X7329343Y-17376514D01*
X7300771Y-17362229D01*
X7286486Y-17347943D01*
X7272200Y-17319371D01*
X7257914Y-17262229D01*
X7257914Y-17190800D01*
X7272200Y-17133657D01*
X7286486Y-17105086D01*
X7300771Y-17090800D01*
X7329343Y-17076514D01*
X7615057Y-17076514D02*
X7643628Y-17076514D01*
X7672200Y-17090800D01*
X7686486Y-17105086D01*
X7700771Y-17133657D01*
X7715057Y-17190800D01*
X7715057Y-17262229D01*
X7700771Y-17319371D01*
X7686486Y-17347943D01*
X7672200Y-17362229D01*
X7643628Y-17376514D01*
X7615057Y-17376514D01*
X7586486Y-17362229D01*
X7572200Y-17347943D01*
X7557914Y-17319371D01*
X7543628Y-17262229D01*
X7543628Y-17190800D01*
X7557914Y-17133657D01*
X7572200Y-17105086D01*
X7586486Y-17090800D01*
X7615057Y-17076514D01*
X7843628Y-17376514D02*
X7843628Y-17176514D01*
X7843628Y-17205086D02*
X7857914Y-17190800D01*
X7886486Y-17176514D01*
X7929343Y-17176514D01*
X7957914Y-17190800D01*
X7972200Y-17219371D01*
X7972200Y-17376514D01*
X7972200Y-17219371D02*
X7986486Y-17190800D01*
X8015057Y-17176514D01*
X8057914Y-17176514D01*
X8086486Y-17190800D01*
X8100771Y-17219371D01*
X8100771Y-17376514D01*
X8243628Y-17376514D02*
X8243628Y-17176514D01*
X8243628Y-17205086D02*
X8257914Y-17190800D01*
X8286486Y-17176514D01*
X8329343Y-17176514D01*
X8357914Y-17190800D01*
X8372200Y-17219371D01*
X8372200Y-17376514D01*
X8372200Y-17219371D02*
X8386486Y-17190800D01*
X8415057Y-17176514D01*
X8457914Y-17176514D01*
X8486486Y-17190800D01*
X8500771Y-17219371D01*
X8500771Y-17376514D01*
X9086486Y-17062229D02*
X8829343Y-17447943D01*
X9472200Y-17076514D02*
X9500771Y-17076514D01*
X9529343Y-17090800D01*
X9543629Y-17105086D01*
X9557914Y-17133657D01*
X9572200Y-17190800D01*
X9572200Y-17262229D01*
X9557914Y-17319371D01*
X9543629Y-17347943D01*
X9529343Y-17362229D01*
X9500771Y-17376514D01*
X9472200Y-17376514D01*
X9443629Y-17362229D01*
X9429343Y-17347943D01*
X9415057Y-17319371D01*
X9400771Y-17262229D01*
X9400771Y-17190800D01*
X9415057Y-17133657D01*
X9429343Y-17105086D01*
X9443629Y-17090800D01*
X9472200Y-17076514D01*
X9700771Y-17347943D02*
X9715057Y-17362229D01*
X9700771Y-17376514D01*
X9686486Y-17362229D01*
X9700771Y-17347943D01*
X9700771Y-17376514D01*
X9900771Y-17076514D02*
X9929343Y-17076514D01*
X9957914Y-17090800D01*
X9972200Y-17105086D01*
X9986486Y-17133657D01*
X10000771Y-17190800D01*
X10000771Y-17262229D01*
X9986486Y-17319371D01*
X9972200Y-17347943D01*
X9957914Y-17362229D01*
X9929343Y-17376514D01*
X9900771Y-17376514D01*
X9872200Y-17362229D01*
X9857914Y-17347943D01*
X9843629Y-17319371D01*
X9829343Y-17262229D01*
X9829343Y-17190800D01*
X9843629Y-17133657D01*
X9857914Y-17105086D01*
X9872200Y-17090800D01*
X9900771Y-17076514D01*
X10100771Y-17076514D02*
X10286486Y-17076514D01*
X10186486Y-17190800D01*
X10229343Y-17190800D01*
X10257914Y-17205086D01*
X10272200Y-17219371D01*
X10286486Y-17247943D01*
X10286486Y-17319371D01*
X10272200Y-17347943D01*
X10257914Y-17362229D01*
X10229343Y-17376514D01*
X10143629Y-17376514D01*
X10115057Y-17362229D01*
X10100771Y-17347943D01*
X10429343Y-17376514D02*
X10486486Y-17376514D01*
X10515057Y-17362229D01*
X10529343Y-17347943D01*
X10557914Y-17305086D01*
X10572200Y-17247943D01*
X10572200Y-17133657D01*
X10557914Y-17105086D01*
X10543629Y-17090800D01*
X10515057Y-17076514D01*
X10457914Y-17076514D01*
X10429343Y-17090800D01*
X10415057Y-17105086D01*
X10400771Y-17133657D01*
X10400771Y-17205086D01*
X10415057Y-17233657D01*
X10429343Y-17247943D01*
X10457914Y-17262229D01*
X10515057Y-17262229D01*
X10543629Y-17247943D01*
X10557914Y-17233657D01*
X10572200Y-17205086D01*
X10686486Y-17076514D02*
X10686486Y-17133657D01*
X10800771Y-17076514D02*
X10800771Y-17133657D01*
X11243628Y-17490800D02*
X11229343Y-17476514D01*
X11200771Y-17433657D01*
X11186486Y-17405086D01*
X11172200Y-17362229D01*
X11157914Y-17290800D01*
X11157914Y-17233657D01*
X11172200Y-17162229D01*
X11186486Y-17119371D01*
X11200771Y-17090800D01*
X11229343Y-17047943D01*
X11243628Y-17033657D01*
X11500771Y-17076514D02*
X11357914Y-17076514D01*
X11343628Y-17219371D01*
X11357914Y-17205086D01*
X11386486Y-17190800D01*
X11457914Y-17190800D01*
X11486486Y-17205086D01*
X11500771Y-17219371D01*
X11515057Y-17247943D01*
X11515057Y-17319371D01*
X11500771Y-17347943D01*
X11486486Y-17362229D01*
X11457914Y-17376514D01*
X11386486Y-17376514D01*
X11357914Y-17362229D01*
X11343628Y-17347943D01*
X11686486Y-17205086D02*
X11657914Y-17190800D01*
X11643628Y-17176514D01*
X11629343Y-17147943D01*
X11629343Y-17133657D01*
X11643628Y-17105086D01*
X11657914Y-17090800D01*
X11686486Y-17076514D01*
X11743628Y-17076514D01*
X11772200Y-17090800D01*
X11786486Y-17105086D01*
X11800771Y-17133657D01*
X11800771Y-17147943D01*
X11786486Y-17176514D01*
X11772200Y-17190800D01*
X11743628Y-17205086D01*
X11686486Y-17205086D01*
X11657914Y-17219371D01*
X11643628Y-17233657D01*
X11629343Y-17262229D01*
X11629343Y-17319371D01*
X11643628Y-17347943D01*
X11657914Y-17362229D01*
X11686486Y-17376514D01*
X11743628Y-17376514D01*
X11772200Y-17362229D01*
X11786486Y-17347943D01*
X11800771Y-17319371D01*
X11800771Y-17262229D01*
X11786486Y-17233657D01*
X11772200Y-17219371D01*
X11743628Y-17205086D01*
X12157914Y-17376514D02*
X12157914Y-17076514D01*
X12286486Y-17376514D02*
X12286486Y-17219371D01*
X12272200Y-17190800D01*
X12243628Y-17176514D01*
X12200771Y-17176514D01*
X12172200Y-17190800D01*
X12157914Y-17205086D01*
X12472200Y-17376514D02*
X12443628Y-17362229D01*
X12429343Y-17347943D01*
X12415057Y-17319371D01*
X12415057Y-17233657D01*
X12429343Y-17205086D01*
X12443628Y-17190800D01*
X12472200Y-17176514D01*
X12515057Y-17176514D01*
X12543628Y-17190800D01*
X12557914Y-17205086D01*
X12572200Y-17233657D01*
X12572200Y-17319371D01*
X12557914Y-17347943D01*
X12543628Y-17362229D01*
X12515057Y-17376514D01*
X12472200Y-17376514D01*
X12743628Y-17376514D02*
X12715057Y-17362229D01*
X12700771Y-17333657D01*
X12700771Y-17076514D01*
X12972200Y-17362229D02*
X12943628Y-17376514D01*
X12886486Y-17376514D01*
X12857914Y-17362229D01*
X12843628Y-17333657D01*
X12843628Y-17219371D01*
X12857914Y-17190800D01*
X12886486Y-17176514D01*
X12943628Y-17176514D01*
X12972200Y-17190800D01*
X12986486Y-17219371D01*
X12986486Y-17247943D01*
X12843628Y-17276514D01*
X13100771Y-17362229D02*
X13129343Y-17376514D01*
X13186486Y-17376514D01*
X13215057Y-17362229D01*
X13229343Y-17333657D01*
X13229343Y-17319371D01*
X13215057Y-17290800D01*
X13186486Y-17276514D01*
X13143628Y-17276514D01*
X13115057Y-17262229D01*
X13100771Y-17233657D01*
X13100771Y-17219371D01*
X13115057Y-17190800D01*
X13143628Y-17176514D01*
X13186486Y-17176514D01*
X13215057Y-17190800D01*
X13329343Y-17490800D02*
X13343628Y-17476514D01*
X13372200Y-17433657D01*
X13386486Y-17405086D01*
X13400771Y-17362229D01*
X13415057Y-17290800D01*
X13415057Y-17233657D01*
X13400771Y-17162229D01*
X13386486Y-17119371D01*
X13372200Y-17090800D01*
X13343628Y-17047943D01*
X13329343Y-17033657D01*
X6447200Y-17581800D02*
X6557200Y-17691800D01*
X6557200Y-17581800D02*
X6447200Y-17691800D01*
X6502200Y-17691800D02*
X6557200Y-17636800D01*
X6502200Y-17581800D01*
X6447200Y-17636800D01*
X6502200Y-17691800D01*
X7000771Y-17772514D02*
X6829343Y-17772514D01*
X6915057Y-17772514D02*
X6915057Y-17472514D01*
X6886486Y-17515371D01*
X6857914Y-17543943D01*
X6829343Y-17558229D01*
X7129343Y-17743943D02*
X7143628Y-17758229D01*
X7129343Y-17772514D01*
X7115057Y-17758229D01*
X7129343Y-17743943D01*
X7129343Y-17772514D01*
X7429343Y-17772514D02*
X7257914Y-17772514D01*
X7343628Y-17772514D02*
X7343628Y-17472514D01*
X7315057Y-17515371D01*
X7286486Y-17543943D01*
X7257914Y-17558229D01*
X7615057Y-17472514D02*
X7643628Y-17472514D01*
X7672200Y-17486800D01*
X7686486Y-17501086D01*
X7700771Y-17529657D01*
X7715057Y-17586800D01*
X7715057Y-17658229D01*
X7700771Y-17715371D01*
X7686486Y-17743943D01*
X7672200Y-17758229D01*
X7643628Y-17772514D01*
X7615057Y-17772514D01*
X7586486Y-17758229D01*
X7572200Y-17743943D01*
X7557914Y-17715371D01*
X7543628Y-17658229D01*
X7543628Y-17586800D01*
X7557914Y-17529657D01*
X7572200Y-17501086D01*
X7586486Y-17486800D01*
X7615057Y-17472514D01*
X7843628Y-17772514D02*
X7843628Y-17572514D01*
X7843628Y-17601086D02*
X7857914Y-17586800D01*
X7886486Y-17572514D01*
X7929343Y-17572514D01*
X7957914Y-17586800D01*
X7972200Y-17615371D01*
X7972200Y-17772514D01*
X7972200Y-17615371D02*
X7986486Y-17586800D01*
X8015057Y-17572514D01*
X8057914Y-17572514D01*
X8086486Y-17586800D01*
X8100771Y-17615371D01*
X8100771Y-17772514D01*
X8243628Y-17772514D02*
X8243628Y-17572514D01*
X8243628Y-17601086D02*
X8257914Y-17586800D01*
X8286486Y-17572514D01*
X8329343Y-17572514D01*
X8357914Y-17586800D01*
X8372200Y-17615371D01*
X8372200Y-17772514D01*
X8372200Y-17615371D02*
X8386486Y-17586800D01*
X8415057Y-17572514D01*
X8457914Y-17572514D01*
X8486486Y-17586800D01*
X8500771Y-17615371D01*
X8500771Y-17772514D01*
X9086486Y-17458229D02*
X8829343Y-17843943D01*
X9472200Y-17472514D02*
X9500771Y-17472514D01*
X9529343Y-17486800D01*
X9543629Y-17501086D01*
X9557914Y-17529657D01*
X9572200Y-17586800D01*
X9572200Y-17658229D01*
X9557914Y-17715371D01*
X9543629Y-17743943D01*
X9529343Y-17758229D01*
X9500771Y-17772514D01*
X9472200Y-17772514D01*
X9443629Y-17758229D01*
X9429343Y-17743943D01*
X9415057Y-17715371D01*
X9400771Y-17658229D01*
X9400771Y-17586800D01*
X9415057Y-17529657D01*
X9429343Y-17501086D01*
X9443629Y-17486800D01*
X9472200Y-17472514D01*
X9700771Y-17743943D02*
X9715057Y-17758229D01*
X9700771Y-17772514D01*
X9686486Y-17758229D01*
X9700771Y-17743943D01*
X9700771Y-17772514D01*
X9900771Y-17472514D02*
X9929343Y-17472514D01*
X9957914Y-17486800D01*
X9972200Y-17501086D01*
X9986486Y-17529657D01*
X10000771Y-17586800D01*
X10000771Y-17658229D01*
X9986486Y-17715371D01*
X9972200Y-17743943D01*
X9957914Y-17758229D01*
X9929343Y-17772514D01*
X9900771Y-17772514D01*
X9872200Y-17758229D01*
X9857914Y-17743943D01*
X9843629Y-17715371D01*
X9829343Y-17658229D01*
X9829343Y-17586800D01*
X9843629Y-17529657D01*
X9857914Y-17501086D01*
X9872200Y-17486800D01*
X9900771Y-17472514D01*
X10257914Y-17572514D02*
X10257914Y-17772514D01*
X10186486Y-17458229D02*
X10115057Y-17672514D01*
X10300771Y-17672514D01*
X10386486Y-17472514D02*
X10572200Y-17472514D01*
X10472200Y-17586800D01*
X10515057Y-17586800D01*
X10543629Y-17601086D01*
X10557914Y-17615371D01*
X10572200Y-17643943D01*
X10572200Y-17715371D01*
X10557914Y-17743943D01*
X10543629Y-17758229D01*
X10515057Y-17772514D01*
X10429343Y-17772514D01*
X10400771Y-17758229D01*
X10386486Y-17743943D01*
X10686486Y-17472514D02*
X10686486Y-17529657D01*
X10800771Y-17472514D02*
X10800771Y-17529657D01*
X11243628Y-17886800D02*
X11229343Y-17872514D01*
X11200771Y-17829657D01*
X11186486Y-17801086D01*
X11172200Y-17758229D01*
X11157914Y-17686800D01*
X11157914Y-17629657D01*
X11172200Y-17558229D01*
X11186486Y-17515371D01*
X11200771Y-17486800D01*
X11229343Y-17443943D01*
X11243628Y-17429657D01*
X11329343Y-17472514D02*
X11515057Y-17472514D01*
X11415057Y-17586800D01*
X11457914Y-17586800D01*
X11486486Y-17601086D01*
X11500771Y-17615371D01*
X11515057Y-17643943D01*
X11515057Y-17715371D01*
X11500771Y-17743943D01*
X11486486Y-17758229D01*
X11457914Y-17772514D01*
X11372200Y-17772514D01*
X11343628Y-17758229D01*
X11329343Y-17743943D01*
X11657914Y-17772514D02*
X11715057Y-17772514D01*
X11743628Y-17758229D01*
X11757914Y-17743943D01*
X11786486Y-17701086D01*
X11800771Y-17643943D01*
X11800771Y-17529657D01*
X11786486Y-17501086D01*
X11772200Y-17486800D01*
X11743628Y-17472514D01*
X11686486Y-17472514D01*
X11657914Y-17486800D01*
X11643628Y-17501086D01*
X11629343Y-17529657D01*
X11629343Y-17601086D01*
X11643628Y-17629657D01*
X11657914Y-17643943D01*
X11686486Y-17658229D01*
X11743628Y-17658229D01*
X11772200Y-17643943D01*
X11786486Y-17629657D01*
X11800771Y-17601086D01*
X12157914Y-17772514D02*
X12157914Y-17472514D01*
X12286486Y-17772514D02*
X12286486Y-17615371D01*
X12272200Y-17586800D01*
X12243628Y-17572514D01*
X12200771Y-17572514D01*
X12172200Y-17586800D01*
X12157914Y-17601086D01*
X12472200Y-17772514D02*
X12443628Y-17758229D01*
X12429343Y-17743943D01*
X12415057Y-17715371D01*
X12415057Y-17629657D01*
X12429343Y-17601086D01*
X12443628Y-17586800D01*
X12472200Y-17572514D01*
X12515057Y-17572514D01*
X12543628Y-17586800D01*
X12557914Y-17601086D01*
X12572200Y-17629657D01*
X12572200Y-17715371D01*
X12557914Y-17743943D01*
X12543628Y-17758229D01*
X12515057Y-17772514D01*
X12472200Y-17772514D01*
X12743628Y-17772514D02*
X12715057Y-17758229D01*
X12700771Y-17729657D01*
X12700771Y-17472514D01*
X12972200Y-17758229D02*
X12943628Y-17772514D01*
X12886486Y-17772514D01*
X12857914Y-17758229D01*
X12843628Y-17729657D01*
X12843628Y-17615371D01*
X12857914Y-17586800D01*
X12886486Y-17572514D01*
X12943628Y-17572514D01*
X12972200Y-17586800D01*
X12986486Y-17615371D01*
X12986486Y-17643943D01*
X12843628Y-17672514D01*
X13100771Y-17758229D02*
X13129343Y-17772514D01*
X13186486Y-17772514D01*
X13215057Y-17758229D01*
X13229343Y-17729657D01*
X13229343Y-17715371D01*
X13215057Y-17686800D01*
X13186486Y-17672514D01*
X13143628Y-17672514D01*
X13115057Y-17658229D01*
X13100771Y-17629657D01*
X13100771Y-17615371D01*
X13115057Y-17586800D01*
X13143628Y-17572514D01*
X13186486Y-17572514D01*
X13215057Y-17586800D01*
X13329343Y-17886800D02*
X13343628Y-17872514D01*
X13372200Y-17829657D01*
X13386486Y-17801086D01*
X13400771Y-17758229D01*
X13415057Y-17686800D01*
X13415057Y-17629657D01*
X13400771Y-17558229D01*
X13386486Y-17515371D01*
X13372200Y-17486800D01*
X13343628Y-17443943D01*
X13329343Y-17429657D01*
M02*
