%TF.GenerationSoftware,KiCad,Pcbnew,(5.1.9-0-10_14)*%
%TF.CreationDate,2021-03-06T16:34:47+01:00*%
%TF.ProjectId,Breadboard,42726561-6462-46f6-9172-642e6b696361,rev?*%
%TF.SameCoordinates,Original*%
%TF.FileFunction,Copper,L1,Top*%
%TF.FilePolarity,Positive*%
%FSLAX46Y46*%
G04 Gerber Fmt 4.6, Leading zero omitted, Abs format (unit mm)*
G04 Created by KiCad (PCBNEW (5.1.9-0-10_14)) date 2021-03-06 16:34:47*
%MOMM*%
%LPD*%
G01*
G04 APERTURE LIST*
%TA.AperFunction,ComponentPad*%
%ADD10O,2.200000X2.200000*%
%TD*%
%TA.AperFunction,ComponentPad*%
%ADD11R,2.200000X2.200000*%
%TD*%
%TA.AperFunction,ComponentPad*%
%ADD12O,1.600000X1.600000*%
%TD*%
%TA.AperFunction,ComponentPad*%
%ADD13R,1.600000X1.600000*%
%TD*%
%TA.AperFunction,ComponentPad*%
%ADD14C,1.600000*%
%TD*%
%TA.AperFunction,ComponentPad*%
%ADD15O,2.400000X1.600000*%
%TD*%
%TA.AperFunction,ComponentPad*%
%ADD16R,2.400000X1.600000*%
%TD*%
%TA.AperFunction,ComponentPad*%
%ADD17C,1.524000*%
%TD*%
%TA.AperFunction,ComponentPad*%
%ADD18R,1.524000X1.524000*%
%TD*%
%TA.AperFunction,ComponentPad*%
%ADD19O,1.700000X1.700000*%
%TD*%
%TA.AperFunction,ComponentPad*%
%ADD20R,1.700000X1.700000*%
%TD*%
%TA.AperFunction,ComponentPad*%
%ADD21C,2.380000*%
%TD*%
%TA.AperFunction,ComponentPad*%
%ADD22C,1.900000*%
%TD*%
%TA.AperFunction,ComponentPad*%
%ADD23O,1.400000X1.400000*%
%TD*%
%TA.AperFunction,ComponentPad*%
%ADD24C,1.400000*%
%TD*%
%TA.AperFunction,ComponentPad*%
%ADD25C,1.850000*%
%TD*%
%TA.AperFunction,ComponentPad*%
%ADD26O,1.800000X1.800000*%
%TD*%
%TA.AperFunction,ComponentPad*%
%ADD27R,1.800000X1.800000*%
%TD*%
%TA.AperFunction,ViaPad*%
%ADD28C,0.800000*%
%TD*%
%TA.AperFunction,Conductor*%
%ADD29C,0.250000*%
%TD*%
%TA.AperFunction,Conductor*%
%ADD30C,1.200000*%
%TD*%
G04 APERTURE END LIST*
D10*
%TO.P,D1,2*%
%TO.N,Net-(D1-Pad2)*%
X81280000Y-79248000D03*
D11*
%TO.P,D1,1*%
%TO.N,+5V*%
X71120000Y-79248000D03*
%TD*%
D12*
%TO.P,U9,28*%
%TO.N,S_DIR*%
X118872000Y-86360000D03*
%TO.P,U9,14*%
%TO.N,Net-(U9-Pad14)*%
X111252000Y-119380000D03*
%TO.P,U9,27*%
%TO.N,S_STEP*%
X118872000Y-88900000D03*
%TO.P,U9,13*%
%TO.N,SDA*%
X111252000Y-116840000D03*
%TO.P,U9,26*%
%TO.N,S_SLEEP*%
X118872000Y-91440000D03*
%TO.P,U9,12*%
%TO.N,SCL*%
X111252000Y-114300000D03*
%TO.P,U9,25*%
%TO.N,C_STEP*%
X118872000Y-93980000D03*
%TO.P,U9,11*%
%TO.N,Net-(U9-Pad11)*%
X111252000Y-111760000D03*
%TO.P,U9,24*%
%TO.N,C_GPIO*%
X118872000Y-96520000D03*
%TO.P,U9,10*%
%TO.N,GND*%
X111252000Y-109220000D03*
%TO.P,U9,23*%
%TO.N,C_SERIAL*%
X118872000Y-99060000D03*
%TO.P,U9,9*%
%TO.N,+5V*%
X111252000Y-106680000D03*
%TO.P,U9,22*%
%TO.N,C_SWITCH*%
X118872000Y-101600000D03*
%TO.P,U9,8*%
%TO.N,EXP8*%
X111252000Y-104140000D03*
%TO.P,U9,21*%
%TO.N,C_POWER*%
X118872000Y-104140000D03*
%TO.P,U9,7*%
%TO.N,EXP7*%
X111252000Y-101600000D03*
%TO.P,U9,20*%
%TO.N,Net-(U9-Pad20)*%
X118872000Y-106680000D03*
%TO.P,U9,6*%
%TO.N,EXP6*%
X111252000Y-99060000D03*
%TO.P,U9,19*%
%TO.N,C_INT*%
X118872000Y-109220000D03*
%TO.P,U9,5*%
%TO.N,EXP5*%
X111252000Y-96520000D03*
%TO.P,U9,18*%
%TO.N,+5V*%
X118872000Y-111760000D03*
%TO.P,U9,4*%
%TO.N,EXP4*%
X111252000Y-93980000D03*
%TO.P,U9,17*%
%TO.N,GND*%
X118872000Y-114300000D03*
%TO.P,U9,3*%
%TO.N,EXP3*%
X111252000Y-91440000D03*
%TO.P,U9,16*%
%TO.N,GND*%
X118872000Y-116840000D03*
%TO.P,U9,2*%
%TO.N,EXP2*%
X111252000Y-88900000D03*
%TO.P,U9,15*%
%TO.N,GND*%
X118872000Y-119380000D03*
D13*
%TO.P,U9,1*%
%TO.N,EXP1*%
X111252000Y-86360000D03*
%TD*%
D12*
%TO.P,CU9,2*%
%TO.N,GND*%
X118752000Y-122936000D03*
D14*
%TO.P,CU9,1*%
%TO.N,+5V*%
X111252000Y-122936000D03*
%TD*%
D15*
%TO.P,U6,16*%
%TO.N,R_POWER*%
X143764000Y-53340000D03*
%TO.P,U6,8*%
%TO.N,GND*%
X136144000Y-71120000D03*
%TO.P,U6,15*%
%TO.N,R_SWITCH*%
X143764000Y-55880000D03*
%TO.P,U6,7*%
%TO.N,Net-(U6-Pad7)*%
X136144000Y-68580000D03*
%TO.P,U6,14*%
%TO.N,R_SERIAL*%
X143764000Y-58420000D03*
%TO.P,U6,6*%
%TO.N,Net-(U6-Pad6)*%
X136144000Y-66040000D03*
%TO.P,U6,13*%
%TO.N,R_GPIO*%
X143764000Y-60960000D03*
%TO.P,U6,5*%
%TO.N,C_STEP*%
X136144000Y-63500000D03*
%TO.P,U6,12*%
%TO.N,R_STEP*%
X143764000Y-63500000D03*
%TO.P,U6,4*%
%TO.N,C_GPIO*%
X136144000Y-60960000D03*
%TO.P,U6,11*%
%TO.N,Net-(U6-Pad11)*%
X143764000Y-66040000D03*
%TO.P,U6,3*%
%TO.N,C_SERIAL*%
X136144000Y-58420000D03*
%TO.P,U6,10*%
%TO.N,Net-(U6-Pad10)*%
X143764000Y-68580000D03*
%TO.P,U6,2*%
%TO.N,C_SWITCH*%
X136144000Y-55880000D03*
%TO.P,U6,9*%
%TO.N,+5V*%
X143764000Y-71120000D03*
D16*
%TO.P,U6,1*%
%TO.N,C_POWER*%
X136144000Y-53340000D03*
%TD*%
D17*
%TO.P,U2,28*%
%TO.N,Net-(U2-Pad28)*%
X68834000Y-83566000D03*
%TO.P,U2,27*%
%TO.N,GND*%
X71374000Y-83566000D03*
%TO.P,U2,26*%
%TO.N,Net-(U2-Pad26)*%
X73914000Y-83566000D03*
%TO.P,U2,25*%
%TO.N,Net-(D1-Pad2)*%
X76454000Y-83566000D03*
%TO.P,U2,24*%
%TO.N,Net-(U2-Pad24)*%
X78994000Y-83566000D03*
%TO.P,U2,23*%
%TO.N,Net-(U2-Pad23)*%
X81534000Y-83566000D03*
%TO.P,U2,22*%
%TO.N,Net-(U2-Pad22)*%
X84074000Y-83566000D03*
%TO.P,U2,21*%
%TO.N,Net-(RU1-6-Pad1)*%
X86614000Y-83566000D03*
%TO.P,U2,20*%
%TO.N,Net-(RU1-8-Pad1)*%
X89154000Y-83566000D03*
%TO.P,U2,19*%
%TO.N,Net-(RU1-4-Pad1)*%
X91694000Y-83566000D03*
%TO.P,U2,18*%
%TO.N,Net-(RU1-5-Pad1)*%
X94234000Y-83566000D03*
%TO.P,U2,17*%
%TO.N,Net-(U2-Pad17)*%
X96774000Y-83566000D03*
%TO.P,U2,16*%
%TO.N,GND*%
X101854000Y-83566000D03*
%TO.P,U2,15*%
%TO.N,PD_POWER*%
X104394000Y-83566000D03*
%TO.P,U2,14*%
X104394000Y-98806000D03*
%TO.P,U2,13*%
%TO.N,GND*%
X101854000Y-98806000D03*
%TO.P,U2,12*%
%TO.N,Net-(JU2-2-Pad8)*%
X96774000Y-98806000D03*
%TO.P,U2,11*%
%TO.N,Net-(JU2-2-Pad7)*%
X94234000Y-98806000D03*
%TO.P,U2,10*%
%TO.N,Net-(JU2-2-Pad6)*%
X91694000Y-98806000D03*
%TO.P,U2,9*%
%TO.N,Net-(JU2-2-Pad5)*%
X89154000Y-98806000D03*
%TO.P,U2,8*%
%TO.N,Net-(JU2-2-Pad4)*%
X86614000Y-98806000D03*
%TO.P,U2,7*%
%TO.N,Net-(U2-Pad7)*%
X84074000Y-98806000D03*
%TO.P,U2,6*%
%TO.N,Net-(JU2-2-Pad3)*%
X81534000Y-98806000D03*
%TO.P,U2,5*%
%TO.N,Net-(JU2-2-Pad2)*%
X78994000Y-98806000D03*
%TO.P,U2,4*%
%TO.N,GND*%
X76454000Y-98806000D03*
%TO.P,U2,3*%
X73914000Y-98806000D03*
%TO.P,U2,2*%
%TO.N,RX*%
X71374000Y-98806000D03*
D18*
%TO.P,U2,1*%
%TO.N,TX*%
X68834000Y-98806000D03*
%TD*%
D19*
%TO.P,JU2-2,8*%
%TO.N,Net-(JU2-2-Pad8)*%
X96520000Y-103124000D03*
%TO.P,JU2-2,7*%
%TO.N,Net-(JU2-2-Pad7)*%
X93980000Y-103124000D03*
%TO.P,JU2-2,6*%
%TO.N,Net-(JU2-2-Pad6)*%
X91440000Y-103124000D03*
%TO.P,JU2-2,5*%
%TO.N,Net-(JU2-2-Pad5)*%
X88900000Y-103124000D03*
%TO.P,JU2-2,4*%
%TO.N,Net-(JU2-2-Pad4)*%
X86360000Y-103124000D03*
%TO.P,JU2-2,3*%
%TO.N,Net-(JU2-2-Pad3)*%
X83820000Y-103124000D03*
%TO.P,JU2-2,2*%
%TO.N,Net-(JU2-2-Pad2)*%
X81280000Y-103124000D03*
D20*
%TO.P,JU2-2,1*%
%TO.N,GND*%
X78740000Y-103124000D03*
%TD*%
D12*
%TO.P,U8,16*%
%TO.N,S_DIR*%
X186944000Y-53340000D03*
%TO.P,U8,8*%
%TO.N,S_PWR*%
X174244000Y-71120000D03*
%TO.P,U8,15*%
%TO.N,S_STEP*%
X186944000Y-55880000D03*
%TO.P,U8,7*%
%TO.N,GND*%
X174244000Y-68580000D03*
%TO.P,U8,14*%
%TO.N,Net-(RU8-1-Pad2)*%
X186944000Y-58420000D03*
%TO.P,U8,6*%
%TO.N,B2*%
X174244000Y-66040000D03*
%TO.P,U8,13*%
%TO.N,Net-(RU8-2-Pad2)*%
X186944000Y-60960000D03*
%TO.P,U8,5*%
%TO.N,A2*%
X174244000Y-63500000D03*
%TO.P,U8,12*%
%TO.N,GND*%
X186944000Y-63500000D03*
%TO.P,U8,4*%
%TO.N,A1*%
X174244000Y-60960000D03*
%TO.P,U8,11*%
%TO.N,GND*%
X186944000Y-66040000D03*
%TO.P,U8,3*%
%TO.N,B1*%
X174244000Y-58420000D03*
%TO.P,U8,10*%
%TO.N,GND*%
X186944000Y-68580000D03*
%TO.P,U8,2*%
%TO.N,+5V*%
X174244000Y-55880000D03*
%TO.P,U8,9*%
%TO.N,S_SLEEP*%
X186944000Y-71120000D03*
D13*
%TO.P,U8,1*%
%TO.N,GND*%
X174244000Y-53340000D03*
%TD*%
D15*
%TO.P,U7,16*%
%TO.N,+5V*%
X132080000Y-53340000D03*
%TO.P,U7,8*%
%TO.N,GND*%
X124460000Y-71120000D03*
%TO.P,U7,15*%
%TO.N,SDA*%
X132080000Y-55880000D03*
%TO.P,U7,7*%
%TO.N,C_GPIO*%
X124460000Y-68580000D03*
%TO.P,U7,14*%
%TO.N,SCL*%
X132080000Y-58420000D03*
%TO.P,U7,6*%
%TO.N,C_SERIAL*%
X124460000Y-66040000D03*
%TO.P,U7,13*%
%TO.N,Net-(U7-Pad13)*%
X132080000Y-60960000D03*
%TO.P,U7,5*%
%TO.N,C_SWITCH*%
X124460000Y-63500000D03*
%TO.P,U7,12*%
%TO.N,S_DIR*%
X132080000Y-63500000D03*
%TO.P,U7,4*%
%TO.N,C_POWER*%
X124460000Y-60960000D03*
%TO.P,U7,11*%
%TO.N,S_STEP*%
X132080000Y-66040000D03*
%TO.P,U7,3*%
%TO.N,GND*%
X124460000Y-58420000D03*
%TO.P,U7,10*%
%TO.N,S_SLEEP*%
X132080000Y-68580000D03*
%TO.P,U7,2*%
%TO.N,GND*%
X124460000Y-55880000D03*
%TO.P,U7,9*%
%TO.N,C_STEP*%
X132080000Y-71120000D03*
D16*
%TO.P,U7,1*%
%TO.N,+5V*%
X124460000Y-53340000D03*
%TD*%
D15*
%TO.P,U5,16*%
%TO.N,+5V*%
X132080000Y-81280000D03*
%TO.P,U5,8*%
%TO.N,GND*%
X124460000Y-99060000D03*
%TO.P,U5,15*%
%TO.N,SDA*%
X132080000Y-83820000D03*
%TO.P,U5,7*%
%TO.N,EXP4*%
X124460000Y-96520000D03*
%TO.P,U5,14*%
%TO.N,SCL*%
X132080000Y-86360000D03*
%TO.P,U5,6*%
%TO.N,EXP3*%
X124460000Y-93980000D03*
%TO.P,U5,13*%
%TO.N,C_INT*%
X132080000Y-88900000D03*
%TO.P,U5,5*%
%TO.N,EXP2*%
X124460000Y-91440000D03*
%TO.P,U5,12*%
%TO.N,EXP8*%
X132080000Y-91440000D03*
%TO.P,U5,4*%
%TO.N,EXP1*%
X124460000Y-88900000D03*
%TO.P,U5,11*%
%TO.N,EXP7*%
X132080000Y-93980000D03*
%TO.P,U5,3*%
%TO.N,GND*%
X124460000Y-86360000D03*
%TO.P,U5,10*%
%TO.N,EXP6*%
X132080000Y-96520000D03*
%TO.P,U5,2*%
%TO.N,GND*%
X124460000Y-83820000D03*
%TO.P,U5,9*%
%TO.N,EXP5*%
X132080000Y-99060000D03*
D16*
%TO.P,U5,1*%
%TO.N,GND*%
X124460000Y-81280000D03*
%TD*%
D15*
%TO.P,U4,16*%
%TO.N,+5V*%
X132080000Y-107188000D03*
%TO.P,U4,8*%
%TO.N,GND*%
X124460000Y-124968000D03*
%TO.P,U4,15*%
%TO.N,Net-(RL5-Pad5)*%
X132080000Y-109728000D03*
%TO.P,U4,7*%
%TO.N,Net-(CU4-2-Pad2)*%
X124460000Y-122428000D03*
%TO.P,U4,14*%
%TO.N,Net-(RL7-Pad4)*%
X132080000Y-112268000D03*
%TO.P,U4,6*%
%TO.N,DBOUT3*%
X124460000Y-119888000D03*
%TO.P,U4,13*%
%TO.N,Net-(U4-Pad13)*%
X132080000Y-114808000D03*
%TO.P,U4,5*%
%TO.N,DBIN2*%
X124460000Y-117348000D03*
%TO.P,U4,12*%
%TO.N,DBIN1*%
X132080000Y-117348000D03*
%TO.P,U4,4*%
%TO.N,DBOUT1*%
X124460000Y-114808000D03*
%TO.P,U4,11*%
%TO.N,DBOUT2*%
X132080000Y-119888000D03*
%TO.P,U4,3*%
%TO.N,Net-(U4-Pad3)*%
X124460000Y-112268000D03*
%TO.P,U4,10*%
%TO.N,DBIN3*%
X132080000Y-122428000D03*
%TO.P,U4,2*%
%TO.N,Net-(RL5-Pad4)*%
X124460000Y-109728000D03*
%TO.P,U4,9*%
%TO.N,Net-(CU4-2-Pad1)*%
X132080000Y-124968000D03*
D16*
%TO.P,U4,1*%
%TO.N,Net-(RL6-Pad4)*%
X124460000Y-107188000D03*
%TD*%
D21*
%TO.P,U3,8*%
%TO.N,Net-(RL9-Pad4)*%
X90548000Y-120622000D03*
%TO.P,U3,7*%
%TO.N,Net-(JU3-2-Pad1)*%
X90548000Y-117122000D03*
D17*
%TO.P,U3,6*%
%TO.N,Net-(RL9-Pad4)*%
X74414000Y-125699000D03*
%TO.P,U3,5*%
%TO.N,Net-(JU3-2-Pad1)*%
X74414000Y-123159000D03*
%TO.P,U3,4*%
%TO.N,SDA*%
X74414000Y-120619000D03*
%TO.P,U3,3*%
%TO.N,SCL*%
X74414000Y-118079000D03*
%TO.P,U3,2*%
%TO.N,GND*%
X74414000Y-115539000D03*
D18*
%TO.P,U3,1*%
%TO.N,+5V*%
X74414000Y-112999000D03*
%TD*%
D22*
%TO.P,U1,52*%
%TO.N,N/C*%
X97790000Y-61468000D03*
X93980000Y-61468000D03*
D13*
%TO.P,U1,1*%
%TO.N,GND*%
X104140000Y-53848000D03*
D14*
%TO.P,U1,2*%
%TO.N,TRX*%
X101600000Y-53848000D03*
%TO.P,U1,3*%
%TO.N,TTX*%
X99060000Y-53848000D03*
%TO.P,U1,4*%
%TO.N,Net-(RU1-1-Pad2)*%
X96520000Y-53848000D03*
%TO.P,U1,5*%
%TO.N,Net-(RU1-2-Pad2)*%
X93980000Y-53848000D03*
%TO.P,U1,6*%
%TO.N,Net-(RU1-3-Pad2)*%
X91440000Y-53848000D03*
%TO.P,U1,7*%
%TO.N,D5*%
X88900000Y-53848000D03*
%TO.P,U1,8*%
%TO.N,D6*%
X86360000Y-53848000D03*
%TO.P,U1,9*%
%TO.N,Net-(RU1-4-Pad2)*%
X83820000Y-53848000D03*
%TO.P,U1,10*%
%TO.N,Net-(RU1-5-Pad2)*%
X81280000Y-53848000D03*
%TO.P,U1,11*%
%TO.N,PDSS_RB0*%
X78740000Y-53848000D03*
%TO.P,U1,12*%
%TO.N,TNC1*%
X76200000Y-53848000D03*
%TO.P,U1,13*%
%TO.N,Net-(RU1-6-Pad2)*%
X73660000Y-53848000D03*
%TO.P,U1,37*%
%TO.N,N/C*%
X91440000Y-66548000D03*
%TO.P,U1,36*%
X93980000Y-66548000D03*
%TO.P,U1,35*%
X96520000Y-66548000D03*
%TO.P,U1,34*%
X101600000Y-66548000D03*
%TO.P,U1,33*%
%TO.N,+5V*%
X104140000Y-69088000D03*
%TO.P,U1,32*%
%TO.N,Net-(RU1-9-Pad1)*%
X101600000Y-69088000D03*
%TO.P,U1,31*%
%TO.N,Net-(JU1-4-Pad6)*%
X99060000Y-69088000D03*
%TO.P,U1,30*%
%TO.N,Net-(DU1-1-Pad1)*%
X96520000Y-69088000D03*
%TO.P,U1,29*%
%TO.N,TNC4*%
X93980000Y-69088000D03*
%TO.P,U1,28*%
%TO.N,TNC3*%
X91440000Y-69088000D03*
%TO.P,U1,27*%
%TO.N,C_INT*%
X88900000Y-69088000D03*
%TO.P,U1,26*%
%TO.N,SCL*%
X86360000Y-69088000D03*
%TO.P,U1,25*%
%TO.N,SDA*%
X83820000Y-69088000D03*
%TO.P,U1,24*%
%TO.N,ROTSW*%
X81280000Y-69088000D03*
%TO.P,U1,23*%
%TO.N,ROTB*%
X78740000Y-69088000D03*
%TO.P,U1,22*%
%TO.N,ROTA*%
X76200000Y-69088000D03*
%TO.P,U1,21*%
%TO.N,Net-(RU1-8-Pad2)*%
X73660000Y-69088000D03*
%TO.P,U1,14*%
%TO.N,TNC2*%
X71120000Y-53848000D03*
%TO.P,U1,15*%
%TO.N,N/C*%
X71120000Y-56388000D03*
%TO.P,U1,16*%
X71120000Y-58928000D03*
%TO.P,U1,20*%
%TO.N,Net-(RU1-7-Pad2)*%
X71120000Y-69088000D03*
%TO.P,U1,19*%
%TO.N,N/C*%
X71120000Y-66548000D03*
%TO.P,U1,18*%
X71120000Y-64008000D03*
%TO.P,U1,17*%
X71120000Y-61468000D03*
%TD*%
D23*
%TO.P,RU8-2,2*%
%TO.N,Net-(RU8-2-Pad2)*%
X184404000Y-77462000D03*
D24*
%TO.P,RU8-2,1*%
%TO.N,+5V*%
X176784000Y-77462000D03*
%TD*%
D23*
%TO.P,RU8-1,2*%
%TO.N,Net-(RU8-1-Pad2)*%
X184404000Y-74676000D03*
D24*
%TO.P,RU8-1,1*%
%TO.N,+5V*%
X176784000Y-74676000D03*
%TD*%
D23*
%TO.P,RU6-2,2*%
%TO.N,R_SWITCH*%
X143764000Y-77724000D03*
D24*
%TO.P,RU6-2,1*%
%TO.N,Net-(JU6-2-Pad2)*%
X136144000Y-77724000D03*
%TD*%
D23*
%TO.P,RU6-1,2*%
%TO.N,R_POWER*%
X143764000Y-74676000D03*
D24*
%TO.P,RU6-1,1*%
%TO.N,Net-(JU6-1-Pad2)*%
X136144000Y-74676000D03*
%TD*%
D23*
%TO.P,RU1-11,2*%
%TO.N,Net-(DU1-1-Pad1)*%
X161544000Y-50292000D03*
D24*
%TO.P,RU1-11,1*%
%TO.N,vsense*%
X169164000Y-50292000D03*
%TD*%
D23*
%TO.P,RU1-10,2*%
%TO.N,GND*%
X169164000Y-53340000D03*
D24*
%TO.P,RU1-10,1*%
%TO.N,Net-(DU1-1-Pad1)*%
X161544000Y-53340000D03*
%TD*%
D23*
%TO.P,RU1-9,2*%
%TO.N,GND*%
X118872000Y-73660000D03*
D24*
%TO.P,RU1-9,1*%
%TO.N,Net-(RU1-9-Pad1)*%
X111252000Y-73660000D03*
%TD*%
D23*
%TO.P,RU1-8,2*%
%TO.N,Net-(RU1-8-Pad2)*%
X118872000Y-71120000D03*
D24*
%TO.P,RU1-8,1*%
%TO.N,Net-(RU1-8-Pad1)*%
X111252000Y-71120000D03*
%TD*%
D23*
%TO.P,RU1-7,2*%
%TO.N,Net-(RU1-7-Pad2)*%
X118872000Y-68580000D03*
D24*
%TO.P,RU1-7,1*%
%TO.N,D5*%
X111252000Y-68580000D03*
%TD*%
D23*
%TO.P,RU1-6,2*%
%TO.N,Net-(RU1-6-Pad2)*%
X118872000Y-66040000D03*
D24*
%TO.P,RU1-6,1*%
%TO.N,Net-(RU1-6-Pad1)*%
X111252000Y-66040000D03*
%TD*%
D23*
%TO.P,RU1-5,2*%
%TO.N,Net-(RU1-5-Pad2)*%
X118872000Y-63500000D03*
D24*
%TO.P,RU1-5,1*%
%TO.N,Net-(RU1-5-Pad1)*%
X111252000Y-63500000D03*
%TD*%
D23*
%TO.P,RU1-4,2*%
%TO.N,Net-(RU1-4-Pad2)*%
X118872000Y-60960000D03*
D24*
%TO.P,RU1-4,1*%
%TO.N,Net-(RU1-4-Pad1)*%
X111252000Y-60960000D03*
%TD*%
D23*
%TO.P,RU1-3,2*%
%TO.N,Net-(RU1-3-Pad2)*%
X118872000Y-58420000D03*
D24*
%TO.P,RU1-3,1*%
%TO.N,D5*%
X111252000Y-58420000D03*
%TD*%
D23*
%TO.P,RU1-2,2*%
%TO.N,Net-(RU1-2-Pad2)*%
X118872000Y-55880000D03*
D24*
%TO.P,RU1-2,1*%
%TO.N,D5*%
X111252000Y-55880000D03*
%TD*%
D23*
%TO.P,RU1-1,2*%
%TO.N,Net-(RU1-1-Pad2)*%
X118872000Y-53340000D03*
D24*
%TO.P,RU1-1,1*%
%TO.N,D6*%
X111252000Y-53340000D03*
%TD*%
D23*
%TO.P,RU5,2*%
%TO.N,C_INT*%
X132080000Y-74168000D03*
D24*
%TO.P,RU5,1*%
%TO.N,+5V*%
X124460000Y-74168000D03*
%TD*%
D17*
%TO.P,RL9,8*%
%TO.N,R_POWER*%
X167132000Y-120396000D03*
%TO.P,RL9,7*%
%TO.N,Net-(RL9-Pad7)*%
X167132000Y-123596000D03*
%TO.P,RL9,6*%
%TO.N,PD_POWER*%
X167132000Y-125796000D03*
%TO.P,RL9,5*%
%TO.N,Net-(RL9-Pad4)*%
X167132000Y-127996000D03*
%TO.P,RL9,4*%
X172212000Y-127996000D03*
%TO.P,RL9,3*%
%TO.N,PD_POWER*%
X172212000Y-125796000D03*
%TO.P,RL9,2*%
%TO.N,Net-(RL9-Pad2)*%
X172212000Y-123596000D03*
%TO.P,RL9,1*%
%TO.N,+5V*%
X172212000Y-120396000D03*
%TD*%
%TO.P,RL8,8*%
%TO.N,R_STEP*%
X181864000Y-120396000D03*
%TO.P,RL8,7*%
%TO.N,Net-(RL8-Pad7)*%
X181864000Y-123596000D03*
%TO.P,RL8,6*%
%TO.N,S_PWR*%
X181864000Y-125796000D03*
%TO.P,RL8,5*%
%TO.N,vsense*%
X181864000Y-127996000D03*
%TO.P,RL8,4*%
%TO.N,Net-(J2-Pad2)*%
X186944000Y-127996000D03*
%TO.P,RL8,3*%
%TO.N,S_PWR*%
X186944000Y-125796000D03*
%TO.P,RL8,2*%
%TO.N,Net-(RL8-Pad2)*%
X186944000Y-123596000D03*
%TO.P,RL8,1*%
%TO.N,+5V*%
X186944000Y-120396000D03*
%TD*%
%TO.P,RL7,8*%
%TO.N,R_SWITCH*%
X151384000Y-105156000D03*
%TO.P,RL7,7*%
%TO.N,Net-(RL5-Pad7)*%
X151384000Y-108356000D03*
%TO.P,RL7,6*%
%TO.N,Net-(JU4-1-Pad3)*%
X151384000Y-110556000D03*
%TO.P,RL7,5*%
%TO.N,+5V*%
X151384000Y-112756000D03*
%TO.P,RL7,4*%
%TO.N,Net-(RL7-Pad4)*%
X156464000Y-112756000D03*
%TO.P,RL7,3*%
%TO.N,Net-(JU4-1-Pad4)*%
X156464000Y-110556000D03*
%TO.P,RL7,2*%
%TO.N,Net-(JU4-2-Pad4)*%
X156464000Y-108356000D03*
%TO.P,RL7,1*%
%TO.N,+5V*%
X156464000Y-105156000D03*
%TD*%
%TO.P,RL6,8*%
%TO.N,R_SWITCH*%
X151384000Y-120396000D03*
%TO.P,RL6,7*%
%TO.N,Net-(RL5-Pad2)*%
X151384000Y-123596000D03*
%TO.P,RL6,6*%
%TO.N,Net-(JU4-1-Pad2)*%
X151384000Y-125796000D03*
%TO.P,RL6,5*%
%TO.N,+5V*%
X151384000Y-127996000D03*
%TO.P,RL6,4*%
%TO.N,Net-(RL6-Pad4)*%
X156464000Y-127996000D03*
%TO.P,RL6,3*%
%TO.N,Net-(JU4-1-Pad1)*%
X156464000Y-125796000D03*
%TO.P,RL6,2*%
%TO.N,Net-(JU4-2-Pad1)*%
X156464000Y-123596000D03*
%TO.P,RL6,1*%
%TO.N,+5V*%
X156464000Y-120396000D03*
%TD*%
%TO.P,RL5,8*%
%TO.N,R_SWITCH*%
X151384000Y-89916000D03*
%TO.P,RL5,7*%
%TO.N,Net-(RL5-Pad7)*%
X151384000Y-93116000D03*
%TO.P,RL5,6*%
%TO.N,Net-(JU4-2-Pad2)*%
X151384000Y-95316000D03*
%TO.P,RL5,5*%
%TO.N,Net-(RL5-Pad5)*%
X151384000Y-97516000D03*
%TO.P,RL5,4*%
%TO.N,Net-(RL5-Pad4)*%
X156464000Y-97516000D03*
%TO.P,RL5,3*%
%TO.N,Net-(JU4-2-Pad3)*%
X156464000Y-95316000D03*
%TO.P,RL5,2*%
%TO.N,Net-(RL5-Pad2)*%
X156464000Y-93116000D03*
%TO.P,RL5,1*%
%TO.N,+5V*%
X156464000Y-89916000D03*
%TD*%
%TO.P,RL4,8*%
%TO.N,R_STEP*%
X181864000Y-89916000D03*
%TO.P,RL4,7*%
%TO.N,Net-(R4-2-Pad2)*%
X181864000Y-93116000D03*
%TO.P,RL4,6*%
%TO.N,Net-(J1-Pad8)*%
X181864000Y-95316000D03*
%TO.P,RL4,5*%
%TO.N,B2*%
X181864000Y-97516000D03*
%TO.P,RL4,4*%
%TO.N,B1*%
X186944000Y-97516000D03*
%TO.P,RL4,3*%
%TO.N,Net-(J1-Pad7)*%
X186944000Y-95316000D03*
%TO.P,RL4,2*%
%TO.N,Net-(R4-1-Pad2)*%
X186944000Y-93116000D03*
%TO.P,RL4,1*%
%TO.N,+5V*%
X186944000Y-89916000D03*
%TD*%
%TO.P,RL3,8*%
%TO.N,R_STEP*%
X181864000Y-105156000D03*
%TO.P,RL3,7*%
%TO.N,Net-(R3-2-Pad2)*%
X181864000Y-108356000D03*
%TO.P,RL3,6*%
%TO.N,Net-(J1-Pad6)*%
X181864000Y-110556000D03*
%TO.P,RL3,5*%
%TO.N,A2*%
X181864000Y-112756000D03*
%TO.P,RL3,4*%
%TO.N,A1*%
X186944000Y-112756000D03*
%TO.P,RL3,3*%
%TO.N,Net-(J1-Pad5)*%
X186944000Y-110556000D03*
%TO.P,RL3,2*%
%TO.N,Net-(R3-1-Pad2)*%
X186944000Y-108356000D03*
%TO.P,RL3,1*%
%TO.N,+5V*%
X186944000Y-105156000D03*
%TD*%
%TO.P,RL2,8*%
%TO.N,R_GPIO*%
X167132000Y-105156000D03*
%TO.P,RL2,7*%
%TO.N,EXP4*%
X167132000Y-108356000D03*
%TO.P,RL2,6*%
%TO.N,Net-(D2-2-Pad1)*%
X167132000Y-110556000D03*
%TO.P,RL2,5*%
%TO.N,D6*%
X167132000Y-112756000D03*
%TO.P,RL2,4*%
%TO.N,D5*%
X172212000Y-112756000D03*
%TO.P,RL2,3*%
%TO.N,Net-(D2-1-Pad1)*%
X172212000Y-110556000D03*
%TO.P,RL2,2*%
%TO.N,EXP3*%
X172212000Y-108356000D03*
%TO.P,RL2,1*%
%TO.N,+5V*%
X172212000Y-105156000D03*
%TD*%
%TO.P,RL1,8*%
%TO.N,R_SERIAL*%
X167132000Y-89916000D03*
%TO.P,RL1,7*%
%TO.N,EXP2*%
X167132000Y-93116000D03*
%TO.P,RL1,6*%
%TO.N,Net-(D1-2-Pad1)*%
X167132000Y-95316000D03*
%TO.P,RL1,5*%
%TO.N,TX*%
X167132000Y-97516000D03*
%TO.P,RL1,4*%
%TO.N,RX*%
X172212000Y-97516000D03*
%TO.P,RL1,3*%
%TO.N,Net-(D1-1-Pad1)*%
X172212000Y-95316000D03*
%TO.P,RL1,2*%
%TO.N,EXP1*%
X172212000Y-93116000D03*
%TO.P,RL1,1*%
%TO.N,+5V*%
X172212000Y-89916000D03*
%TD*%
D23*
%TO.P,R4-2,2*%
%TO.N,Net-(R4-2-Pad2)*%
X169164000Y-81788000D03*
D24*
%TO.P,R4-2,1*%
%TO.N,EXP8*%
X161544000Y-81788000D03*
%TD*%
D23*
%TO.P,R4-1,2*%
%TO.N,Net-(R4-1-Pad2)*%
X169164000Y-78232000D03*
D24*
%TO.P,R4-1,1*%
%TO.N,EXP7*%
X161544000Y-78232000D03*
%TD*%
D23*
%TO.P,R3-2,2*%
%TO.N,Net-(R3-2-Pad2)*%
X169164000Y-74676000D03*
D24*
%TO.P,R3-2,1*%
%TO.N,EXP6*%
X161544000Y-74676000D03*
%TD*%
D23*
%TO.P,R3-1,2*%
%TO.N,Net-(R3-1-Pad2)*%
X169164000Y-71120000D03*
D24*
%TO.P,R3-1,1*%
%TO.N,EXP5*%
X161544000Y-71120000D03*
%TD*%
D23*
%TO.P,R2-2,2*%
%TO.N,Net-(J1-Pad4)*%
X169164000Y-67564000D03*
D24*
%TO.P,R2-2,1*%
%TO.N,Net-(D2-2-Pad1)*%
X161544000Y-67564000D03*
%TD*%
D23*
%TO.P,R2-1,2*%
%TO.N,Net-(J1-Pad3)*%
X169164000Y-64008000D03*
D24*
%TO.P,R2-1,1*%
%TO.N,Net-(D2-1-Pad1)*%
X161544000Y-64008000D03*
%TD*%
D23*
%TO.P,R1-2,2*%
%TO.N,Net-(J1-Pad2)*%
X169164000Y-60452000D03*
D24*
%TO.P,R1-2,1*%
%TO.N,Net-(D1-2-Pad1)*%
X161544000Y-60452000D03*
%TD*%
D23*
%TO.P,R1-1,2*%
%TO.N,Net-(J1-Pad1)*%
X169164000Y-56896000D03*
D24*
%TO.P,R1-1,1*%
%TO.N,Net-(D1-1-Pad1)*%
X161544000Y-56896000D03*
%TD*%
D19*
%TO.P,JU6-2,2*%
%TO.N,Net-(JU6-2-Pad2)*%
X195072000Y-127000000D03*
D20*
%TO.P,JU6-2,1*%
%TO.N,+5V*%
X195072000Y-124460000D03*
%TD*%
D19*
%TO.P,JU6-1,2*%
%TO.N,Net-(JU6-1-Pad2)*%
X102616000Y-129032000D03*
D20*
%TO.P,JU6-1,1*%
%TO.N,+5V*%
X100076000Y-129032000D03*
%TD*%
D19*
%TO.P,JU4-3,8*%
%TO.N,GND*%
X138176000Y-124968000D03*
%TO.P,JU4-3,7*%
%TO.N,DBOUT3*%
X138176000Y-122428000D03*
%TO.P,JU4-3,6*%
%TO.N,DBIN3*%
X138176000Y-119888000D03*
%TO.P,JU4-3,5*%
%TO.N,DBOUT2*%
X138176000Y-117348000D03*
%TO.P,JU4-3,4*%
%TO.N,DBIN2*%
X138176000Y-114808000D03*
%TO.P,JU4-3,3*%
%TO.N,DBOUT1*%
X138176000Y-112268000D03*
%TO.P,JU4-3,2*%
%TO.N,DBIN1*%
X138176000Y-109728000D03*
D20*
%TO.P,JU4-3,1*%
%TO.N,+5V*%
X138176000Y-107188000D03*
%TD*%
D19*
%TO.P,JU4-2,4*%
%TO.N,Net-(JU4-2-Pad4)*%
X143764000Y-114808000D03*
%TO.P,JU4-2,3*%
%TO.N,Net-(JU4-2-Pad3)*%
X143764000Y-112268000D03*
%TO.P,JU4-2,2*%
%TO.N,Net-(JU4-2-Pad2)*%
X143764000Y-109728000D03*
D20*
%TO.P,JU4-2,1*%
%TO.N,Net-(JU4-2-Pad1)*%
X143764000Y-107188000D03*
%TD*%
D19*
%TO.P,JU4-1,4*%
%TO.N,Net-(JU4-1-Pad4)*%
X143764000Y-128016000D03*
%TO.P,JU4-1,3*%
%TO.N,Net-(JU4-1-Pad3)*%
X143764000Y-125476000D03*
%TO.P,JU4-1,2*%
%TO.N,Net-(JU4-1-Pad2)*%
X143764000Y-122936000D03*
D20*
%TO.P,JU4-1,1*%
%TO.N,Net-(JU4-1-Pad1)*%
X143764000Y-120396000D03*
%TD*%
D25*
%TO.P,JU3-2,2*%
%TO.N,GND*%
X99432000Y-116840000D03*
%TO.P,JU3-2,1*%
%TO.N,Net-(JU3-2-Pad1)*%
%TA.AperFunction,ComponentPad*%
G36*
G01*
X104557000Y-116164999D02*
X104557000Y-117515001D01*
G75*
G02*
X104307001Y-117765000I-249999J0D01*
G01*
X102956999Y-117765000D01*
G75*
G02*
X102707000Y-117515001I0J249999D01*
G01*
X102707000Y-116164999D01*
G75*
G02*
X102956999Y-115915000I249999J0D01*
G01*
X104307001Y-115915000D01*
G75*
G02*
X104557000Y-116164999I0J-249999D01*
G01*
G37*
%TD.AperFunction*%
%TD*%
%TO.P,JU3-1,2*%
%TO.N,GND*%
X99432000Y-121920000D03*
%TO.P,JU3-1,1*%
%TO.N,PD_POWER*%
%TA.AperFunction,ComponentPad*%
G36*
G01*
X104557000Y-121244999D02*
X104557000Y-122595001D01*
G75*
G02*
X104307001Y-122845000I-249999J0D01*
G01*
X102956999Y-122845000D01*
G75*
G02*
X102707000Y-122595001I0J249999D01*
G01*
X102707000Y-121244999D01*
G75*
G02*
X102956999Y-120995000I249999J0D01*
G01*
X104307001Y-120995000D01*
G75*
G02*
X104557000Y-121244999I0J-249999D01*
G01*
G37*
%TD.AperFunction*%
%TD*%
D20*
%TO.P,JU2-1,1*%
%TO.N,PDSS_RB0*%
X84836000Y-74676000D03*
%TD*%
D19*
%TO.P,JU1-4,6*%
%TO.N,Net-(JU1-4-Pad6)*%
X103632000Y-74676000D03*
%TO.P,JU1-4,5*%
%TO.N,TNC4*%
X101092000Y-74676000D03*
%TO.P,JU1-4,4*%
%TO.N,TNC3*%
X98552000Y-74676000D03*
%TO.P,JU1-4,3*%
%TO.N,TNC2*%
X96012000Y-74676000D03*
%TO.P,JU1-4,2*%
%TO.N,TNC1*%
X93472000Y-74676000D03*
D20*
%TO.P,JU1-4,1*%
%TO.N,GND*%
X90932000Y-74676000D03*
%TD*%
D19*
%TO.P,JU1-3,4*%
%TO.N,GND*%
X78740000Y-74676000D03*
%TO.P,JU1-3,3*%
%TO.N,TRX*%
X76200000Y-74676000D03*
%TO.P,JU1-3,2*%
%TO.N,TTX*%
X73660000Y-74676000D03*
D20*
%TO.P,JU1-3,1*%
%TO.N,+5V*%
X71120000Y-74676000D03*
%TD*%
D19*
%TO.P,JU1-2,5*%
%TO.N,ROTSW*%
X195072000Y-76708000D03*
%TO.P,JU1-2,4*%
%TO.N,GND*%
X195072000Y-74168000D03*
%TO.P,JU1-2,3*%
X195072000Y-71628000D03*
%TO.P,JU1-2,2*%
%TO.N,ROTB*%
X195072000Y-69088000D03*
D20*
%TO.P,JU1-2,1*%
%TO.N,ROTA*%
X195072000Y-66548000D03*
%TD*%
D19*
%TO.P,JU1-1,4*%
%TO.N,GND*%
X195072000Y-117348000D03*
%TO.P,JU1-1,3*%
%TO.N,+5V*%
X195072000Y-114808000D03*
%TO.P,JU1-1,2*%
%TO.N,SCL*%
X195072000Y-112268000D03*
D20*
%TO.P,JU1-1,1*%
%TO.N,SDA*%
X195072000Y-109728000D03*
%TD*%
D25*
%TO.P,J2,2*%
%TO.N,Net-(J2-Pad2)*%
X195072000Y-55744000D03*
%TO.P,J2,1*%
%TO.N,vsense*%
%TA.AperFunction,ComponentPad*%
G36*
G01*
X195747001Y-60869000D02*
X194396999Y-60869000D01*
G75*
G02*
X194147000Y-60619001I0J249999D01*
G01*
X194147000Y-59268999D01*
G75*
G02*
X194396999Y-59019000I249999J0D01*
G01*
X195747001Y-59019000D01*
G75*
G02*
X195997000Y-59268999I0J-249999D01*
G01*
X195997000Y-60619001D01*
G75*
G02*
X195747001Y-60869000I-249999J0D01*
G01*
G37*
%TD.AperFunction*%
%TD*%
D19*
%TO.P,J1,8*%
%TO.N,Net-(J1-Pad8)*%
X195072000Y-101600000D03*
%TO.P,J1,7*%
%TO.N,Net-(J1-Pad7)*%
X195072000Y-99060000D03*
%TO.P,J1,6*%
%TO.N,Net-(J1-Pad6)*%
X195072000Y-96520000D03*
%TO.P,J1,5*%
%TO.N,Net-(J1-Pad5)*%
X195072000Y-93980000D03*
%TO.P,J1,4*%
%TO.N,Net-(J1-Pad4)*%
X195072000Y-91440000D03*
%TO.P,J1,3*%
%TO.N,Net-(J1-Pad3)*%
X195072000Y-88900000D03*
%TO.P,J1,2*%
%TO.N,Net-(J1-Pad2)*%
X195072000Y-86360000D03*
D20*
%TO.P,J1,1*%
%TO.N,Net-(J1-Pad1)*%
X195072000Y-83820000D03*
%TD*%
D26*
%TO.P,DU1-1,2*%
%TO.N,GND*%
X150876000Y-53340000D03*
D27*
%TO.P,DU1-1,1*%
%TO.N,Net-(DU1-1-Pad1)*%
X158496000Y-53340000D03*
%TD*%
D26*
%TO.P,D4-2,2*%
%TO.N,GND*%
X150876000Y-81788000D03*
D27*
%TO.P,D4-2,1*%
%TO.N,EXP8*%
X158496000Y-81788000D03*
%TD*%
D26*
%TO.P,D4-1,2*%
%TO.N,GND*%
X150876000Y-78232000D03*
D27*
%TO.P,D4-1,1*%
%TO.N,EXP7*%
X158496000Y-78232000D03*
%TD*%
D26*
%TO.P,D3-2,2*%
%TO.N,GND*%
X150876000Y-74676000D03*
D27*
%TO.P,D3-2,1*%
%TO.N,EXP6*%
X158496000Y-74676000D03*
%TD*%
D26*
%TO.P,D3-1,2*%
%TO.N,GND*%
X150876000Y-71120000D03*
D27*
%TO.P,D3-1,1*%
%TO.N,EXP5*%
X158496000Y-71120000D03*
%TD*%
D26*
%TO.P,D2-2,2*%
%TO.N,GND*%
X150876000Y-67564000D03*
D27*
%TO.P,D2-2,1*%
%TO.N,Net-(D2-2-Pad1)*%
X158496000Y-67564000D03*
%TD*%
D26*
%TO.P,D2-1,2*%
%TO.N,GND*%
X150876000Y-64008000D03*
D27*
%TO.P,D2-1,1*%
%TO.N,Net-(D2-1-Pad1)*%
X158496000Y-64008000D03*
%TD*%
D26*
%TO.P,D1-2,2*%
%TO.N,GND*%
X150876000Y-60452000D03*
D27*
%TO.P,D1-2,1*%
%TO.N,Net-(D1-2-Pad1)*%
X158496000Y-60452000D03*
%TD*%
D26*
%TO.P,D1-1,2*%
%TO.N,GND*%
X150876000Y-56896000D03*
D27*
%TO.P,D1-1,1*%
%TO.N,Net-(D1-1-Pad1)*%
X158496000Y-56896000D03*
%TD*%
D12*
%TO.P,CU4-2,2*%
%TO.N,Net-(CU4-2-Pad2)*%
X124580000Y-128524000D03*
D14*
%TO.P,CU4-2,1*%
%TO.N,Net-(CU4-2-Pad1)*%
X132080000Y-128524000D03*
%TD*%
D12*
%TO.P,CU7,2*%
%TO.N,GND*%
X124580000Y-49276000D03*
D14*
%TO.P,CU7,1*%
%TO.N,+5V*%
X132080000Y-49276000D03*
%TD*%
D12*
%TO.P,CU6,2*%
%TO.N,GND*%
X143644000Y-49276000D03*
D14*
%TO.P,CU6,1*%
%TO.N,+5V*%
X136144000Y-49276000D03*
%TD*%
D12*
%TO.P,CU5,2*%
%TO.N,GND*%
X124580000Y-77724000D03*
D14*
%TO.P,CU5,1*%
%TO.N,+5V*%
X132080000Y-77724000D03*
%TD*%
D12*
%TO.P,CU4,2*%
%TO.N,GND*%
X124580000Y-103124000D03*
D14*
%TO.P,CU4,1*%
%TO.N,+5V*%
X132080000Y-103124000D03*
%TD*%
D28*
%TO.N,C_INT*%
X127221900Y-61709400D03*
%TO.N,R_STEP*%
X179749300Y-105588000D03*
%TO.N,R_SERIAL*%
X150129400Y-65830500D03*
%TO.N,R_GPIO*%
X150146200Y-83414700D03*
%TO.N,Net-(RL5-Pad7)*%
X150282200Y-100970100D03*
%TO.N,D6*%
X148750200Y-84210900D03*
X160475400Y-91739600D03*
%TO.N,Net-(RL5-Pad2)*%
X154560400Y-119638700D03*
X158329000Y-94981000D03*
%TO.N,R_SWITCH*%
X151384000Y-100980700D03*
%TO.N,R_POWER*%
X163830200Y-91758200D03*
%TO.N,SDA*%
X131740800Y-76320500D03*
X91138400Y-64268900D03*
%TO.N,SCL*%
X134358900Y-78907300D03*
X134704000Y-101229500D03*
%TO.N,Net-(JU6-1-Pad2)*%
X134229800Y-89016800D03*
X111519400Y-125476300D03*
%TO.N,Net-(JU6-2-Pad2)*%
X165349000Y-91740800D03*
%TO.N,Net-(R3-1-Pad2)*%
X175767200Y-59690000D03*
%TO.N,Net-(R3-2-Pad2)*%
X175381600Y-76171000D03*
%TO.N,Net-(RU1-4-Pad1)*%
X97903500Y-79694900D03*
%TO.N,Net-(RU1-5-Pad1)*%
X98410600Y-81054200D03*
%TO.N,Net-(RU1-6-Pad1)*%
X103072000Y-77711700D03*
%TO.N,Net-(RU1-7-Pad2)*%
X109610900Y-76815800D03*
%TO.N,Net-(RU1-8-Pad2)*%
X112940800Y-76025900D03*
%TO.N,Net-(RU1-8-Pad1)*%
X103297900Y-78882700D03*
%TO.N,EXP5*%
X134858000Y-87498300D03*
%TO.N,EXP6*%
X135222000Y-88499200D03*
%TO.N,EXP7*%
X121715200Y-95105400D03*
X134060900Y-90246700D03*
%TO.N,EXP3*%
X152923100Y-100564700D03*
%TO.N,C_STEP*%
X121193900Y-87574100D03*
%TO.N,C_GPIO*%
X121333300Y-83730800D03*
%TO.N,C_POWER*%
X122001300Y-82412400D03*
X126422700Y-78636000D03*
%TD*%
D29*
%TO.N,S_DIR*%
X132080000Y-63500000D02*
X129200200Y-63500000D01*
X129200200Y-63500000D02*
X125390200Y-67310000D01*
X125390200Y-67310000D02*
X123712900Y-67310000D01*
X123712900Y-67310000D02*
X122900800Y-68122100D01*
X122900800Y-68122100D02*
X122900800Y-69012700D01*
X122900800Y-69012700D02*
X123738100Y-69850000D01*
X123738100Y-69850000D02*
X125227800Y-69850000D01*
X125227800Y-69850000D02*
X126427600Y-71049800D01*
X126427600Y-71049800D02*
X126427600Y-74958700D01*
X126427600Y-74958700D02*
X124942200Y-76444100D01*
X124942200Y-76444100D02*
X124179200Y-76444100D01*
X124179200Y-76444100D02*
X118872000Y-81751300D01*
X118872000Y-81751300D02*
X118872000Y-86360000D01*
X186944000Y-53340000D02*
X185818700Y-53340000D01*
X132080000Y-63500000D02*
X132236900Y-63500000D01*
X132236900Y-63500000D02*
X134268900Y-61468000D01*
X134268900Y-61468000D02*
X134268900Y-60802400D01*
X134268900Y-60802400D02*
X135381300Y-59690000D01*
X135381300Y-59690000D02*
X138495900Y-59690000D01*
X138495900Y-59690000D02*
X141035900Y-57150000D01*
X141035900Y-57150000D02*
X145289400Y-57150000D01*
X145289400Y-57150000D02*
X147690000Y-54749400D01*
X147690000Y-54749400D02*
X151651100Y-54749400D01*
X151651100Y-54749400D02*
X157160300Y-49240200D01*
X157160300Y-49240200D02*
X181718900Y-49240200D01*
X181718900Y-49240200D02*
X185818700Y-53340000D01*
%TO.N,S_STEP*%
X118872000Y-87774700D02*
X119153400Y-87774700D01*
X119153400Y-87774700D02*
X122713700Y-84214400D01*
X122713700Y-84214400D02*
X122713700Y-83546500D01*
X122713700Y-83546500D02*
X123854800Y-82405400D01*
X123854800Y-82405400D02*
X125804900Y-82405400D01*
X125804900Y-82405400D02*
X127772200Y-80438100D01*
X127772200Y-80438100D02*
X127772200Y-70781300D01*
X127772200Y-70781300D02*
X132513500Y-66040000D01*
X186944000Y-55880000D02*
X180130000Y-55880000D01*
X180130000Y-55880000D02*
X175564000Y-51314000D01*
X175564000Y-51314000D02*
X172936100Y-51314000D01*
X172936100Y-51314000D02*
X172542500Y-51707600D01*
X172542500Y-51707600D02*
X156344400Y-51707600D01*
X156344400Y-51707600D02*
X152545100Y-55506900D01*
X152545100Y-55506900D02*
X148825500Y-55506900D01*
X148825500Y-55506900D02*
X144642400Y-59690000D01*
X144642400Y-59690000D02*
X142006400Y-59690000D01*
X142006400Y-59690000D02*
X136888200Y-64808200D01*
X136888200Y-64808200D02*
X134837100Y-64808200D01*
X134837100Y-64808200D02*
X133605300Y-66040000D01*
X118872000Y-88900000D02*
X118872000Y-87774700D01*
X132513500Y-66040000D02*
X133605300Y-66040000D01*
X132080000Y-66040000D02*
X132513500Y-66040000D01*
%TO.N,GND*%
X101854000Y-98806000D02*
X101854000Y-98903600D01*
X101854000Y-98903600D02*
X111045100Y-108094700D01*
X111045100Y-108094700D02*
X111252000Y-108094700D01*
X111252000Y-109220000D02*
X111252000Y-108094700D01*
X186944000Y-68580000D02*
X192024000Y-68580000D01*
X192024000Y-68580000D02*
X195072000Y-71628000D01*
%TO.N,+5V*%
X100076000Y-129032000D02*
X104140000Y-124968000D01*
X104140000Y-124968000D02*
X109220000Y-124968000D01*
X109220000Y-124968000D02*
X111252000Y-122936000D01*
X172212000Y-89916000D02*
X172212000Y-82034000D01*
X172212000Y-82034000D02*
X176784000Y-77462000D01*
X186944000Y-89916000D02*
X185857000Y-91003000D01*
X185857000Y-91003000D02*
X185857000Y-104069000D01*
X176784000Y-74676000D02*
X176784000Y-58420000D01*
X176784000Y-58420000D02*
X174244000Y-55880000D01*
X132080000Y-77724000D02*
X132080000Y-77223000D01*
X132080000Y-77223000D02*
X138183000Y-71120000D01*
X138183000Y-71120000D02*
X143764000Y-71120000D01*
X132080000Y-81280000D02*
X132080000Y-77724000D01*
X124460000Y-74168000D02*
X123760000Y-74868000D01*
X123760000Y-74868000D02*
X109920000Y-74868000D01*
X109920000Y-74868000D02*
X104140000Y-69088000D01*
X74414000Y-112999000D02*
X75025000Y-112388000D01*
X71120000Y-75184000D02*
X71120000Y-74676000D01*
X100076000Y-129032000D02*
X98182000Y-127138000D01*
X98182000Y-127138000D02*
X98182000Y-121320000D01*
X98182000Y-121320000D02*
X98321000Y-121181000D01*
X98321000Y-121181000D02*
X96247000Y-119107000D01*
X96247000Y-119107000D02*
X90151000Y-119107000D01*
X90151000Y-119107000D02*
X84043000Y-112999000D01*
X84043000Y-112999000D02*
X74414000Y-112999000D01*
X186944000Y-120396000D02*
X191008000Y-120396000D01*
X191008000Y-120396000D02*
X195072000Y-124460000D01*
X172212000Y-105156000D02*
X173299000Y-104069000D01*
X173299000Y-104069000D02*
X185857000Y-104069000D01*
X185857000Y-104069000D02*
X186944000Y-105156000D01*
%TO.N,S_SLEEP*%
X119997300Y-91440000D02*
X121122600Y-90314700D01*
X121122600Y-90314700D02*
X125086500Y-90314700D01*
X125086500Y-90314700D02*
X129428700Y-85972500D01*
X129428700Y-85972500D02*
X129428700Y-75295700D01*
X129428700Y-75295700D02*
X132150700Y-72573700D01*
X132150700Y-72573700D02*
X132649000Y-72573700D01*
X132649000Y-72573700D02*
X133605300Y-71617400D01*
X133605300Y-71617400D02*
X133605300Y-69770600D01*
X118872000Y-91440000D02*
X119997300Y-91440000D01*
X186944000Y-71120000D02*
X186944000Y-73658000D01*
X186944000Y-73658000D02*
X184900600Y-75701400D01*
X184900600Y-75701400D02*
X183934700Y-75701400D01*
X183934700Y-75701400D02*
X182708700Y-74475400D01*
X182708700Y-74475400D02*
X182708700Y-59095600D01*
X182708700Y-59095600D02*
X175377500Y-51764400D01*
X175377500Y-51764400D02*
X173122600Y-51764400D01*
X173122600Y-51764400D02*
X172672400Y-52214600D01*
X172672400Y-52214600D02*
X167794000Y-52214600D01*
X167794000Y-52214600D02*
X164788400Y-55220200D01*
X164788400Y-55220200D02*
X154284800Y-55220200D01*
X154284800Y-55220200D02*
X147275000Y-62230000D01*
X147275000Y-62230000D02*
X142992700Y-62230000D01*
X142992700Y-62230000D02*
X141347600Y-63875100D01*
X141347600Y-63875100D02*
X141347600Y-65389400D01*
X141347600Y-65389400D02*
X136966400Y-69770600D01*
X136966400Y-69770600D02*
X133605300Y-69770600D01*
X133605300Y-69770600D02*
X133605300Y-68580000D01*
X132080000Y-68580000D02*
X133605300Y-68580000D01*
%TO.N,Net-(J1-Pad8)*%
X181864000Y-95316000D02*
X179826300Y-95316000D01*
X179826300Y-95316000D02*
X170668700Y-104473600D01*
X170668700Y-104473600D02*
X170668700Y-105859300D01*
X170668700Y-105859300D02*
X171525200Y-106715800D01*
X171525200Y-106715800D02*
X188780900Y-106715800D01*
X188780900Y-106715800D02*
X193896700Y-101600000D01*
X195072000Y-101600000D02*
X193896700Y-101600000D01*
%TO.N,Net-(J1-Pad7)*%
X195072000Y-99060000D02*
X190688000Y-99060000D01*
X190688000Y-99060000D02*
X186944000Y-95316000D01*
%TO.N,Net-(J1-Pad6)*%
X195072000Y-97695300D02*
X195401400Y-97695300D01*
X195401400Y-97695300D02*
X196264300Y-98558200D01*
X196264300Y-98558200D02*
X196264300Y-102085700D01*
X196264300Y-102085700D02*
X191143700Y-107206300D01*
X191143700Y-107206300D02*
X185213700Y-107206300D01*
X185213700Y-107206300D02*
X181864000Y-110556000D01*
X195072000Y-96520000D02*
X195072000Y-97695300D01*
%TO.N,Net-(J1-Pad5)*%
X195072000Y-93980000D02*
X195072000Y-95155300D01*
X195072000Y-95155300D02*
X195439300Y-95155300D01*
X195439300Y-95155300D02*
X196728500Y-96444500D01*
X196728500Y-96444500D02*
X196728500Y-102298200D01*
X196728500Y-102298200D02*
X188470700Y-110556000D01*
X188470700Y-110556000D02*
X186944000Y-110556000D01*
%TO.N,Net-(J1-Pad4)*%
X169164000Y-68589300D02*
X168138700Y-69614600D01*
X168138700Y-69614600D02*
X168138700Y-75108000D01*
X168138700Y-75108000D02*
X169971500Y-76940800D01*
X169971500Y-76940800D02*
X175855100Y-76940800D01*
X175855100Y-76940800D02*
X176411300Y-76384600D01*
X176411300Y-76384600D02*
X178841300Y-76384600D01*
X178841300Y-76384600D02*
X193896700Y-91440000D01*
X195072000Y-91440000D02*
X193896700Y-91440000D01*
X169164000Y-67564000D02*
X169164000Y-68589300D01*
%TO.N,Net-(J1-Pad3)*%
X169164000Y-64008000D02*
X169164000Y-65033300D01*
X195072000Y-88900000D02*
X193100000Y-88900000D01*
X193100000Y-88900000D02*
X180134200Y-75934200D01*
X180134200Y-75934200D02*
X176586300Y-75934200D01*
X176586300Y-75934200D02*
X173118600Y-72466500D01*
X173118600Y-72466500D02*
X173118600Y-68987900D01*
X173118600Y-68987900D02*
X169164000Y-65033300D01*
%TO.N,Net-(J1-Pad2)*%
X169164000Y-60452000D02*
X169164000Y-59426700D01*
X195072000Y-86360000D02*
X195072000Y-85184700D01*
X195072000Y-85184700D02*
X195880000Y-85184700D01*
X195880000Y-85184700D02*
X196247400Y-84817300D01*
X196247400Y-84817300D02*
X196247400Y-82791500D01*
X196247400Y-82791500D02*
X192513300Y-79057400D01*
X192513300Y-79057400D02*
X184531300Y-79057400D01*
X184531300Y-79057400D02*
X181622100Y-76148200D01*
X181622100Y-76148200D02*
X181622100Y-58646000D01*
X181622100Y-58646000D02*
X175190800Y-52214700D01*
X175190800Y-52214700D02*
X173309200Y-52214700D01*
X173309200Y-52214700D02*
X170405900Y-55118000D01*
X170405900Y-55118000D02*
X169415600Y-55118000D01*
X169415600Y-55118000D02*
X168138700Y-56394900D01*
X168138700Y-56394900D02*
X168138700Y-58401400D01*
X168138700Y-58401400D02*
X169164000Y-59426700D01*
%TO.N,Net-(J1-Pad1)*%
X170189300Y-56896000D02*
X172367800Y-54717500D01*
X172367800Y-54717500D02*
X174695000Y-54717500D01*
X174695000Y-54717500D02*
X177845600Y-57868100D01*
X177845600Y-57868100D02*
X177845600Y-73008700D01*
X177845600Y-73008700D02*
X188656900Y-83820000D01*
X188656900Y-83820000D02*
X195072000Y-83820000D01*
X169164000Y-56896000D02*
X170189300Y-56896000D01*
%TO.N,C_INT*%
X132080000Y-88900000D02*
X130554700Y-88900000D01*
X132080000Y-74168000D02*
X132080000Y-75193300D01*
X132080000Y-75193300D02*
X131823700Y-75193300D01*
X131823700Y-75193300D02*
X130091300Y-76925700D01*
X130091300Y-76925700D02*
X130091300Y-88436600D01*
X130091300Y-88436600D02*
X130554700Y-88900000D01*
X88900000Y-69088000D02*
X90170000Y-67818000D01*
X90170000Y-67818000D02*
X102233100Y-67818000D01*
X102233100Y-67818000D02*
X102542200Y-67508900D01*
X102542200Y-67508900D02*
X118950100Y-67508900D01*
X118950100Y-67508900D02*
X120228800Y-66230200D01*
X120228800Y-66230200D02*
X120228800Y-65685300D01*
X120228800Y-65685300D02*
X123684100Y-62230000D01*
X123684100Y-62230000D02*
X126701300Y-62230000D01*
X126701300Y-62230000D02*
X127221900Y-61709400D01*
%TO.N,R_STEP*%
X143764000Y-63500000D02*
X149561000Y-63500000D01*
X149561000Y-63500000D02*
X157390400Y-55670600D01*
X157390400Y-55670600D02*
X161795600Y-55670600D01*
X161795600Y-55670600D02*
X167462100Y-61337100D01*
X167462100Y-61337100D02*
X167462100Y-78354500D01*
X167462100Y-78354500D02*
X170620600Y-81513000D01*
X170620600Y-81513000D02*
X170620600Y-90524100D01*
X170620600Y-90524100D02*
X171604400Y-91507900D01*
X171604400Y-91507900D02*
X180990900Y-91507900D01*
X180990900Y-91507900D02*
X181441200Y-91057600D01*
X181864000Y-89916000D02*
X181441200Y-90338800D01*
X181441200Y-90338800D02*
X181441200Y-91057600D01*
X179749300Y-105588000D02*
X179088200Y-106249100D01*
X179088200Y-106249100D02*
X171695400Y-106249100D01*
X171695400Y-106249100D02*
X171119000Y-105672700D01*
X171119000Y-105672700D02*
X171119000Y-104660200D01*
X171119000Y-104660200D02*
X179363200Y-96416000D01*
X179363200Y-96416000D02*
X182341100Y-96416000D01*
X182341100Y-96416000D02*
X182992600Y-95764500D01*
X182992600Y-95764500D02*
X182992600Y-92609000D01*
X182992600Y-92609000D02*
X181441200Y-91057600D01*
X181864000Y-105156000D02*
X180181300Y-105156000D01*
X180181300Y-105156000D02*
X179749300Y-105588000D01*
%TO.N,R_SERIAL*%
X150129400Y-65830500D02*
X151602300Y-65830500D01*
X151602300Y-65830500D02*
X155164300Y-69392500D01*
X155164300Y-69392500D02*
X161322700Y-69392500D01*
X161322700Y-69392500D02*
X164321900Y-72391700D01*
X164321900Y-72391700D02*
X164321900Y-87106000D01*
X164321900Y-87106000D02*
X164322000Y-87106000D01*
X164322000Y-87106000D02*
X167132000Y-89916000D01*
%TO.N,TX*%
X167132000Y-97516000D02*
X168236100Y-98620100D01*
X168236100Y-98620100D02*
X168236100Y-108815000D01*
X168236100Y-108815000D02*
X167595100Y-109456000D01*
X167595100Y-109456000D02*
X166668000Y-109456000D01*
X166668000Y-109456000D02*
X159593300Y-102381300D01*
X159593300Y-102381300D02*
X159593300Y-94682700D01*
X159593300Y-94682700D02*
X156914200Y-92003600D01*
X156914200Y-92003600D02*
X141901100Y-92003600D01*
X141901100Y-92003600D02*
X133184600Y-100720100D01*
X133184600Y-100720100D02*
X130270900Y-100720100D01*
X130270900Y-100720100D02*
X125886400Y-105104600D01*
X125886400Y-105104600D02*
X122404300Y-105104600D01*
X122404300Y-105104600D02*
X122237400Y-105271500D01*
X122237400Y-105271500D02*
X117458800Y-105271500D01*
X117458800Y-105271500D02*
X112517300Y-100330000D01*
X112517300Y-100330000D02*
X109845200Y-100330000D01*
X109845200Y-100330000D02*
X106765300Y-97250100D01*
X106765300Y-97250100D02*
X71341300Y-97250100D01*
X71341300Y-97250100D02*
X69921300Y-98670100D01*
X69921300Y-98670100D02*
X69921300Y-98806000D01*
X68834000Y-98806000D02*
X69921300Y-98806000D01*
%TO.N,RX*%
X172212000Y-97516000D02*
X169730200Y-99997800D01*
X169730200Y-99997800D02*
X169730200Y-109566800D01*
X169730200Y-109566800D02*
X167641000Y-111656000D01*
X167641000Y-111656000D02*
X166643200Y-111656000D01*
X166643200Y-111656000D02*
X157575600Y-102588400D01*
X157575600Y-102588400D02*
X157575600Y-94864500D01*
X157575600Y-94864500D02*
X156927100Y-94216000D01*
X156927100Y-94216000D02*
X140679400Y-94216000D01*
X140679400Y-94216000D02*
X133612400Y-101283000D01*
X133612400Y-101283000D02*
X130345000Y-101283000D01*
X130345000Y-101283000D02*
X126073000Y-105555000D01*
X126073000Y-105555000D02*
X122590900Y-105555000D01*
X122590900Y-105555000D02*
X120317500Y-107828400D01*
X120317500Y-107828400D02*
X117709100Y-107828400D01*
X117709100Y-107828400D02*
X112824100Y-102943400D01*
X112824100Y-102943400D02*
X110069200Y-102943400D01*
X110069200Y-102943400D02*
X104844500Y-97718700D01*
X104844500Y-97718700D02*
X72461300Y-97718700D01*
X72461300Y-97718700D02*
X71374000Y-98806000D01*
%TO.N,R_GPIO*%
X150146200Y-83414700D02*
X154461000Y-83414700D01*
X154461000Y-83414700D02*
X163540900Y-92494600D01*
X163540900Y-92494600D02*
X165949400Y-92494600D01*
X165949400Y-92494600D02*
X166427100Y-92016900D01*
X166427100Y-92016900D02*
X167620000Y-92016900D01*
X167620000Y-92016900D02*
X168230800Y-92627700D01*
X168230800Y-92627700D02*
X168230800Y-93579300D01*
X168230800Y-93579300D02*
X167594100Y-94216000D01*
X167594100Y-94216000D02*
X166623000Y-94216000D01*
X166623000Y-94216000D02*
X166044600Y-94794400D01*
X166044600Y-94794400D02*
X166044600Y-104068600D01*
X166044600Y-104068600D02*
X167132000Y-105156000D01*
%TO.N,Net-(RL5-Pad7)*%
X151384000Y-108356000D02*
X150282200Y-107254200D01*
X150282200Y-107254200D02*
X150282200Y-100970100D01*
%TO.N,D6*%
X160475400Y-91739600D02*
X152946700Y-84210900D01*
X152946700Y-84210900D02*
X148750200Y-84210900D01*
X111252000Y-53340000D02*
X110183700Y-52271700D01*
X110183700Y-52271700D02*
X87936300Y-52271700D01*
X87936300Y-52271700D02*
X86360000Y-53848000D01*
%TO.N,D5*%
X111252000Y-58420000D02*
X93472000Y-58420000D01*
X93472000Y-58420000D02*
X88900000Y-53848000D01*
X118282400Y-59492600D02*
X117209800Y-58420000D01*
X121011200Y-59492600D02*
X118282400Y-59492600D01*
X123353800Y-57150000D02*
X121011200Y-59492600D01*
X127076600Y-57150000D02*
X123353800Y-57150000D01*
X129761200Y-54465400D02*
X127076600Y-57150000D01*
X134046200Y-52960700D02*
X134046200Y-53431000D01*
X134900300Y-52106600D02*
X134046200Y-52960700D01*
X153224300Y-52106600D02*
X134900300Y-52106600D01*
X156541100Y-48789800D02*
X153224300Y-52106600D01*
X117209800Y-58420000D02*
X111252000Y-58420000D01*
X197180000Y-102483600D02*
X197180000Y-59879500D01*
X186090300Y-48789800D02*
X156541100Y-48789800D01*
X134046200Y-53431000D02*
X133011800Y-54465400D01*
X197180000Y-59879500D02*
X186090300Y-48789800D01*
X172212000Y-112756000D02*
X173311900Y-111656100D01*
X133011800Y-54465400D02*
X129761200Y-54465400D01*
X188007500Y-111656100D02*
X197180000Y-102483600D01*
X173311900Y-111656100D02*
X188007500Y-111656100D01*
%TO.N,Net-(RL5-Pad2)*%
X156464000Y-93116000D02*
X158329000Y-94981000D01*
X154560400Y-119638700D02*
X151384000Y-122815100D01*
X151384000Y-122815100D02*
X151384000Y-123596000D01*
%TO.N,R_SWITCH*%
X151384000Y-100980700D02*
X151384000Y-105156000D01*
X151384000Y-105156000D02*
X154830900Y-105156000D01*
X154830900Y-105156000D02*
X157555900Y-107881000D01*
X157555900Y-107881000D02*
X157555900Y-108843100D01*
X157555900Y-108843100D02*
X156955600Y-109443400D01*
X156955600Y-109443400D02*
X156026500Y-109443400D01*
X156026500Y-109443400D02*
X155325800Y-110144100D01*
X155325800Y-110144100D02*
X155325800Y-111026800D01*
X155325800Y-111026800D02*
X155955000Y-111656000D01*
X155955000Y-111656000D02*
X156927100Y-111656000D01*
X156927100Y-111656000D02*
X157552400Y-112281300D01*
X157552400Y-112281300D02*
X157552400Y-114227600D01*
X157552400Y-114227600D02*
X151384000Y-120396000D01*
X151384000Y-89916000D02*
X143764100Y-82296100D01*
X143764100Y-82296100D02*
X143764100Y-78749300D01*
X143764100Y-78749300D02*
X143764000Y-78749300D01*
X143764000Y-77724000D02*
X143764000Y-78749300D01*
%TO.N,Net-(RL6-Pad4)*%
X124460000Y-107188000D02*
X122934700Y-107188000D01*
X156464000Y-127996000D02*
X155232600Y-129227400D01*
X155232600Y-129227400D02*
X138539600Y-129227400D01*
X138539600Y-129227400D02*
X132869300Y-123557100D01*
X132869300Y-123557100D02*
X130329300Y-123557100D01*
X130329300Y-123557100D02*
X125390200Y-118618000D01*
X125390200Y-118618000D02*
X123708600Y-118618000D01*
X123708600Y-118618000D02*
X122934700Y-117844100D01*
X122934700Y-117844100D02*
X122934700Y-107188000D01*
%TO.N,R_POWER*%
X163830200Y-91758200D02*
X162834400Y-90762400D01*
X162834400Y-90762400D02*
X162834400Y-78035900D01*
X162834400Y-78035900D02*
X160799500Y-76001000D01*
X160799500Y-76001000D02*
X149875900Y-76001000D01*
X149875900Y-76001000D02*
X148550900Y-74676000D01*
X148550900Y-74676000D02*
X143764000Y-74676000D01*
%TO.N,SDA*%
X195072000Y-110903300D02*
X195439300Y-110903300D01*
X195439300Y-110903300D02*
X196295400Y-111759400D01*
X196295400Y-111759400D02*
X196295400Y-112714900D01*
X196295400Y-112714900D02*
X195472300Y-113538000D01*
X195472300Y-113538000D02*
X193896600Y-113538000D01*
X193896600Y-113538000D02*
X188728500Y-118706100D01*
X188728500Y-118706100D02*
X185137100Y-118706100D01*
X185137100Y-118706100D02*
X173637800Y-130205400D01*
X195072000Y-109728000D02*
X195072000Y-110903300D01*
X131740800Y-76320500D02*
X130554700Y-77506600D01*
X130554700Y-77506600D02*
X130554700Y-83820000D01*
X132080000Y-83820000D02*
X130554700Y-83820000D01*
X132080000Y-55880000D02*
X129236700Y-55880000D01*
X129236700Y-55880000D02*
X125426700Y-59690000D01*
X125426700Y-59690000D02*
X123697700Y-59690000D01*
X123697700Y-59690000D02*
X121508800Y-61878900D01*
X121508800Y-61878900D02*
X121508800Y-62384200D01*
X121508800Y-62384200D02*
X119367600Y-64525400D01*
X119367600Y-64525400D02*
X91394900Y-64525400D01*
X91394900Y-64525400D02*
X91138400Y-64268900D01*
X120236600Y-130207400D02*
X120238600Y-130205400D01*
X120238600Y-130205400D02*
X120021000Y-130205400D01*
X173637800Y-130205400D02*
X120238600Y-130205400D01*
X112935400Y-130164200D02*
X112935400Y-130207400D01*
X112797600Y-130026400D02*
X112935400Y-130164200D01*
X112797600Y-119289300D02*
X112797600Y-130026400D01*
X111473600Y-117965300D02*
X112797600Y-119289300D01*
X111252000Y-117965300D02*
X111473600Y-117965300D01*
X112935400Y-130207400D02*
X120236600Y-130207400D01*
X111252000Y-116840000D02*
X111252000Y-117965300D01*
X112935400Y-130164200D02*
X110003600Y-133096000D01*
X86891000Y-133096000D02*
X74414000Y-120619000D01*
X110003600Y-133096000D02*
X86891000Y-133096000D01*
%TO.N,SCL*%
X112377300Y-114300000D02*
X116187300Y-110490000D01*
X116187300Y-110490000D02*
X119217500Y-110490000D01*
X119217500Y-110490000D02*
X121878500Y-107829000D01*
X121878500Y-107829000D02*
X121878500Y-107251000D01*
X121878500Y-107251000D02*
X123067900Y-106061600D01*
X123067900Y-106061600D02*
X126521600Y-106061600D01*
X126521600Y-106061600D02*
X130624700Y-101958500D01*
X130624700Y-101958500D02*
X133975000Y-101958500D01*
X133975000Y-101958500D02*
X134704000Y-101229500D01*
X133605300Y-86360000D02*
X134358900Y-85606400D01*
X134358900Y-85606400D02*
X134358900Y-78907300D01*
X132080000Y-86360000D02*
X133605300Y-86360000D01*
X193896700Y-112268000D02*
X187963500Y-118201200D01*
X187963500Y-118201200D02*
X176068700Y-118201200D01*
X176068700Y-118201200D02*
X169573900Y-124696000D01*
X169573900Y-124696000D02*
X161613800Y-124696000D01*
X161613800Y-124696000D02*
X156567800Y-129742000D01*
X156567800Y-129742000D02*
X131647000Y-129742000D01*
X131647000Y-129742000D02*
X126641500Y-124736500D01*
X126641500Y-124736500D02*
X126641500Y-122423800D01*
X126641500Y-122423800D02*
X125315700Y-121098000D01*
X125315700Y-121098000D02*
X118894000Y-121098000D01*
X118894000Y-121098000D02*
X112377300Y-114581300D01*
X112377300Y-114581300D02*
X112377300Y-114300000D01*
X111252000Y-114300000D02*
X112377300Y-114300000D01*
X111252000Y-114300000D02*
X110126700Y-114300000D01*
X110126700Y-114300000D02*
X107729800Y-111903100D01*
X107729800Y-111903100D02*
X73512600Y-111903100D01*
X73512600Y-111903100D02*
X73305900Y-112109800D01*
X73305900Y-112109800D02*
X73305900Y-116970900D01*
X73305900Y-116970900D02*
X74414000Y-118079000D01*
X195072000Y-112268000D02*
X193896700Y-112268000D01*
%TO.N,DBOUT2*%
X132080000Y-119888000D02*
X133605300Y-119888000D01*
X138176000Y-117348000D02*
X136145300Y-117348000D01*
X136145300Y-117348000D02*
X133605300Y-119888000D01*
%TO.N,DBIN2*%
X124460000Y-117348000D02*
X125985300Y-117348000D01*
X138176000Y-114808000D02*
X137000700Y-114808000D01*
X137000700Y-114808000D02*
X135825400Y-115983300D01*
X135825400Y-115983300D02*
X127350000Y-115983300D01*
X127350000Y-115983300D02*
X125985300Y-117348000D01*
%TO.N,DBOUT1*%
X124460000Y-114808000D02*
X125985300Y-114808000D01*
X138176000Y-112268000D02*
X137000700Y-112268000D01*
X137000700Y-112268000D02*
X135862600Y-111129900D01*
X135862600Y-111129900D02*
X129663400Y-111129900D01*
X129663400Y-111129900D02*
X125985300Y-114808000D01*
%TO.N,DBIN3*%
X138176000Y-119888000D02*
X137000700Y-119888000D01*
X137000700Y-119888000D02*
X134460700Y-122428000D01*
X134460700Y-122428000D02*
X132080000Y-122428000D01*
%TO.N,vsense*%
X195072000Y-59944000D02*
X189882600Y-54754600D01*
X189882600Y-54754600D02*
X181308500Y-54754600D01*
X181308500Y-54754600D02*
X176845900Y-50292000D01*
X176845900Y-50292000D02*
X169164000Y-50292000D01*
%TO.N,TTX*%
X73660000Y-74676000D02*
X73660000Y-73500700D01*
X73660000Y-73500700D02*
X69986600Y-69827300D01*
X69986600Y-69827300D02*
X69986600Y-53348800D01*
X69986600Y-53348800D02*
X71540200Y-51795200D01*
X71540200Y-51795200D02*
X83374100Y-51795200D01*
X83374100Y-51795200D02*
X85090000Y-53511100D01*
X85090000Y-53511100D02*
X85090000Y-54238600D01*
X85090000Y-54238600D02*
X85847600Y-54996200D01*
X85847600Y-54996200D02*
X86839700Y-54996200D01*
X86839700Y-54996200D02*
X87630000Y-54205900D01*
X87630000Y-54205900D02*
X87630000Y-53462600D01*
X87630000Y-53462600D02*
X88370500Y-52722100D01*
X88370500Y-52722100D02*
X97934100Y-52722100D01*
X97934100Y-52722100D02*
X99060000Y-53848000D01*
%TO.N,Net-(RL7-Pad4)*%
X133605300Y-112268000D02*
X134969900Y-113632600D01*
X134969900Y-113632600D02*
X140204600Y-113632600D01*
X140204600Y-113632600D02*
X142558600Y-115986600D01*
X142558600Y-115986600D02*
X153233400Y-115986600D01*
X153233400Y-115986600D02*
X156464000Y-112756000D01*
X132080000Y-112268000D02*
X133605300Y-112268000D01*
%TO.N,PDSS_RB0*%
X84836000Y-74676000D02*
X84836000Y-73500700D01*
X84836000Y-73500700D02*
X82550000Y-71214700D01*
X82550000Y-71214700D02*
X82550000Y-61998200D01*
X82550000Y-61998200D02*
X75035700Y-54483900D01*
X75035700Y-54483900D02*
X75035700Y-53408700D01*
X75035700Y-53408700D02*
X75735900Y-52708500D01*
X75735900Y-52708500D02*
X77600500Y-52708500D01*
X77600500Y-52708500D02*
X78740000Y-53848000D01*
%TO.N,TNC4*%
X101092000Y-74676000D02*
X99916700Y-74676000D01*
X99916700Y-74676000D02*
X99916700Y-74308600D01*
X99916700Y-74308600D02*
X94696100Y-69088000D01*
X94696100Y-69088000D02*
X93980000Y-69088000D01*
%TO.N,TNC3*%
X98552000Y-74676000D02*
X97376700Y-74676000D01*
X97376700Y-74676000D02*
X97376700Y-74308600D01*
X97376700Y-74308600D02*
X92156100Y-69088000D01*
X92156100Y-69088000D02*
X91440000Y-69088000D01*
%TO.N,TNC2*%
X96012000Y-74676000D02*
X94836700Y-74676000D01*
X94836700Y-74676000D02*
X94836700Y-75043300D01*
X94836700Y-75043300D02*
X94028600Y-75851400D01*
X94028600Y-75851400D02*
X83824800Y-75851400D01*
X83824800Y-75851400D02*
X80010000Y-72036600D01*
X80010000Y-72036600D02*
X80010000Y-62738000D01*
X80010000Y-62738000D02*
X71120000Y-53848000D01*
%TO.N,TNC1*%
X93472000Y-74676000D02*
X92296700Y-74676000D01*
X92296700Y-74676000D02*
X92296700Y-73827200D01*
X92296700Y-73827200D02*
X91970200Y-73500700D01*
X91970200Y-73500700D02*
X91643500Y-73500700D01*
X91643500Y-73500700D02*
X87630000Y-69487200D01*
X87630000Y-69487200D02*
X87630000Y-65278000D01*
X87630000Y-65278000D02*
X76200000Y-53848000D01*
%TO.N,Net-(CU4-2-Pad2)*%
X124580000Y-128524000D02*
X124580000Y-127398700D01*
X124460000Y-122428000D02*
X125985300Y-122428000D01*
X125985300Y-122428000D02*
X125985300Y-125993400D01*
X125985300Y-125993400D02*
X124580000Y-127398700D01*
%TO.N,Net-(CU4-2-Pad1)*%
X132080000Y-124968000D02*
X132080000Y-128524000D01*
%TO.N,Net-(D1-1-Pad1)*%
X172212000Y-95316000D02*
X170032000Y-93136000D01*
X170032000Y-93136000D02*
X170032000Y-91507300D01*
X170032000Y-91507300D02*
X169719800Y-91195100D01*
X169719800Y-91195100D02*
X169719800Y-84396700D01*
X169719800Y-84396700D02*
X166853100Y-81530000D01*
X166853100Y-81530000D02*
X166853100Y-62205100D01*
X166853100Y-62205100D02*
X161544000Y-56896000D01*
X158496000Y-56896000D02*
X161544000Y-56896000D01*
%TO.N,Net-(D1-2-Pad1)*%
X167132000Y-95316000D02*
X168681100Y-93766900D01*
X168681100Y-93766900D02*
X168681100Y-92067100D01*
X168681100Y-92067100D02*
X168230800Y-91616800D01*
X168230800Y-91616800D02*
X168230800Y-89290600D01*
X168230800Y-89290600D02*
X164772300Y-85832100D01*
X164772300Y-85832100D02*
X164772300Y-72205100D01*
X164772300Y-72205100D02*
X161173600Y-68606400D01*
X161173600Y-68606400D02*
X161093800Y-68606400D01*
X161093800Y-68606400D02*
X159721400Y-67234000D01*
X159721400Y-67234000D02*
X159721400Y-66462900D01*
X159721400Y-66462900D02*
X158890500Y-65632000D01*
X158890500Y-65632000D02*
X157808300Y-65632000D01*
X157808300Y-65632000D02*
X157270600Y-65094300D01*
X157270600Y-65094300D02*
X157270600Y-62902700D01*
X157270600Y-62902700D02*
X158496000Y-61677300D01*
X158496000Y-60452000D02*
X158496000Y-61677300D01*
X161544000Y-60452000D02*
X158496000Y-60452000D01*
%TO.N,Net-(D2-1-Pad1)*%
X172212000Y-110556000D02*
X173324600Y-109443400D01*
X173324600Y-109443400D02*
X173324600Y-107883300D01*
X173324600Y-107883300D02*
X172673300Y-107232000D01*
X172673300Y-107232000D02*
X171404500Y-107232000D01*
X171404500Y-107232000D02*
X170218400Y-106045900D01*
X170218400Y-106045900D02*
X170218400Y-104287000D01*
X170218400Y-104287000D02*
X173299400Y-101206000D01*
X173299400Y-101206000D02*
X173299400Y-97014600D01*
X173299400Y-97014600D02*
X172700800Y-96416000D01*
X172700800Y-96416000D02*
X171703000Y-96416000D01*
X171703000Y-96416000D02*
X169581700Y-94294700D01*
X169581700Y-94294700D02*
X169581700Y-91693900D01*
X169581700Y-91693900D02*
X169264700Y-91376900D01*
X169264700Y-91376900D02*
X169264700Y-84578500D01*
X169264700Y-84578500D02*
X166402800Y-81716600D01*
X166402800Y-81716600D02*
X166402800Y-68866800D01*
X166402800Y-68866800D02*
X161544000Y-64008000D01*
X158496000Y-64008000D02*
X161544000Y-64008000D01*
%TO.N,Net-(D2-2-Pad1)*%
X167132000Y-110556000D02*
X169131400Y-108556600D01*
X169131400Y-108556600D02*
X169131400Y-91880500D01*
X169131400Y-91880500D02*
X168686500Y-91435600D01*
X168686500Y-91435600D02*
X168686500Y-84637200D01*
X168686500Y-84637200D02*
X165914100Y-81864800D01*
X165914100Y-81864800D02*
X165914100Y-71934000D01*
X165914100Y-71934000D02*
X165914000Y-71934000D01*
X165914000Y-71934000D02*
X161544000Y-67564000D01*
%TO.N,Net-(DU1-1-Pad1)*%
X161544000Y-53340000D02*
X158496000Y-53340000D01*
%TO.N,Net-(JU1-4-Pad6)*%
X99060000Y-69088000D02*
X103472700Y-73500700D01*
X103472700Y-73500700D02*
X103632000Y-73500700D01*
X103632000Y-74676000D02*
X103632000Y-73500700D01*
D30*
%TO.N,Net-(JU3-2-Pad1)*%
X103632000Y-116840000D02*
X103632000Y-115316000D01*
X103632000Y-115316000D02*
X102616000Y-114300000D01*
X102616000Y-114300000D02*
X93370000Y-114300000D01*
X93370000Y-114300000D02*
X90548000Y-117122000D01*
D29*
%TO.N,Net-(JU4-1-Pad4)*%
X144939300Y-128016000D02*
X146059300Y-126896000D01*
X146059300Y-126896000D02*
X156911700Y-126896000D01*
X156911700Y-126896000D02*
X158002800Y-125804900D01*
X158002800Y-125804900D02*
X158002800Y-112094800D01*
X158002800Y-112094800D02*
X156464000Y-110556000D01*
X143764000Y-128016000D02*
X144939300Y-128016000D01*
%TO.N,Net-(JU4-1-Pad2)*%
X143764000Y-122936000D02*
X144939300Y-122936000D01*
X144939300Y-122936000D02*
X147799300Y-125796000D01*
X147799300Y-125796000D02*
X151384000Y-125796000D01*
%TO.N,Net-(JU4-1-Pad1)*%
X143764000Y-120396000D02*
X144939300Y-120396000D01*
X156464000Y-125796000D02*
X155364000Y-124696000D01*
X155364000Y-124696000D02*
X149239300Y-124696000D01*
X149239300Y-124696000D02*
X144939300Y-120396000D01*
%TO.N,Net-(JU4-2-Pad4)*%
X143764000Y-114808000D02*
X144939300Y-114808000D01*
X144939300Y-114808000D02*
X150278700Y-109468600D01*
X150278700Y-109468600D02*
X155351400Y-109468600D01*
X155351400Y-109468600D02*
X156464000Y-108356000D01*
%TO.N,Net-(JU4-2-Pad3)*%
X144939300Y-105250600D02*
X144939300Y-111092700D01*
X150400300Y-99789600D02*
X144939300Y-105250600D01*
X151990400Y-99789600D02*
X150400300Y-99789600D01*
X144939300Y-111092700D02*
X143764000Y-112268000D01*
X156464000Y-95316000D02*
X151990400Y-99789600D01*
%TO.N,Net-(JU4-2-Pad2)*%
X151384000Y-95316000D02*
X152496600Y-96428600D01*
X152496600Y-96428600D02*
X152496600Y-97943700D01*
X152496600Y-97943700D02*
X151287700Y-99152600D01*
X151287700Y-99152600D02*
X149606200Y-99152600D01*
X149606200Y-99152600D02*
X142588600Y-106170200D01*
X142588600Y-108552600D02*
X143764000Y-109728000D01*
X142588600Y-106170200D02*
X142588600Y-108552600D01*
%TO.N,Net-(JU6-1-Pad2)*%
X102616000Y-129032000D02*
X107963700Y-129032000D01*
X107963700Y-129032000D02*
X111519400Y-125476300D01*
X134229800Y-89016800D02*
X132987600Y-87774600D01*
X132987600Y-87774600D02*
X131457000Y-87774600D01*
X131457000Y-87774600D02*
X130547900Y-86865500D01*
X130547900Y-86865500D02*
X130547900Y-85897000D01*
X130547900Y-85897000D02*
X131354900Y-85090000D01*
X131354900Y-85090000D02*
X132805500Y-85090000D01*
X132805500Y-85090000D02*
X133633400Y-84262100D01*
X133633400Y-84262100D02*
X133633400Y-77186600D01*
X133633400Y-77186600D02*
X136144000Y-74676000D01*
%TO.N,Net-(JU6-2-Pad2)*%
X165349000Y-91740800D02*
X163339400Y-89731200D01*
X163339400Y-89731200D02*
X163339400Y-74977100D01*
X163339400Y-74977100D02*
X161331200Y-72968900D01*
X161331200Y-72968900D02*
X140899100Y-72968900D01*
X140899100Y-72968900D02*
X136144000Y-77724000D01*
%TO.N,Net-(R3-1-Pad2)*%
X169164000Y-71120000D02*
X169164000Y-70094700D01*
X175767200Y-59690000D02*
X171976500Y-59690000D01*
X171976500Y-59690000D02*
X168104800Y-63561700D01*
X168104800Y-63561700D02*
X168104800Y-64832600D01*
X168104800Y-64832600D02*
X170189300Y-66917100D01*
X170189300Y-66917100D02*
X170189300Y-69069400D01*
X170189300Y-69069400D02*
X169164000Y-70094700D01*
%TO.N,Net-(R3-2-Pad2)*%
X169164000Y-74676000D02*
X170189300Y-74676000D01*
X175381600Y-76171000D02*
X171684300Y-76171000D01*
X171684300Y-76171000D02*
X170189300Y-74676000D01*
%TO.N,Net-(R4-1-Pad2)*%
X169164000Y-78232000D02*
X169164000Y-79257300D01*
X186944000Y-93116000D02*
X188053000Y-92007000D01*
X188053000Y-92007000D02*
X188053000Y-89453600D01*
X188053000Y-89453600D02*
X187412100Y-88812700D01*
X187412100Y-88812700D02*
X177034300Y-88812700D01*
X177034300Y-88812700D02*
X174789500Y-91057500D01*
X174789500Y-91057500D02*
X171790900Y-91057500D01*
X171790900Y-91057500D02*
X171071100Y-90337700D01*
X171071100Y-90337700D02*
X171071100Y-81164400D01*
X171071100Y-81164400D02*
X169164000Y-79257300D01*
%TO.N,Net-(R4-2-Pad2)*%
X169164000Y-82813300D02*
X170170300Y-83819600D01*
X170170300Y-83819600D02*
X170170300Y-90710700D01*
X170170300Y-90710700D02*
X171417800Y-91958200D01*
X171417800Y-91958200D02*
X180706200Y-91958200D01*
X180706200Y-91958200D02*
X181864000Y-93116000D01*
X169164000Y-81788000D02*
X169164000Y-82813300D01*
%TO.N,Net-(RL5-Pad5)*%
X132080000Y-109728000D02*
X133605300Y-109728000D01*
X151384000Y-97516000D02*
X145626600Y-97516000D01*
X145626600Y-97516000D02*
X133605300Y-109537300D01*
X133605300Y-109537300D02*
X133605300Y-109728000D01*
%TO.N,Net-(RU1-1-Pad2)*%
X118872000Y-53340000D02*
X117846700Y-53340000D01*
X117846700Y-53340000D02*
X116821400Y-54365300D01*
X116821400Y-54365300D02*
X107034100Y-54365300D01*
X107034100Y-54365300D02*
X106400000Y-54999400D01*
X106400000Y-54999400D02*
X97671400Y-54999400D01*
X97671400Y-54999400D02*
X96520000Y-53848000D01*
%TO.N,Net-(RU1-2-Pad2)*%
X93980000Y-53848000D02*
X95581800Y-55449800D01*
X95581800Y-55449800D02*
X107428500Y-55449800D01*
X107428500Y-55449800D02*
X108023700Y-54854600D01*
X108023700Y-54854600D02*
X116821300Y-54854600D01*
X116821300Y-54854600D02*
X117846700Y-55880000D01*
X118872000Y-55880000D02*
X117846700Y-55880000D01*
%TO.N,Net-(RU1-3-Pad2)*%
X117846700Y-58420000D02*
X116628800Y-57202100D01*
X116628800Y-57202100D02*
X94794100Y-57202100D01*
X94794100Y-57202100D02*
X91440000Y-53848000D01*
X118872000Y-58420000D02*
X117846700Y-58420000D01*
%TO.N,Net-(RU1-4-Pad2)*%
X117846700Y-60960000D02*
X116371000Y-59484300D01*
X116371000Y-59484300D02*
X89456300Y-59484300D01*
X89456300Y-59484300D02*
X83820000Y-53848000D01*
X118872000Y-60960000D02*
X117846700Y-60960000D01*
%TO.N,Net-(RU1-4-Pad1)*%
X97903500Y-79694900D02*
X95565100Y-79694900D01*
X95565100Y-79694900D02*
X91694000Y-83566000D01*
%TO.N,Net-(RU1-5-Pad2)*%
X118872000Y-63500000D02*
X117846700Y-63500000D01*
X117846700Y-63500000D02*
X116821400Y-62474700D01*
X116821400Y-62474700D02*
X102593200Y-62474700D01*
X102593200Y-62474700D02*
X100278500Y-60160000D01*
X100278500Y-60160000D02*
X87592000Y-60160000D01*
X87592000Y-60160000D02*
X81280000Y-53848000D01*
%TO.N,Net-(RU1-5-Pad1)*%
X98410600Y-81054200D02*
X96745800Y-81054200D01*
X96745800Y-81054200D02*
X94234000Y-83566000D01*
%TO.N,Net-(RU1-6-Pad2)*%
X118872000Y-66040000D02*
X117846700Y-66040000D01*
X117846700Y-66040000D02*
X116821400Y-65014700D01*
X116821400Y-65014700D02*
X90841000Y-65014700D01*
X90841000Y-65014700D02*
X80010000Y-54183700D01*
X80010000Y-54183700D02*
X80010000Y-53519600D01*
X80010000Y-53519600D02*
X78740400Y-52250000D01*
X78740400Y-52250000D02*
X75258000Y-52250000D01*
X75258000Y-52250000D02*
X73660000Y-53848000D01*
%TO.N,Net-(RU1-6-Pad1)*%
X103072000Y-77711700D02*
X92468300Y-77711700D01*
X92468300Y-77711700D02*
X86614000Y-83566000D01*
%TO.N,Net-(RU1-7-Pad2)*%
X71120000Y-69088000D02*
X74571300Y-72539300D01*
X74571300Y-72539300D02*
X78333000Y-72539300D01*
X78333000Y-72539300D02*
X82609500Y-76815800D01*
X82609500Y-76815800D02*
X109610900Y-76815800D01*
%TO.N,Net-(RU1-8-Pad2)*%
X73660000Y-69088000D02*
X75958600Y-71386600D01*
X75958600Y-71386600D02*
X77817300Y-71386600D01*
X77817300Y-71386600D02*
X82749200Y-76318500D01*
X82749200Y-76318500D02*
X105849700Y-76318500D01*
X105849700Y-76318500D02*
X106142300Y-76025900D01*
X106142300Y-76025900D02*
X112940800Y-76025900D01*
%TO.N,Net-(RU1-8-Pad1)*%
X89154000Y-83566000D02*
X93837300Y-78882700D01*
X93837300Y-78882700D02*
X103297900Y-78882700D01*
%TO.N,Net-(RU1-9-Pad1)*%
X111252000Y-73660000D02*
X105551300Y-67959300D01*
X105551300Y-67959300D02*
X102728700Y-67959300D01*
X102728700Y-67959300D02*
X101600000Y-69088000D01*
%TO.N,Net-(RU8-1-Pad2)*%
X186944000Y-58420000D02*
X186944000Y-59545300D01*
X184404000Y-74676000D02*
X184404000Y-61804000D01*
X184404000Y-61804000D02*
X186662700Y-59545300D01*
X186662700Y-59545300D02*
X186944000Y-59545300D01*
%TO.N,Net-(RU8-2-Pad2)*%
X186944000Y-60960000D02*
X186944000Y-62085300D01*
X184404000Y-77462000D02*
X184404000Y-76436700D01*
X184404000Y-76436700D02*
X184916600Y-76436700D01*
X184916600Y-76436700D02*
X188069400Y-73283900D01*
X188069400Y-73283900D02*
X188069400Y-70642100D01*
X188069400Y-70642100D02*
X187421900Y-69994600D01*
X187421900Y-69994600D02*
X186720400Y-69994600D01*
X186720400Y-69994600D02*
X185818700Y-69092900D01*
X185818700Y-69092900D02*
X185818700Y-62929200D01*
X185818700Y-62929200D02*
X186662600Y-62085300D01*
X186662600Y-62085300D02*
X186944000Y-62085300D01*
%TO.N,EXP5*%
X157270700Y-71120000D02*
X156045400Y-72345300D01*
X156045400Y-72345300D02*
X140072600Y-72345300D01*
X140072600Y-72345300D02*
X135084300Y-77333600D01*
X135084300Y-77333600D02*
X135084300Y-87272000D01*
X135084300Y-87272000D02*
X134858000Y-87498300D01*
X158496000Y-71120000D02*
X157270700Y-71120000D01*
X161544000Y-71120000D02*
X158496000Y-71120000D01*
X130554700Y-99060000D02*
X129429300Y-100185400D01*
X129429300Y-100185400D02*
X116042700Y-100185400D01*
X116042700Y-100185400D02*
X112377300Y-96520000D01*
X111252000Y-96520000D02*
X112377300Y-96520000D01*
X132080000Y-99060000D02*
X130554700Y-99060000D01*
%TO.N,EXP6*%
X157270700Y-74676000D02*
X156013900Y-73419200D01*
X156013900Y-73419200D02*
X143560600Y-73419200D01*
X143560600Y-73419200D02*
X138290400Y-78689400D01*
X138290400Y-78689400D02*
X138290400Y-85430800D01*
X138290400Y-85430800D02*
X135222000Y-88499200D01*
X158496000Y-74676000D02*
X157270700Y-74676000D01*
X161544000Y-74676000D02*
X158496000Y-74676000D01*
X133605300Y-96520000D02*
X133605300Y-99590000D01*
X133605300Y-99590000D02*
X132925500Y-100269800D01*
X132925500Y-100269800D02*
X130084300Y-100269800D01*
X130084300Y-100269800D02*
X129718300Y-100635800D01*
X129718300Y-100635800D02*
X122709000Y-100635800D01*
X122709000Y-100635800D02*
X120586600Y-102758200D01*
X120586600Y-102758200D02*
X116075500Y-102758200D01*
X116075500Y-102758200D02*
X112377300Y-99060000D01*
X111252000Y-99060000D02*
X112377300Y-99060000D01*
X132080000Y-96520000D02*
X133605300Y-96520000D01*
%TO.N,EXP7*%
X157270700Y-78232000D02*
X156045300Y-79457400D01*
X156045300Y-79457400D02*
X149006000Y-79457400D01*
X149006000Y-79457400D02*
X145774700Y-76226100D01*
X145774700Y-76226100D02*
X143085400Y-76226100D01*
X143085400Y-76226100D02*
X141497300Y-77814200D01*
X141497300Y-77814200D02*
X141497300Y-83249700D01*
X141497300Y-83249700D02*
X134500400Y-90246600D01*
X134500400Y-90246600D02*
X134060900Y-90246600D01*
X134060900Y-90246600D02*
X134060900Y-90246700D01*
X130554700Y-93980000D02*
X129429300Y-95105400D01*
X129429300Y-95105400D02*
X121715200Y-95105400D01*
X132080000Y-93980000D02*
X130554700Y-93980000D01*
X158496000Y-78232000D02*
X157270700Y-78232000D01*
X161544000Y-78232000D02*
X158496000Y-78232000D01*
%TO.N,EXP8*%
X132080000Y-91440000D02*
X133943900Y-91440000D01*
X133943900Y-91440000D02*
X142332300Y-83051600D01*
X142332300Y-83051600D02*
X142332300Y-77644000D01*
X142332300Y-77644000D02*
X143299800Y-76676500D01*
X143299800Y-76676500D02*
X144784300Y-76676500D01*
X144784300Y-76676500D02*
X148670500Y-80562700D01*
X148670500Y-80562700D02*
X156045400Y-80562700D01*
X156045400Y-80562700D02*
X157270700Y-81788000D01*
X158496000Y-81788000D02*
X157270700Y-81788000D01*
X161544000Y-81788000D02*
X158496000Y-81788000D01*
%TO.N,EXP2*%
X125985300Y-91440000D02*
X127175800Y-92630500D01*
X127175800Y-92630500D02*
X134425800Y-92630500D01*
X134425800Y-92630500D02*
X135953400Y-91102900D01*
X135953400Y-91102900D02*
X158813000Y-91102900D01*
X158813000Y-91102900D02*
X160826100Y-93116000D01*
X160826100Y-93116000D02*
X167132000Y-93116000D01*
X124460000Y-91440000D02*
X125985300Y-91440000D01*
X124460000Y-91440000D02*
X122934700Y-91440000D01*
X122934700Y-91440000D02*
X121758200Y-92616500D01*
X121758200Y-92616500D02*
X116093800Y-92616500D01*
X116093800Y-92616500D02*
X112377300Y-88900000D01*
X111252000Y-88900000D02*
X112377300Y-88900000D01*
%TO.N,EXP1*%
X111252000Y-86360000D02*
X112377300Y-86360000D01*
X124460000Y-88900000D02*
X121407300Y-88900000D01*
X121407300Y-88900000D02*
X120251600Y-90055700D01*
X120251600Y-90055700D02*
X116073000Y-90055700D01*
X116073000Y-90055700D02*
X112377300Y-86360000D01*
%TO.N,EXP4*%
X124460000Y-96520000D02*
X129590400Y-96520000D01*
X129590400Y-96520000D02*
X130860400Y-95250000D01*
X130860400Y-95250000D02*
X134174100Y-95250000D01*
X134174100Y-95250000D02*
X137870800Y-91553300D01*
X137870800Y-91553300D02*
X157100900Y-91553300D01*
X157100900Y-91553300D02*
X160443300Y-94895700D01*
X160443300Y-94895700D02*
X160443300Y-101667300D01*
X160443300Y-101667300D02*
X167132000Y-108356000D01*
X111252000Y-93980000D02*
X112377300Y-93980000D01*
X124460000Y-96520000D02*
X122934700Y-96520000D01*
X122934700Y-96520000D02*
X121800700Y-97654000D01*
X121800700Y-97654000D02*
X116051300Y-97654000D01*
X116051300Y-97654000D02*
X112377300Y-93980000D01*
%TO.N,EXP3*%
X172212000Y-108356000D02*
X169419900Y-111148100D01*
X169419900Y-111148100D02*
X169419900Y-112086700D01*
X169419900Y-112086700D02*
X167628300Y-113878300D01*
X167628300Y-113878300D02*
X166672000Y-113878300D01*
X166672000Y-113878300D02*
X166044600Y-113250900D01*
X166044600Y-113250900D02*
X166044600Y-113119500D01*
X166044600Y-113119500D02*
X153489800Y-100564700D01*
X153489800Y-100564700D02*
X152923100Y-100564700D01*
X111252000Y-91440000D02*
X112377300Y-91440000D01*
X124460000Y-93980000D02*
X121357700Y-93980000D01*
X121357700Y-93980000D02*
X120179100Y-95158600D01*
X120179100Y-95158600D02*
X116095900Y-95158600D01*
X116095900Y-95158600D02*
X112377300Y-91440000D01*
%TO.N,C_STEP*%
X130554700Y-71120000D02*
X128422400Y-73252300D01*
X128422400Y-73252300D02*
X128422400Y-81888400D01*
X128422400Y-81888400D02*
X125220800Y-85090000D01*
X125220800Y-85090000D02*
X123678000Y-85090000D01*
X123678000Y-85090000D02*
X121193900Y-87574100D01*
X132080000Y-71120000D02*
X130554700Y-71120000D01*
%TO.N,C_GPIO*%
X126973100Y-68675300D02*
X126973100Y-76922500D01*
X126973100Y-76922500D02*
X124727300Y-79168300D01*
X124727300Y-79168300D02*
X123399100Y-79168300D01*
X123399100Y-79168300D02*
X121275900Y-81291500D01*
X121275900Y-81291500D02*
X121275900Y-83673400D01*
X121275900Y-83673400D02*
X121333300Y-83730800D01*
X124460000Y-68580000D02*
X126877800Y-68580000D01*
X126877800Y-68580000D02*
X126973100Y-68675300D01*
X126973100Y-68675300D02*
X130733800Y-64914600D01*
X130733800Y-64914600D02*
X132737800Y-64914600D01*
X132737800Y-64914600D02*
X136144000Y-61508400D01*
X136144000Y-61508400D02*
X136144000Y-60960000D01*
%TO.N,C_SERIAL*%
X122934700Y-66040000D02*
X122447900Y-66526800D01*
X122447900Y-66526800D02*
X122447900Y-71147200D01*
X122447900Y-71147200D02*
X123784200Y-72483500D01*
X123784200Y-72483500D02*
X124905800Y-72483500D01*
X124905800Y-72483500D02*
X125977300Y-73555000D01*
X125977300Y-73555000D02*
X125977300Y-74772100D01*
X125977300Y-74772100D02*
X124755600Y-75993800D01*
X124755600Y-75993800D02*
X119516600Y-75993800D01*
X119516600Y-75993800D02*
X110126400Y-85384000D01*
X110126400Y-85384000D02*
X110126400Y-94516200D01*
X110126400Y-94516200D02*
X110715600Y-95105400D01*
X110715600Y-95105400D02*
X111676400Y-95105400D01*
X111676400Y-95105400D02*
X115631000Y-99060000D01*
X115631000Y-99060000D02*
X118872000Y-99060000D01*
X124460000Y-66040000D02*
X122934700Y-66040000D01*
X124562300Y-66040000D02*
X124460000Y-66040000D01*
X124562300Y-66040000D02*
X125985300Y-66040000D01*
X125985300Y-66040000D02*
X129760900Y-62264400D01*
X129760900Y-62264400D02*
X132835600Y-62264400D01*
X132835600Y-62264400D02*
X133787400Y-61312600D01*
X133787400Y-61312600D02*
X133787400Y-60605900D01*
X133787400Y-60605900D02*
X135973300Y-58420000D01*
X135973300Y-58420000D02*
X136144000Y-58420000D01*
%TO.N,C_SWITCH*%
X124503600Y-63500000D02*
X126462700Y-63500000D01*
X126462700Y-63500000D02*
X130218200Y-59744500D01*
X130218200Y-59744500D02*
X132816800Y-59744500D01*
X132816800Y-59744500D02*
X136144000Y-56417300D01*
X136144000Y-56417300D02*
X136144000Y-55880000D01*
X124503600Y-63500000D02*
X121994100Y-66009500D01*
X121994100Y-66009500D02*
X121994100Y-71330300D01*
X121994100Y-71330300D02*
X123756500Y-73092700D01*
X123756500Y-73092700D02*
X124878100Y-73092700D01*
X124878100Y-73092700D02*
X125527000Y-73741600D01*
X125527000Y-73741600D02*
X125527000Y-74585500D01*
X125527000Y-74585500D02*
X124569000Y-75543500D01*
X124569000Y-75543500D02*
X119311000Y-75543500D01*
X119311000Y-75543500D02*
X109627200Y-85227300D01*
X109627200Y-85227300D02*
X109627200Y-96552600D01*
X109627200Y-96552600D02*
X110864600Y-97790000D01*
X110864600Y-97790000D02*
X112454200Y-97790000D01*
X112454200Y-97790000D02*
X116264200Y-101600000D01*
X116264200Y-101600000D02*
X118872000Y-101600000D01*
X124460000Y-63500000D02*
X124503600Y-63500000D01*
%TO.N,C_POWER*%
X122001300Y-82412400D02*
X122001300Y-81277700D01*
X122001300Y-81277700D02*
X123435300Y-79843700D01*
X123435300Y-79843700D02*
X125215000Y-79843700D01*
X125215000Y-79843700D02*
X126422700Y-78636000D01*
X136144000Y-53340000D02*
X134618700Y-53340000D01*
X124460000Y-60960000D02*
X125985300Y-60960000D01*
X125985300Y-60960000D02*
X129795300Y-57150000D01*
X129795300Y-57150000D02*
X132809500Y-57150000D01*
X132809500Y-57150000D02*
X134618700Y-55340800D01*
X134618700Y-55340800D02*
X134618700Y-53340000D01*
%TD*%
M02*
